M48
; DRILL file {KiCad 9.0.2} date 2025-07-15T17:58:11-0400
; FORMAT={-:-/ absolute / metric / decimal}
; #@! TF.CreationDate,2025-07-15T17:58:11-04:00
; #@! TF.GenerationSoftware,Kicad,Pcbnew,9.0.2
; #@! TF.FileFunction,Plated,1,2,PTH
FMAT,2
METRIC
; #@! TA.AperFunction,Plated,PTH,ViaDrill
T1C0.300
; #@! TA.AperFunction,Plated,PTH,ComponentDrill
T2C0.300
; #@! TA.AperFunction,Plated,PTH,ComponentDrill
T3C0.600
; #@! TA.AperFunction,Plated,PTH,ComponentDrill
T4C0.750
; #@! TA.AperFunction,Plated,PTH,ComponentDrill
T5C0.800
; #@! TA.AperFunction,Plated,PTH,ComponentDrill
T6C0.889
; #@! TA.AperFunction,Plated,PTH,ComponentDrill
T7C0.900
; #@! TA.AperFunction,Plated,PTH,ComponentDrill
T8C1.000
; #@! TA.AperFunction,Plated,PTH,ComponentDrill
T9C1.500
%
G90
G05
T1
X122.951Y-117.4
X123.551Y-106.4
X124.351Y-113.552
X124.4Y-107.0
X124.435Y-93.105
X124.435Y-95.645
X124.919Y-111.287
X125.415Y-106.933
X125.5Y-116.5
X125.8Y-103.6
X126.3Y-120.4
X126.707Y-113.562
X126.819Y-111.287
X126.975Y-93.105
X126.975Y-95.645
X126.975Y-98.185
X127.3Y-103.5
X127.988Y-115.418
X128.786Y-105.914
X129.515Y-93.105
X129.515Y-95.645
X129.515Y-98.185
X130.3Y-105.9
X130.834Y-115.341
X132.055Y-93.105
X132.055Y-95.645
X132.055Y-98.185
X133.183Y-113.445
X133.6Y-106.2
X134.5Y-109.1
X134.595Y-93.105
X134.595Y-95.645
X134.595Y-98.185
X134.595Y-110.885
X134.708Y-101.568
X135.8Y-118.0
X137.135Y-93.105
X139.5Y-97.5
X139.675Y-93.105
X139.675Y-105.805
X139.675Y-110.885
X142.215Y-93.105
X142.215Y-110.885
X142.215Y-115.965
X142.215Y-121.045
X144.755Y-93.105
X144.755Y-100.725
X144.755Y-115.965
X144.755Y-121.045
X147.0Y-118.75
X147.1Y-106.0
X147.295Y-93.105
X147.295Y-100.725
X147.295Y-115.965
X147.6Y-108.4
X149.4Y-104.757
X149.5Y-107.7
X149.835Y-93.105
X149.835Y-100.725
X150.55Y-114.95
X152.375Y-93.105
X152.375Y-121.045
X153.3Y-115.8
X154.0Y-114.8
X154.9Y-112.5
X154.915Y-93.105
X154.915Y-121.045
X155.663Y-104.863
X156.9Y-104.475
X157.3Y-97.3
X157.455Y-93.105
X158.1Y-100.1
X158.6Y-98.5
X159.5Y-107.4
X159.7Y-105.2
X159.995Y-93.105
X159.995Y-121.045
X160.2Y-98.2
X160.4Y-101.9
X161.65Y-105.45
X161.7Y-104.4
X162.4Y-96.5
X162.501Y-102.986
X162.535Y-115.965
X162.535Y-121.045
X163.375Y-107.475
X164.6Y-95.4
X165.075Y-113.425
X165.075Y-115.965
X165.075Y-121.045
X166.1Y-106.8
X167.615Y-95.645
X167.615Y-113.425
X167.615Y-115.965
X167.615Y-121.045
X170.155Y-95.645
X170.155Y-110.885
X170.155Y-113.425
X170.155Y-115.965
X170.155Y-121.045
X170.3Y-108.6
X172.5Y-105.2
X172.695Y-95.645
X175.235Y-95.645
X175.235Y-118.505
X175.235Y-121.045
X175.5Y-108.0
X177.775Y-118.505
X177.775Y-121.045
X178.562Y-95.962
X180.2Y-96.5
X180.315Y-118.505
X180.315Y-121.045
X180.4Y-99.3
X182.855Y-93.105
X182.855Y-115.965
X182.855Y-118.505
X182.855Y-121.045
X183.4Y-100.9
X184.2Y-97.5
X185.395Y-93.105
X185.395Y-100.725
X185.395Y-105.805
X185.395Y-108.346
X185.395Y-110.885
X185.395Y-115.965
X185.395Y-118.505
X185.395Y-121.045
X186.2Y-97.9
X187.935Y-93.105
X187.935Y-108.346
X187.935Y-110.885
X187.935Y-118.505
X187.935Y-121.045
X190.475Y-93.105
X190.475Y-100.725
X190.475Y-108.346
X190.475Y-110.885
X190.475Y-118.505
X190.475Y-121.045
X190.8Y-97.8
X193.015Y-93.105
X193.015Y-95.645
X193.015Y-98.185
X193.015Y-100.725
X193.015Y-103.265
X193.015Y-108.346
X193.015Y-110.885
X193.015Y-115.965
X193.015Y-118.505
X193.7Y-120.4
X195.5Y-116.4
X195.555Y-98.185
X195.555Y-103.265
X195.555Y-108.346
X195.7Y-100.0
T2
X130.4Y-101.8
X130.4Y-103.0
X130.4Y-104.2
X131.8Y-101.8
X131.8Y-103.0
X131.8Y-104.2
T4
X120.65Y-99.0
X120.65Y-101.0
T5
X163.11Y-92.785
X163.11Y-100.405
X165.65Y-92.785
X165.65Y-100.405
X168.19Y-92.785
X168.19Y-100.405
X170.73Y-92.785
X170.73Y-100.405
X173.27Y-92.785
X173.27Y-100.405
X175.81Y-92.785
X175.81Y-100.405
X178.35Y-92.785
X178.35Y-100.405
X180.89Y-92.785
X180.89Y-100.405
T6
X137.8Y-95.06
X137.8Y-97.6
X137.8Y-100.14
X137.8Y-102.68
X137.8Y-105.22
X137.8Y-107.76
X137.8Y-110.3
X153.04Y-95.06
X153.04Y-97.6
X153.04Y-100.14
X153.04Y-102.68
X153.04Y-105.22
X153.04Y-107.76
X153.04Y-110.3
T7
X121.0Y-107.7
X121.0Y-109.7
X121.0Y-111.7
X186.8Y-96.4
X190.8Y-96.4
T8
X166.69Y-103.615
X169.23Y-103.615
X171.77Y-103.615
X174.31Y-103.615
X182.8Y-106.5
X182.8Y-109.0
X182.8Y-111.5
X197.3Y-106.5
X197.3Y-111.5
T9
X121.0Y-105.6
X121.0Y-113.8
T3
G00X124.79Y-114.45
M15
G01X124.79Y-115.55
M16
G05
G00X124.79Y-118.78
M15
G01X124.79Y-119.58
M16
G05
G00X133.43Y-114.45
M15
G01X133.43Y-115.55
M16
G05
G00X133.43Y-118.78
M15
G01X133.43Y-119.58
M16
G05
T9
G00X189.65Y-103.4
M15
G01X190.95Y-103.4
M16
G05
G00X189.65Y-114.6
M15
G01X190.95Y-114.6
M16
G05
M30
