%TF.GenerationSoftware,KiCad,Pcbnew,9.0.2*%
%TF.CreationDate,2025-07-17T17:29:37-04:00*%
%TF.ProjectId,raven-caller,72617665-6e2d-4636-916c-6c65722e6b69,rev?*%
%TF.SameCoordinates,Original*%
%TF.FileFunction,Paste,Top*%
%TF.FilePolarity,Positive*%
%FSLAX46Y46*%
G04 Gerber Fmt 4.6, Leading zero omitted, Abs format (unit mm)*
G04 Created by KiCad (PCBNEW 9.0.2) date 2025-07-17 17:29:37*
%MOMM*%
%LPD*%
G01*
G04 APERTURE LIST*
G04 Aperture macros list*
%AMRoundRect*
0 Rectangle with rounded corners*
0 $1 Rounding radius*
0 $2 $3 $4 $5 $6 $7 $8 $9 X,Y pos of 4 corners*
0 Add a 4 corners polygon primitive as box body*
4,1,4,$2,$3,$4,$5,$6,$7,$8,$9,$2,$3,0*
0 Add four circle primitives for the rounded corners*
1,1,$1+$1,$2,$3*
1,1,$1+$1,$4,$5*
1,1,$1+$1,$6,$7*
1,1,$1+$1,$8,$9*
0 Add four rect primitives between the rounded corners*
20,1,$1+$1,$2,$3,$4,$5,0*
20,1,$1+$1,$4,$5,$6,$7,0*
20,1,$1+$1,$6,$7,$8,$9,0*
20,1,$1+$1,$8,$9,$2,$3,0*%
G04 Aperture macros list end*
%ADD10RoundRect,0.150000X0.150000X-0.512500X0.150000X0.512500X-0.150000X0.512500X-0.150000X-0.512500X0*%
%ADD11RoundRect,0.200000X0.200000X0.275000X-0.200000X0.275000X-0.200000X-0.275000X0.200000X-0.275000X0*%
%ADD12RoundRect,0.200000X-0.275000X0.200000X-0.275000X-0.200000X0.275000X-0.200000X0.275000X0.200000X0*%
%ADD13R,1.200000X1.200000*%
%ADD14R,2.400000X1.500000*%
%ADD15RoundRect,0.150000X-0.150000X-0.425000X0.150000X-0.425000X0.150000X0.425000X-0.150000X0.425000X0*%
%ADD16RoundRect,0.075000X-0.075000X-0.500000X0.075000X-0.500000X0.075000X0.500000X-0.075000X0.500000X0*%
%ADD17O,1.000000X2.100000*%
%ADD18O,1.000000X1.800000*%
%ADD19RoundRect,0.150000X-0.512500X-0.150000X0.512500X-0.150000X0.512500X0.150000X-0.512500X0.150000X0*%
%ADD20RoundRect,0.225000X-0.250000X0.225000X-0.250000X-0.225000X0.250000X-0.225000X0.250000X0.225000X0*%
%ADD21RoundRect,0.100000X-0.400000X0.400000X-0.400000X-0.400000X0.400000X-0.400000X0.400000X0.400000X0*%
%ADD22RoundRect,0.105000X-0.995000X0.420000X-0.995000X-0.420000X0.995000X-0.420000X0.995000X0.420000X0*%
%ADD23RoundRect,0.225000X0.250000X-0.225000X0.250000X0.225000X-0.250000X0.225000X-0.250000X-0.225000X0*%
%ADD24RoundRect,0.225000X-0.017678X0.335876X-0.335876X0.017678X0.017678X-0.335876X0.335876X-0.017678X0*%
%ADD25RoundRect,0.150000X-0.150000X-0.200000X0.150000X-0.200000X0.150000X0.200000X-0.150000X0.200000X0*%
%ADD26RoundRect,0.160000X-0.240000X0.565000X-0.240000X-0.565000X0.240000X-0.565000X0.240000X0.565000X0*%
%ADD27RoundRect,0.120000X-0.180000X0.605000X-0.180000X-0.605000X0.180000X-0.605000X0.180000X0.605000X0*%
%ADD28RoundRect,0.200000X0.275000X-0.200000X0.275000X0.200000X-0.275000X0.200000X-0.275000X-0.200000X0*%
%ADD29RoundRect,0.218750X-0.218750X-0.256250X0.218750X-0.256250X0.218750X0.256250X-0.218750X0.256250X0*%
G04 APERTURE END LIST*
D10*
%TO.C,U7*%
X124950001Y-112400000D03*
X125900000Y-112400000D03*
X126849999Y-112400000D03*
X126849999Y-110125000D03*
X125900000Y-110125000D03*
X124950001Y-110125000D03*
%TD*%
%TO.C,U5*%
X124950000Y-108125001D03*
X125899999Y-108125001D03*
X126849998Y-108125001D03*
X126849998Y-105850001D03*
X125899999Y-105850001D03*
X124950000Y-105850001D03*
%TD*%
D11*
%TO.C,R4*%
X126625000Y-102700000D03*
X124975000Y-102700000D03*
%TD*%
D12*
%TO.C,R2*%
X133800000Y-102075000D03*
X133800000Y-103725000D03*
%TD*%
%TO.C,R13*%
X177099999Y-107650001D03*
X177099999Y-109300001D03*
%TD*%
D13*
%TO.C,D2*%
X131899999Y-112200000D03*
X129100001Y-112200000D03*
%TD*%
D14*
%TO.C,L1*%
X139000000Y-120750000D03*
X139000000Y-115250000D03*
%TD*%
D15*
%TO.C,J7*%
X125910000Y-114425000D03*
X126710000Y-114425000D03*
D16*
X127860000Y-114425000D03*
X128860000Y-114425000D03*
X129360000Y-114425000D03*
X130360000Y-114425000D03*
D15*
X131510000Y-114425000D03*
X132310000Y-114425000D03*
X132310000Y-114425000D03*
X131510000Y-114425000D03*
D16*
X130860000Y-114425000D03*
X129860000Y-114425000D03*
X128360000Y-114425000D03*
X127360000Y-114425000D03*
D15*
X126710000Y-114425000D03*
X125910000Y-114425000D03*
D17*
X124790000Y-115000000D03*
D18*
X124790000Y-119180000D03*
D17*
X133430000Y-115000000D03*
D18*
X133430000Y-119180000D03*
%TD*%
D19*
%TO.C,U13*%
X143500000Y-117100000D03*
X143500000Y-118050000D03*
X143500000Y-119000000D03*
X145775000Y-119000000D03*
X145775000Y-118050000D03*
X145775000Y-117100000D03*
%TD*%
D20*
%TO.C,C29*%
X124700000Y-98025000D03*
X124700000Y-99575000D03*
%TD*%
D12*
%TO.C,R19*%
X180099999Y-107575000D03*
X180099999Y-109225000D03*
%TD*%
D21*
%TO.C,J3*%
X163300000Y-111700000D03*
D22*
X161800000Y-113175001D03*
D21*
X160300000Y-111700000D03*
D22*
X161800000Y-110224999D03*
%TD*%
D23*
%TO.C,C2*%
X134500000Y-107775000D03*
X134500000Y-106225000D03*
%TD*%
D12*
%TO.C,R18*%
X178599998Y-107615000D03*
X178599998Y-109265000D03*
%TD*%
D24*
%TO.C,C5*%
X162648008Y-106851992D03*
X161551992Y-107948008D03*
%TD*%
D12*
%TO.C,R9*%
X149500000Y-119350000D03*
X149500000Y-121000000D03*
%TD*%
D25*
%TO.C,U10*%
X123200000Y-116100000D03*
X121800000Y-116100000D03*
%TD*%
D12*
%TO.C,R5*%
X128341443Y-108775000D03*
X128341443Y-110425000D03*
%TD*%
D26*
%TO.C,D1*%
X179650000Y-110975000D03*
D27*
X178600000Y-110975000D03*
D26*
X177550000Y-110975000D03*
X177550000Y-114025000D03*
D27*
X178600000Y-114025000D03*
D26*
X179650000Y-114025000D03*
%TD*%
D28*
%TO.C,R10*%
X147837440Y-120999999D03*
X147837440Y-119349999D03*
%TD*%
D29*
%TO.C,D4*%
X124912499Y-104200000D03*
X126487501Y-104200000D03*
%TD*%
M02*
