%TF.GenerationSoftware,KiCad,Pcbnew,9.0.2*%
%TF.CreationDate,2025-07-15T17:58:13-04:00*%
%TF.ProjectId,raven-caller,72617665-6e2d-4636-916c-6c65722e6b69,rev?*%
%TF.SameCoordinates,Original*%
%TF.FileFunction,Paste,Bot*%
%TF.FilePolarity,Positive*%
%FSLAX46Y46*%
G04 Gerber Fmt 4.6, Leading zero omitted, Abs format (unit mm)*
G04 Created by KiCad (PCBNEW 9.0.2) date 2025-07-15 17:58:13*
%MOMM*%
%LPD*%
G01*
G04 APERTURE LIST*
G04 Aperture macros list*
%AMRoundRect*
0 Rectangle with rounded corners*
0 $1 Rounding radius*
0 $2 $3 $4 $5 $6 $7 $8 $9 X,Y pos of 4 corners*
0 Add a 4 corners polygon primitive as box body*
4,1,4,$2,$3,$4,$5,$6,$7,$8,$9,$2,$3,0*
0 Add four circle primitives for the rounded corners*
1,1,$1+$1,$2,$3*
1,1,$1+$1,$4,$5*
1,1,$1+$1,$6,$7*
1,1,$1+$1,$8,$9*
0 Add four rect primitives between the rounded corners*
20,1,$1+$1,$2,$3,$4,$5,0*
20,1,$1+$1,$4,$5,$6,$7,0*
20,1,$1+$1,$6,$7,$8,$9,0*
20,1,$1+$1,$8,$9,$2,$3,0*%
G04 Aperture macros list end*
%ADD10RoundRect,0.200000X0.275000X-0.200000X0.275000X0.200000X-0.275000X0.200000X-0.275000X-0.200000X0*%
%ADD11R,1.600000X0.300000*%
%ADD12RoundRect,0.150000X0.200000X-0.150000X0.200000X0.150000X-0.200000X0.150000X-0.200000X-0.150000X0*%
%ADD13RoundRect,0.200000X-0.275000X0.200000X-0.275000X-0.200000X0.275000X-0.200000X0.275000X0.200000X0*%
%ADD14RoundRect,0.200000X-0.200000X-0.275000X0.200000X-0.275000X0.200000X0.275000X-0.200000X0.275000X0*%
%ADD15RoundRect,0.150000X-0.587500X-0.150000X0.587500X-0.150000X0.587500X0.150000X-0.587500X0.150000X0*%
%ADD16RoundRect,0.225000X0.017678X-0.335876X0.335876X-0.017678X-0.017678X0.335876X-0.335876X0.017678X0*%
%ADD17RoundRect,0.225000X-0.250000X0.225000X-0.250000X-0.225000X0.250000X-0.225000X0.250000X0.225000X0*%
%ADD18RoundRect,0.150000X0.150000X-0.825000X0.150000X0.825000X-0.150000X0.825000X-0.150000X-0.825000X0*%
%ADD19RoundRect,0.218750X-0.218750X-0.256250X0.218750X-0.256250X0.218750X0.256250X-0.218750X0.256250X0*%
%ADD20RoundRect,0.200000X0.200000X0.275000X-0.200000X0.275000X-0.200000X-0.275000X0.200000X-0.275000X0*%
%ADD21RoundRect,0.225000X-0.225000X-0.250000X0.225000X-0.250000X0.225000X0.250000X-0.225000X0.250000X0*%
%ADD22RoundRect,0.250000X0.255000X0.440000X-0.255000X0.440000X-0.255000X-0.440000X0.255000X-0.440000X0*%
%ADD23RoundRect,0.150000X0.825000X0.150000X-0.825000X0.150000X-0.825000X-0.150000X0.825000X-0.150000X0*%
%ADD24RoundRect,0.225000X0.250000X-0.225000X0.250000X0.225000X-0.250000X0.225000X-0.250000X-0.225000X0*%
%ADD25RoundRect,0.317500X-1.157500X-0.317500X1.157500X-0.317500X1.157500X0.317500X-1.157500X0.317500X0*%
G04 APERTURE END LIST*
D10*
%TO.C,R1*%
X187087500Y-99550000D03*
X187087500Y-97900000D03*
%TD*%
D11*
%TO.C,U11*%
X163800000Y-102525000D03*
X163800000Y-103175000D03*
X163800000Y-103825000D03*
X163800000Y-104475000D03*
X160400000Y-104475000D03*
X160400000Y-103825000D03*
X160400000Y-103175000D03*
X160400000Y-102525000D03*
%TD*%
D12*
%TO.C,U8*%
X129422687Y-116317494D03*
X129422687Y-117717494D03*
%TD*%
D13*
%TO.C,R16*%
X130900000Y-116275000D03*
X130900000Y-117925000D03*
%TD*%
D14*
%TO.C,R6*%
X128675000Y-108570000D03*
X130325000Y-108570000D03*
%TD*%
D15*
%TO.C,Q1*%
X188825000Y-99675000D03*
X188825000Y-97775000D03*
X190700000Y-98725000D03*
%TD*%
D16*
%TO.C,C6*%
X157151992Y-103248008D03*
X158248008Y-102151992D03*
%TD*%
D17*
%TO.C,C1*%
X126500000Y-116725000D03*
X126500000Y-118275000D03*
%TD*%
D14*
%TO.C,R7*%
X159475000Y-101000000D03*
X161125000Y-101000000D03*
%TD*%
D18*
%TO.C,U3*%
X179804999Y-114475001D03*
X178534999Y-114475001D03*
X177264999Y-114475001D03*
X175994999Y-114475001D03*
X175994999Y-109525001D03*
X177264999Y-109525001D03*
X178534999Y-109525001D03*
X179804999Y-109525001D03*
%TD*%
D19*
%TO.C,D3*%
X125112499Y-101000000D03*
X126687501Y-101000000D03*
%TD*%
D12*
%TO.C,U9*%
X132327927Y-116613528D03*
X132327927Y-118013528D03*
%TD*%
D13*
%TO.C,R8*%
X140700000Y-97375000D03*
X140700000Y-99025000D03*
%TD*%
D10*
%TO.C,R15*%
X128000000Y-117825000D03*
X128000000Y-116175000D03*
%TD*%
D20*
%TO.C,R3*%
X126725000Y-102500000D03*
X125075000Y-102500000D03*
%TD*%
D21*
%TO.C,C3*%
X128725000Y-107100000D03*
X130275000Y-107100000D03*
%TD*%
D22*
%TO.C,U6*%
X131700000Y-103825000D03*
X131700000Y-102175000D03*
X130500000Y-103825000D03*
X130500000Y-102175000D03*
D23*
X133575000Y-101095000D03*
X133575000Y-102365000D03*
X133575000Y-103635000D03*
X133575000Y-104905000D03*
X128625000Y-104905000D03*
X128625000Y-103635000D03*
X128625000Y-102365000D03*
X128625000Y-101095000D03*
%TD*%
D24*
%TO.C,C4*%
X131800000Y-108575000D03*
X131800000Y-107025000D03*
%TD*%
D25*
%TO.C,U2*%
X157475000Y-121000000D03*
X157475000Y-118999999D03*
X157475000Y-117000000D03*
X157475000Y-115000000D03*
X157475000Y-113000000D03*
X157475000Y-111000000D03*
X157475000Y-109000001D03*
X157475000Y-107000000D03*
X172525000Y-107000000D03*
X172525000Y-109000001D03*
X172525000Y-111000000D03*
X172525000Y-113000000D03*
X172525000Y-115000000D03*
X172525000Y-117000000D03*
X172525000Y-118999999D03*
X172525000Y-121000000D03*
%TD*%
M02*
