%TF.GenerationSoftware,KiCad,Pcbnew,9.0.2*%
%TF.CreationDate,2025-07-17T17:29:37-04:00*%
%TF.ProjectId,raven-caller,72617665-6e2d-4636-916c-6c65722e6b69,rev?*%
%TF.SameCoordinates,Original*%
%TF.FileFunction,Copper,L2,Bot*%
%TF.FilePolarity,Positive*%
%FSLAX46Y46*%
G04 Gerber Fmt 4.6, Leading zero omitted, Abs format (unit mm)*
G04 Created by KiCad (PCBNEW 9.0.2) date 2025-07-17 17:29:37*
%MOMM*%
%LPD*%
G01*
G04 APERTURE LIST*
G04 Aperture macros list*
%AMRoundRect*
0 Rectangle with rounded corners*
0 $1 Rounding radius*
0 $2 $3 $4 $5 $6 $7 $8 $9 X,Y pos of 4 corners*
0 Add a 4 corners polygon primitive as box body*
4,1,4,$2,$3,$4,$5,$6,$7,$8,$9,$2,$3,0*
0 Add four circle primitives for the rounded corners*
1,1,$1+$1,$2,$3*
1,1,$1+$1,$4,$5*
1,1,$1+$1,$6,$7*
1,1,$1+$1,$8,$9*
0 Add four rect primitives between the rounded corners*
20,1,$1+$1,$2,$3,$4,$5,0*
20,1,$1+$1,$4,$5,$6,$7,0*
20,1,$1+$1,$6,$7,$8,$9,0*
20,1,$1+$1,$8,$9,$2,$3,0*%
G04 Aperture macros list end*
%TA.AperFunction,ComponentPad*%
%ADD10RoundRect,0.250000X0.550000X-0.550000X0.550000X0.550000X-0.550000X0.550000X-0.550000X-0.550000X0*%
%TD*%
%TA.AperFunction,ComponentPad*%
%ADD11C,1.600000*%
%TD*%
%TA.AperFunction,ComponentPad*%
%ADD12C,1.524000*%
%TD*%
%TA.AperFunction,HeatsinkPad*%
%ADD13O,1.000000X2.100000*%
%TD*%
%TA.AperFunction,HeatsinkPad*%
%ADD14O,1.000000X1.800000*%
%TD*%
%TA.AperFunction,ComponentPad*%
%ADD15R,1.600000X1.600000*%
%TD*%
%TA.AperFunction,ComponentPad*%
%ADD16R,2.000000X2.000000*%
%TD*%
%TA.AperFunction,ComponentPad*%
%ADD17C,2.000000*%
%TD*%
%TA.AperFunction,ComponentPad*%
%ADD18R,3.200000X2.000000*%
%TD*%
%TA.AperFunction,ComponentPad*%
%ADD19R,1.700000X1.700000*%
%TD*%
%TA.AperFunction,ComponentPad*%
%ADD20C,1.700000*%
%TD*%
%TA.AperFunction,ComponentPad*%
%ADD21RoundRect,0.250000X0.625000X-0.350000X0.625000X0.350000X-0.625000X0.350000X-0.625000X-0.350000X0*%
%TD*%
%TA.AperFunction,ComponentPad*%
%ADD22O,1.750000X1.200000*%
%TD*%
%TA.AperFunction,ComponentPad*%
%ADD23O,3.500000X2.200000*%
%TD*%
%TA.AperFunction,ComponentPad*%
%ADD24R,2.500000X1.500000*%
%TD*%
%TA.AperFunction,ComponentPad*%
%ADD25O,2.500000X1.500000*%
%TD*%
%TA.AperFunction,SMDPad,CuDef*%
%ADD26RoundRect,0.200000X0.275000X-0.200000X0.275000X0.200000X-0.275000X0.200000X-0.275000X-0.200000X0*%
%TD*%
%TA.AperFunction,SMDPad,CuDef*%
%ADD27R,1.600000X0.300000*%
%TD*%
%TA.AperFunction,SMDPad,CuDef*%
%ADD28RoundRect,0.150000X0.200000X-0.150000X0.200000X0.150000X-0.200000X0.150000X-0.200000X-0.150000X0*%
%TD*%
%TA.AperFunction,SMDPad,CuDef*%
%ADD29RoundRect,0.200000X-0.275000X0.200000X-0.275000X-0.200000X0.275000X-0.200000X0.275000X0.200000X0*%
%TD*%
%TA.AperFunction,SMDPad,CuDef*%
%ADD30RoundRect,0.200000X-0.200000X-0.275000X0.200000X-0.275000X0.200000X0.275000X-0.200000X0.275000X0*%
%TD*%
%TA.AperFunction,SMDPad,CuDef*%
%ADD31RoundRect,0.150000X-0.587500X-0.150000X0.587500X-0.150000X0.587500X0.150000X-0.587500X0.150000X0*%
%TD*%
%TA.AperFunction,SMDPad,CuDef*%
%ADD32RoundRect,0.225000X0.017678X-0.335876X0.335876X-0.017678X-0.017678X0.335876X-0.335876X0.017678X0*%
%TD*%
%TA.AperFunction,SMDPad,CuDef*%
%ADD33RoundRect,0.225000X-0.250000X0.225000X-0.250000X-0.225000X0.250000X-0.225000X0.250000X0.225000X0*%
%TD*%
%TA.AperFunction,SMDPad,CuDef*%
%ADD34RoundRect,0.150000X0.150000X-0.825000X0.150000X0.825000X-0.150000X0.825000X-0.150000X-0.825000X0*%
%TD*%
%TA.AperFunction,SMDPad,CuDef*%
%ADD35RoundRect,0.218750X-0.218750X-0.256250X0.218750X-0.256250X0.218750X0.256250X-0.218750X0.256250X0*%
%TD*%
%TA.AperFunction,SMDPad,CuDef*%
%ADD36RoundRect,0.200000X0.200000X0.275000X-0.200000X0.275000X-0.200000X-0.275000X0.200000X-0.275000X0*%
%TD*%
%TA.AperFunction,SMDPad,CuDef*%
%ADD37RoundRect,0.225000X-0.225000X-0.250000X0.225000X-0.250000X0.225000X0.250000X-0.225000X0.250000X0*%
%TD*%
%TA.AperFunction,SMDPad,CuDef*%
%ADD38RoundRect,0.150000X0.825000X0.150000X-0.825000X0.150000X-0.825000X-0.150000X0.825000X-0.150000X0*%
%TD*%
%TA.AperFunction,HeatsinkPad*%
%ADD39C,0.500000*%
%TD*%
%TA.AperFunction,HeatsinkPad*%
%ADD40R,2.410000X3.300000*%
%TD*%
%TA.AperFunction,SMDPad,CuDef*%
%ADD41RoundRect,0.225000X0.250000X-0.225000X0.250000X0.225000X-0.250000X0.225000X-0.250000X-0.225000X0*%
%TD*%
%TA.AperFunction,SMDPad,CuDef*%
%ADD42RoundRect,0.317500X-1.157500X-0.317500X1.157500X-0.317500X1.157500X0.317500X-1.157500X0.317500X0*%
%TD*%
%TA.AperFunction,ViaPad*%
%ADD43C,0.600000*%
%TD*%
%TA.AperFunction,Conductor*%
%ADD44C,0.200000*%
%TD*%
%TA.AperFunction,Conductor*%
%ADD45C,0.400000*%
%TD*%
G04 APERTURE END LIST*
D10*
%TO.P,U4,1,A0*%
%TO.N,GND*%
X163110000Y-100405000D03*
D11*
%TO.P,U4,2,A1*%
X165650000Y-100405000D03*
%TO.P,U4,3,A2*%
X168190000Y-100405000D03*
%TO.P,U4,4,P0*%
%TO.N,2R*%
X170730000Y-100405000D03*
%TO.P,U4,5,P1*%
%TO.N,2G*%
X173270000Y-100405000D03*
%TO.P,U4,6,P2*%
%TO.N,2B*%
X175810000Y-100405000D03*
%TO.P,U4,7,P3*%
%TO.N,RotA*%
X178350000Y-100405000D03*
%TO.P,U4,8,GND*%
%TO.N,GND*%
X180890000Y-100405000D03*
%TO.P,U4,9,P4*%
%TO.N,RotB*%
X180890000Y-92785000D03*
%TO.P,U4,10,P5*%
%TO.N,RotC*%
X178350000Y-92785000D03*
%TO.P,U4,11,P6*%
%TO.N,RotSwit*%
X175810000Y-92785000D03*
%TO.P,U4,12,P7*%
%TO.N,unconnected-(U4-P7-Pad12)*%
X173270000Y-92785000D03*
%TO.P,U4,13,~{INT}*%
%TO.N,unconnected-(U4-~{INT}-Pad13)*%
X170730000Y-92785000D03*
%TO.P,U4,14,SCL*%
%TO.N,SCL*%
X168190000Y-92785000D03*
%TO.P,U4,15,SDA*%
%TO.N,SDA*%
X165650000Y-92785000D03*
%TO.P,U4,16,VDD*%
%TO.N,+3.3V*%
X163110000Y-92785000D03*
%TD*%
D12*
%TO.P,U12,1,PA02_A0_D0*%
%TO.N,BUZZER*%
X137800000Y-95060000D03*
%TO.P,U12,2,PA4_A1_D1*%
%TO.N,CS*%
X137800000Y-97600000D03*
%TO.P,U12,3,PA10_A2_D2*%
%TO.N,INT*%
X137800000Y-100140000D03*
%TO.P,U12,4,PA11_A3_D3*%
%TO.N,unconnected-(U12-PA11_A3_D3-Pad4)*%
X137800000Y-102680000D03*
%TO.P,U12,5,PA8_A4_D4_SDA*%
%TO.N,SDA*%
X137800000Y-105220000D03*
%TO.P,U12,6,PA9_A5_D5_SCL*%
%TO.N,SCL*%
X137800000Y-107760000D03*
%TO.P,U12,7,PB08_A6_D6_TX*%
%TO.N,unconnected-(U12-PB08_A6_D6_TX-Pad7)*%
X137800000Y-110300000D03*
%TO.P,U12,8,PB09_A7_D7_RX*%
%TO.N,unconnected-(U12-PB09_A7_D7_RX-Pad8)*%
X153040000Y-110300000D03*
%TO.P,U12,9,PA7_A8_D8_SCK*%
%TO.N,SCK*%
X153040000Y-107760000D03*
%TO.P,U12,10,PA5_A9_D9_MISO*%
%TO.N,MOSI*%
X153040000Y-105220000D03*
%TO.P,U12,11,PA6_A10_D10_MOSI*%
%TO.N,MISO*%
X153040000Y-102680000D03*
%TO.P,U12,12,3V3*%
%TO.N,unconnected-(U12-3V3-Pad12)*%
X153040000Y-100140000D03*
%TO.P,U12,13,GND*%
%TO.N,GND*%
X153040000Y-97600000D03*
%TO.P,U12,14,5V*%
%TO.N,+5V*%
X153040000Y-95060000D03*
%TD*%
D13*
%TO.P,J7,S1,SHIELD*%
%TO.N,Net-(J7-SHIELD)*%
X124790000Y-115000000D03*
D14*
X124790000Y-119180000D03*
D13*
X133430000Y-115000000D03*
D14*
X133430000Y-119180000D03*
%TD*%
D15*
%TO.P,BZ2,1,+*%
%TO.N,+3.3V*%
X186799999Y-96400000D03*
D11*
%TO.P,BZ2,2,-*%
%TO.N,Net-(BZ2--)*%
X190799999Y-96400000D03*
%TD*%
D16*
%TO.P,SW1,A,A*%
%TO.N,RotA*%
X182800000Y-106500000D03*
D17*
%TO.P,SW1,B,B*%
%TO.N,RotC*%
X182800000Y-111500000D03*
%TO.P,SW1,C,C*%
%TO.N,RotB*%
X182800000Y-109000000D03*
D18*
%TO.P,SW1,MP*%
%TO.N,N/C*%
X190300000Y-103400000D03*
X190300000Y-114600000D03*
D17*
%TO.P,SW1,S1,S1*%
%TO.N,+3.3V*%
X197300000Y-111500000D03*
%TO.P,SW1,S2,S2*%
%TO.N,RotSwit*%
X197300000Y-106500000D03*
%TD*%
D19*
%TO.P,J1,1,Pin_1*%
%TO.N,GND*%
X174310000Y-103615000D03*
D20*
%TO.P,J1,2,Pin_2*%
%TO.N,+5V*%
X171770000Y-103615000D03*
%TO.P,J1,3,Pin_3*%
%TO.N,Net-(J1-Pin_3)*%
X169230000Y-103615000D03*
%TO.P,J1,4,Pin_4*%
%TO.N,Net-(J1-Pin_4)*%
X166690000Y-103615000D03*
%TD*%
D21*
%TO.P,J2,1,Pin_1*%
%TO.N,Bat*%
X120650000Y-101000000D03*
D22*
%TO.P,J2,2,Pin_2*%
%TO.N,GND*%
X120650000Y-99000000D03*
%TD*%
D23*
%TO.P,SW2,*%
%TO.N,*%
X121000000Y-105600000D03*
X121000000Y-113800000D03*
D24*
%TO.P,SW2,1,A*%
%TO.N,+3.3V*%
X121000000Y-107700000D03*
D25*
%TO.P,SW2,2,B*%
%TO.N,Bat*%
X121000000Y-109700000D03*
%TO.P,SW2,3,C*%
%TO.N,unconnected-(SW2-C-Pad3)*%
X121000000Y-111700000D03*
%TD*%
D26*
%TO.P,R1,1*%
%TO.N,BUZZER*%
X187087500Y-99550000D03*
%TO.P,R1,2*%
%TO.N,GND*%
X187087500Y-97900000D03*
%TD*%
D27*
%TO.P,U11,1,B2*%
%TO.N,Net-(J1-Pin_3)*%
X163800000Y-102525000D03*
%TO.P,U11,2,GND*%
%TO.N,GND*%
X163800000Y-103175000D03*
%TO.P,U11,3,VCCA*%
%TO.N,+3.3V*%
X163800000Y-103825000D03*
%TO.P,U11,4,A2*%
%TO.N,SDA*%
X163800000Y-104475000D03*
%TO.P,U11,5,A1*%
%TO.N,SCL*%
X160400000Y-104475000D03*
%TO.P,U11,6,OE*%
%TO.N,Net-(U11-OE)*%
X160400000Y-103825000D03*
%TO.P,U11,7,VCCB*%
%TO.N,+5V*%
X160400000Y-103175000D03*
%TO.P,U11,8,B1*%
%TO.N,Net-(J1-Pin_4)*%
X160400000Y-102525000D03*
%TD*%
D28*
%TO.P,U8,1,I/O*%
%TO.N,Net-(J7-CC1)*%
X129422687Y-116317494D03*
%TO.P,U8,2,GND*%
%TO.N,GND*%
X129422687Y-117717494D03*
%TD*%
D29*
%TO.P,R16,1*%
%TO.N,Net-(J7-CC2)*%
X130900000Y-116275000D03*
%TO.P,R16,2*%
%TO.N,GND*%
X130900000Y-117925000D03*
%TD*%
D30*
%TO.P,R6,1*%
%TO.N,Net-(U5-VCC)*%
X128675000Y-108570000D03*
%TO.P,R6,2*%
%TO.N,Bat*%
X130325000Y-108570000D03*
%TD*%
D31*
%TO.P,Q1,1,G*%
%TO.N,BUZZER*%
X188825000Y-99675000D03*
%TO.P,Q1,2,S*%
%TO.N,GND*%
X188825000Y-97775000D03*
%TO.P,Q1,3,D*%
%TO.N,Net-(BZ2--)*%
X190700000Y-98725000D03*
%TD*%
D32*
%TO.P,C6,1*%
%TO.N,+5V*%
X157151992Y-103248008D03*
%TO.P,C6,2*%
%TO.N,GND*%
X158248008Y-102151992D03*
%TD*%
D33*
%TO.P,C1,1*%
%TO.N,Net-(J7-SHIELD)*%
X126500000Y-116725000D03*
%TO.P,C1,2*%
%TO.N,GND*%
X126500000Y-118275000D03*
%TD*%
D30*
%TO.P,R7,1*%
%TO.N,+3.3V*%
X159475000Y-101000000D03*
%TO.P,R7,2*%
%TO.N,Net-(U11-OE)*%
X161125000Y-101000000D03*
%TD*%
D34*
%TO.P,U3,1,A0*%
%TO.N,GND*%
X179804999Y-114475001D03*
%TO.P,U3,2,A1*%
X178534999Y-114475001D03*
%TO.P,U3,3,A2*%
X177264999Y-114475001D03*
%TO.P,U3,4,GND*%
X175994999Y-114475001D03*
%TO.P,U3,5,SDA*%
%TO.N,SDA*%
X175994999Y-109525001D03*
%TO.P,U3,6,SCL*%
%TO.N,SCL*%
X177264999Y-109525001D03*
%TO.P,U3,7,WP*%
%TO.N,unconnected-(U3-WP-Pad7)*%
X178534999Y-109525001D03*
%TO.P,U3,8,VCC*%
%TO.N,+3.3V*%
X179804999Y-109525001D03*
%TD*%
D35*
%TO.P,D3,1,K*%
%TO.N,Net-(D3-K)*%
X125112499Y-101000000D03*
%TO.P,D3,2,A*%
%TO.N,vbus*%
X126687501Y-101000000D03*
%TD*%
D28*
%TO.P,U9,1,I/O*%
%TO.N,Net-(J7-CC2)*%
X132327927Y-116613528D03*
%TO.P,U9,2,GND*%
%TO.N,GND*%
X132327927Y-118013528D03*
%TD*%
D29*
%TO.P,R8,1*%
%TO.N,CS*%
X140700000Y-97375000D03*
%TO.P,R8,2*%
%TO.N,+3.3V*%
X140700000Y-99025000D03*
%TD*%
D26*
%TO.P,R15,1*%
%TO.N,GND*%
X128000000Y-117825000D03*
%TO.P,R15,2*%
%TO.N,Net-(J7-CC1)*%
X128000000Y-116175000D03*
%TD*%
D36*
%TO.P,R3,1*%
%TO.N,Net-(U6-~{CHRG})*%
X126725000Y-102500000D03*
%TO.P,R3,2*%
%TO.N,Net-(D3-K)*%
X125075000Y-102500000D03*
%TD*%
D37*
%TO.P,C3,1*%
%TO.N,Net-(U5-VCC)*%
X128725000Y-107100000D03*
%TO.P,C3,2*%
%TO.N,GND*%
X130275000Y-107100000D03*
%TD*%
D38*
%TO.P,U6,1,TEMP*%
%TO.N,GND*%
X133575000Y-101095000D03*
%TO.P,U6,2,PROG*%
%TO.N,Net-(U6-PROG)*%
X133575000Y-102365000D03*
%TO.P,U6,3,GND*%
%TO.N,GND*%
X133575000Y-103635000D03*
%TO.P,U6,4,V_{CC}*%
%TO.N,vbus*%
X133575000Y-104905000D03*
%TO.P,U6,5,BAT*%
%TO.N,Bat*%
X128625000Y-104905000D03*
%TO.P,U6,6,~{STDBY}*%
%TO.N,Net-(U6-~{STDBY})*%
X128625000Y-103635000D03*
%TO.P,U6,7,~{CHRG}*%
%TO.N,Net-(U6-~{CHRG})*%
X128625000Y-102365000D03*
%TO.P,U6,8,CE*%
%TO.N,vbus*%
X128625000Y-101095000D03*
D39*
%TO.P,U6,9,EPAD*%
%TO.N,unconnected-(U6-EPAD-Pad9)*%
X131800000Y-104200000D03*
X131800000Y-103000000D03*
X131800000Y-101800000D03*
D40*
X131100000Y-103000000D03*
D39*
X130400000Y-104200000D03*
X130400000Y-103000000D03*
X130400000Y-101800000D03*
%TD*%
D41*
%TO.P,C4,1*%
%TO.N,Bat*%
X131800000Y-108575000D03*
%TO.P,C4,2*%
%TO.N,GND*%
X131800000Y-107025000D03*
%TD*%
D42*
%TO.P,U2,1,GND*%
%TO.N,GND*%
X157475000Y-121000000D03*
%TO.P,U2,2,MISO*%
%TO.N,MISO*%
X157475000Y-118999999D03*
%TO.P,U2,3,MOSI*%
%TO.N,MOSI*%
X157475000Y-117000000D03*
%TO.P,U2,4,SCK*%
%TO.N,SCK*%
X157475000Y-115000000D03*
%TO.P,U2,5,NSS*%
%TO.N,CS*%
X157475000Y-113000000D03*
%TO.P,U2,6,RESET*%
%TO.N,unconnected-(U2-RESET-Pad6)*%
X157475000Y-111000000D03*
%TO.P,U2,7,DIO5*%
%TO.N,unconnected-(U2-DIO5-Pad7)*%
X157475000Y-109000001D03*
%TO.P,U2,8,GND*%
%TO.N,GND*%
X157475000Y-107000000D03*
%TO.P,U2,9,ANT*%
%TO.N,Net-(J3-In)*%
X172525000Y-107000000D03*
%TO.P,U2,10,GND*%
%TO.N,GND*%
X172525000Y-109000001D03*
%TO.P,U2,11,DIO3*%
%TO.N,unconnected-(U2-DIO3-Pad11)*%
X172525000Y-111000000D03*
%TO.P,U2,12,DIO4*%
%TO.N,unconnected-(U2-DIO4-Pad12)*%
X172525000Y-113000000D03*
%TO.P,U2,13,3.3V*%
%TO.N,+3.3V*%
X172525000Y-115000000D03*
%TO.P,U2,14,DIO0*%
%TO.N,INT*%
X172525000Y-117000000D03*
%TO.P,U2,15,DIO1*%
%TO.N,unconnected-(U2-DIO1-Pad15)*%
X172525000Y-118999999D03*
%TO.P,U2,16,DIO2*%
%TO.N,unconnected-(U2-DIO2-Pad16)*%
X172525000Y-121000000D03*
%TD*%
D43*
%TO.N,Net-(BZ2--)*%
X190800000Y-97800000D03*
%TO.N,+3.3V*%
X126300000Y-120400000D03*
X150550000Y-114950000D03*
X163375028Y-107475028D03*
X154000000Y-114800000D03*
%TO.N,Net-(J7-SHIELD)*%
X125500000Y-116500000D03*
%TO.N,GND*%
X185395000Y-108345500D03*
X185395000Y-118505500D03*
X170155000Y-95645500D03*
X177775000Y-118505500D03*
X149835000Y-100725500D03*
X124435000Y-93105500D03*
X128785735Y-105914265D03*
X122951000Y-117400000D03*
X184200000Y-97500000D03*
X193015000Y-110885500D03*
X144755000Y-93105500D03*
X193700000Y-120400000D03*
X134595000Y-110885500D03*
X195700000Y-100000000D03*
X132055000Y-98185500D03*
X195500000Y-116400000D03*
X182855000Y-115965500D03*
X165075000Y-115965500D03*
X187935000Y-108345500D03*
X190475000Y-110885500D03*
X142215000Y-115965500D03*
X134707874Y-101567967D03*
X190475000Y-100725500D03*
X129515000Y-95645500D03*
X147000000Y-118750000D03*
X126975000Y-98185500D03*
X159995000Y-93105500D03*
X195555000Y-108345500D03*
X175235000Y-118505500D03*
X167615000Y-113425500D03*
X126975000Y-95645500D03*
X139675000Y-93105500D03*
X187935000Y-118505500D03*
X190475000Y-118505500D03*
X124919255Y-111287500D03*
X170155000Y-121045500D03*
X172695000Y-95645500D03*
X126975000Y-93105500D03*
X193015000Y-100725500D03*
X147295000Y-115965500D03*
X144755000Y-100725500D03*
X132055000Y-95645500D03*
X175235000Y-121045500D03*
X147295000Y-93105500D03*
X187935000Y-93105500D03*
X157455000Y-93105500D03*
X182855000Y-118505500D03*
X124435000Y-95645500D03*
X193015000Y-115965500D03*
X195555000Y-98185500D03*
X190475000Y-121045500D03*
X190475000Y-93105500D03*
X193015000Y-98185500D03*
X129515000Y-98185500D03*
X180400000Y-99300000D03*
X134595000Y-93105500D03*
X142215000Y-93105500D03*
X159500000Y-107400000D03*
X124400000Y-107000000D03*
X193015000Y-103265500D03*
X193015000Y-93105500D03*
X185395000Y-115965500D03*
X167615000Y-95645500D03*
X193015000Y-108345500D03*
X172500000Y-105200000D03*
X195555000Y-103265500D03*
X152375000Y-121045500D03*
X180315000Y-121045500D03*
X182855000Y-93105500D03*
X149835000Y-93105500D03*
X144755000Y-121045500D03*
X167615000Y-115965500D03*
X162501000Y-102985779D03*
X190475000Y-108345500D03*
X175235000Y-95645500D03*
X193015000Y-118505500D03*
X182855000Y-121045500D03*
X134500000Y-109100000D03*
X193015000Y-95645500D03*
X185395000Y-93105500D03*
X135800000Y-118000000D03*
X158100000Y-100100000D03*
X126819255Y-111287500D03*
X139675000Y-105805500D03*
X130300000Y-105900000D03*
X129515000Y-93105500D03*
X180315000Y-118505500D03*
X147295000Y-100725500D03*
X185395000Y-110885500D03*
X187935000Y-110885500D03*
X134595000Y-98185500D03*
X185395000Y-121045500D03*
X162535000Y-115965500D03*
X185395000Y-105805500D03*
X185395000Y-100725500D03*
X142215000Y-121045500D03*
X144755000Y-115965500D03*
X170155000Y-110885500D03*
X165075000Y-121045500D03*
X154915000Y-93105500D03*
X142215000Y-110885500D03*
X154915000Y-121045500D03*
X170155000Y-113425500D03*
X133182527Y-113444835D03*
X186200000Y-97900000D03*
X162535000Y-121045500D03*
X170155000Y-115965500D03*
X177775000Y-121045500D03*
X152375000Y-93105500D03*
X139675000Y-110885500D03*
X137135000Y-93105500D03*
X132055000Y-93105500D03*
X134595000Y-95645500D03*
X187935000Y-121045500D03*
X167615000Y-121045500D03*
X159995000Y-121045500D03*
X165075000Y-113425500D03*
%TO.N,Net-(U5-VCC)*%
X125415473Y-106932726D03*
%TO.N,+5V*%
X157300000Y-97300000D03*
X147600000Y-108400000D03*
X160200000Y-98200000D03*
X158600000Y-98500000D03*
%TO.N,SDA*%
X175500000Y-108000000D03*
X161650000Y-105450000D03*
%TO.N,SCL*%
X161700000Y-104400000D03*
X156900000Y-104475000D03*
X164600000Y-95400000D03*
X149500000Y-107700000D03*
X166100000Y-106800000D03*
%TO.N,Net-(J7-CC1)*%
X127987993Y-115417920D03*
%TO.N,Net-(J7-CC2)*%
X130833935Y-115341109D03*
%TO.N,BUZZER*%
X162400000Y-96500000D03*
%TO.N,Net-(U6-~{STDBY})*%
X127300000Y-103500000D03*
%TO.N,vbus*%
X124351000Y-113551514D03*
X125800000Y-103600000D03*
X126707093Y-113562500D03*
X133600000Y-106200000D03*
%TO.N,Bat*%
X123551000Y-106400000D03*
%TO.N,Net-(J3-In)*%
X170300000Y-108600000D03*
%TO.N,CS*%
X154900000Y-112500000D03*
X139500000Y-97500000D03*
X149400000Y-104757000D03*
%TO.N,RotSwit*%
X183400000Y-100900000D03*
X178561765Y-95961765D03*
%TO.N,RotC*%
X180200000Y-96500000D03*
%TO.N,INT*%
X147100000Y-106000000D03*
X153300000Y-115800000D03*
%TO.N,MOSI*%
X155663235Y-104863235D03*
X159700000Y-105200000D03*
%TO.N,Net-(J1-Pin_4)*%
X160400000Y-101900000D03*
%TD*%
D44*
%TO.N,Net-(BZ2--)*%
X190800000Y-97800000D02*
X190800000Y-98625000D01*
X190800000Y-98625000D02*
X190700000Y-98725000D01*
%TO.N,+3.3V*%
X159475000Y-101000000D02*
X159475000Y-97000000D01*
X172525000Y-115000000D02*
X173853032Y-115000000D01*
X159475000Y-101000000D02*
X160251000Y-100224000D01*
X182732900Y-96400000D02*
X186799999Y-96400000D01*
D45*
X123651000Y-119715206D02*
X123651000Y-109151000D01*
D44*
X140700000Y-99025000D02*
X141025000Y-98700000D01*
X195999000Y-112801000D02*
X181396030Y-112801000D01*
D45*
X126300000Y-120400000D02*
X126219000Y-120481000D01*
D44*
X158947500Y-96947500D02*
X159047500Y-96847500D01*
X160251000Y-100224000D02*
X161538064Y-100224000D01*
X179804999Y-110500000D02*
X179804999Y-109525001D01*
X161799000Y-96748943D02*
X162552057Y-97502000D01*
X159322500Y-96847500D02*
X159475000Y-97000000D01*
X179804999Y-111209969D02*
X179804999Y-109525001D01*
X159322500Y-96622500D02*
X159297500Y-96597500D01*
X179804999Y-109525001D02*
X179804999Y-103395000D01*
X158947500Y-96952500D02*
X158947500Y-96947500D01*
D45*
X123651000Y-109151000D02*
X122000000Y-107500000D01*
D44*
X164901000Y-104101000D02*
X164625000Y-103825000D01*
X162552057Y-97502000D02*
X181630900Y-97502000D01*
X179804999Y-103395000D02*
X186799999Y-96400000D01*
D45*
X122000000Y-107500000D02*
X121500000Y-107500000D01*
D44*
X178052031Y-110801001D02*
X179503998Y-110801001D01*
X159475000Y-97000000D02*
X159475000Y-96420000D01*
X181396030Y-112801000D02*
X179804999Y-111209969D01*
X158947500Y-96947500D02*
X159297500Y-96597500D01*
D45*
X124416794Y-120481000D02*
X123651000Y-119715206D01*
D44*
X163110000Y-92785000D02*
X161799000Y-94096000D01*
X159997500Y-95897500D02*
X163110000Y-92785000D01*
X164625000Y-103825000D02*
X163800000Y-103825000D01*
X179503998Y-110801001D02*
X179804999Y-110500000D01*
X161799000Y-94096000D02*
X161799000Y-96748943D01*
X161901000Y-103501000D02*
X162225000Y-103825000D01*
X181630900Y-97502000D02*
X182732900Y-96400000D01*
X161538064Y-100224000D02*
X161901000Y-100586936D01*
X150550000Y-114950000D02*
X150700000Y-114800000D01*
X159322500Y-96847500D02*
X159322500Y-96622500D01*
X159475000Y-96420000D02*
X159997500Y-95897500D01*
X150700000Y-114800000D02*
X154000000Y-114800000D01*
X157200000Y-98700000D02*
X158947500Y-96952500D01*
X159047500Y-96847500D02*
X159322500Y-96847500D01*
X163375028Y-107475028D02*
X164901000Y-105949057D01*
X161901000Y-100586936D02*
X161901000Y-103501000D01*
X141025000Y-98700000D02*
X157200000Y-98700000D01*
X164901000Y-105949057D02*
X164901000Y-104101000D01*
X173853032Y-115000000D02*
X178052031Y-110801001D01*
X197300000Y-111500000D02*
X195999000Y-112801000D01*
D45*
X126219000Y-120481000D02*
X124416794Y-120481000D01*
D44*
X159297500Y-96597500D02*
X159997500Y-95897500D01*
X162225000Y-103825000D02*
X163800000Y-103825000D01*
%TO.N,Net-(J7-SHIELD)*%
X126275000Y-116500000D02*
X126500000Y-116725000D01*
X125500000Y-116500000D02*
X126275000Y-116500000D01*
%TO.N,GND*%
X125500000Y-105900000D02*
X128771470Y-105900000D01*
X130275000Y-105925000D02*
X130300000Y-105900000D01*
X126819255Y-111287500D02*
X124919255Y-111287500D01*
X135800000Y-115687215D02*
X135800000Y-118000000D01*
X163110000Y-100405000D02*
X165650000Y-100405000D01*
X147000000Y-118750000D02*
X146250000Y-118000000D01*
X135779000Y-117979000D02*
X132362455Y-117979000D01*
X134605050Y-101095000D02*
X133575000Y-101095000D01*
X146250000Y-118000000D02*
X135800000Y-118000000D01*
X124400000Y-107000000D02*
X125500000Y-105900000D01*
X133182527Y-113444835D02*
X133557620Y-113444835D01*
X130275000Y-107100000D02*
X130275000Y-105925000D01*
X188812500Y-97775000D02*
X188762500Y-97725000D01*
X180400000Y-99300000D02*
X182200000Y-97500000D01*
X158248008Y-102151992D02*
X158248008Y-100248008D01*
X122951000Y-119723726D02*
X124228274Y-121001000D01*
X124228274Y-121001000D02*
X126548943Y-121001000D01*
X172500000Y-105200000D02*
X174085000Y-103615000D01*
X182200000Y-97500000D02*
X184200000Y-97500000D01*
X135800000Y-118000000D02*
X135779000Y-117979000D01*
X134707874Y-101567967D02*
X134707874Y-101197824D01*
X158248008Y-100248008D02*
X158100000Y-100100000D01*
X126548943Y-121001000D02*
X126901000Y-120648943D01*
X134707874Y-101197824D02*
X134605050Y-101095000D01*
X133557620Y-113444835D02*
X135800000Y-115687215D01*
X157475000Y-107000000D02*
X159100000Y-107000000D01*
X122951000Y-117400000D02*
X122951000Y-119723726D01*
X186200000Y-97900000D02*
X188700000Y-97900000D01*
X126901000Y-120648943D02*
X126901000Y-118676000D01*
X188700000Y-97900000D02*
X188825000Y-97775000D01*
X162690221Y-103175000D02*
X162501000Y-102985779D01*
X159100000Y-107000000D02*
X159500000Y-107400000D01*
X132362455Y-117979000D02*
X132327927Y-118013528D01*
X174085000Y-103615000D02*
X174310000Y-103615000D01*
X163800000Y-103175000D02*
X162690221Y-103175000D01*
X126901000Y-118676000D02*
X126500000Y-118275000D01*
X128771470Y-105900000D02*
X128785735Y-105914265D01*
%TO.N,Net-(U5-VCC)*%
X125415473Y-106932726D02*
X125658974Y-106689225D01*
X127574054Y-106700000D02*
X128325000Y-106700000D01*
X128725000Y-108520000D02*
X128675000Y-108570000D01*
X128725000Y-107100000D02*
X128725000Y-108520000D01*
X127563279Y-106689225D02*
X127574054Y-106700000D01*
X125658974Y-106689225D02*
X127563279Y-106689225D01*
X128325000Y-106700000D02*
X128725000Y-107100000D01*
D45*
%TO.N,+5V*%
X156049264Y-104057000D02*
X156858256Y-103248008D01*
X151943000Y-104057000D02*
X147600000Y-108400000D01*
X157151992Y-103248008D02*
X157151992Y-99948008D01*
X167683471Y-98200000D02*
X169500000Y-100016529D01*
X155060000Y-95060000D02*
X157300000Y-97300000D01*
X156049264Y-104057000D02*
X151943000Y-104057000D01*
X160400000Y-103175000D02*
X158525000Y-103175000D01*
X156858256Y-103248008D02*
X157151992Y-103248008D01*
X160200000Y-98200000D02*
X167683471Y-98200000D01*
X169500000Y-100016529D02*
X169500000Y-101345000D01*
X157151992Y-99948008D02*
X158600000Y-98500000D01*
X158451992Y-103248008D02*
X157151992Y-103248008D01*
X153040000Y-95060000D02*
X155060000Y-95060000D01*
X171770000Y-103615000D02*
X169500000Y-101345000D01*
X158525000Y-103175000D02*
X158451992Y-103248008D01*
D44*
%TO.N,Net-(D3-K)*%
X125075000Y-102500000D02*
X125075000Y-101037499D01*
X125075000Y-101037499D02*
X125112499Y-101000000D01*
%TO.N,SDA*%
X162625000Y-104475000D02*
X163800000Y-104475000D01*
X175500000Y-108000000D02*
X175500000Y-109030002D01*
X175500000Y-109030002D02*
X175994999Y-109525001D01*
X161650000Y-105450000D02*
X162625000Y-104475000D01*
%TO.N,SCL*%
X177264999Y-107264999D02*
X176064000Y-106064000D01*
X164600000Y-95400000D02*
X165575000Y-95400000D01*
X156975000Y-104400000D02*
X156900000Y-104475000D01*
X165575000Y-95400000D02*
X168190000Y-92785000D01*
X177264999Y-109525001D02*
X177264999Y-107264999D01*
X149500000Y-107700000D02*
X150520500Y-106679500D01*
X176064000Y-106064000D02*
X166836000Y-106064000D01*
X150520500Y-106679500D02*
X154695500Y-106679500D01*
X154695500Y-106679500D02*
X156900000Y-104475000D01*
X161700000Y-104400000D02*
X156975000Y-104400000D01*
X166836000Y-106064000D02*
X166100000Y-106800000D01*
X156900000Y-104475000D02*
X160400000Y-104475000D01*
%TO.N,Net-(J7-CC1)*%
X129280193Y-116175000D02*
X129422687Y-116317494D01*
X128000000Y-116175000D02*
X128000000Y-115429927D01*
X128000000Y-115429927D02*
X127987993Y-115417920D01*
X128000000Y-116175000D02*
X129280193Y-116175000D01*
%TO.N,Net-(J7-CC2)*%
X130900000Y-116275000D02*
X131989399Y-116275000D01*
X131989399Y-116275000D02*
X132327927Y-116613528D01*
X130900000Y-115407174D02*
X130833935Y-115341109D01*
X130900000Y-116275000D02*
X130900000Y-115407174D01*
%TO.N,BUZZER*%
X187900999Y-95299000D02*
X182250943Y-95299000D01*
X188700000Y-99550000D02*
X188825000Y-99675000D01*
X189863500Y-98115968D02*
X189863500Y-97261501D01*
X180448943Y-97101000D02*
X163001000Y-97101000D01*
X189863500Y-97261501D02*
X187900999Y-95299000D01*
X188825000Y-99675000D02*
X188825000Y-99154468D01*
X188825000Y-99154468D02*
X189863500Y-98115968D01*
X182250943Y-95299000D02*
X180448943Y-97101000D01*
X187087500Y-99550000D02*
X188700000Y-99550000D01*
X163001000Y-97101000D02*
X162400000Y-96500000D01*
%TO.N,Net-(U6-~{CHRG})*%
X128490000Y-102500000D02*
X128625000Y-102365000D01*
X126725000Y-102500000D02*
X128490000Y-102500000D01*
%TO.N,Net-(U6-~{STDBY})*%
X127300000Y-103500000D02*
X128490000Y-103500000D01*
X128490000Y-103500000D02*
X128625000Y-103635000D01*
%TO.N,vbus*%
X126707093Y-113562500D02*
X124361986Y-113562500D01*
D45*
X125800000Y-103600000D02*
X125800000Y-103153484D01*
X125924000Y-101763501D02*
X126687501Y-101000000D01*
X125924000Y-103029484D02*
X125924000Y-101763501D01*
X133600000Y-106200000D02*
X133600000Y-104930000D01*
X126687501Y-101000000D02*
X128530000Y-101000000D01*
D44*
X124361986Y-113562500D02*
X124351000Y-113551514D01*
X133575000Y-104905000D02*
X133800000Y-105130000D01*
D45*
X133600000Y-104930000D02*
X133575000Y-104905000D01*
D44*
X128530000Y-101000000D02*
X128625000Y-101095000D01*
D45*
X125800000Y-103153484D02*
X125924000Y-103029484D01*
D44*
%TO.N,Bat*%
X129524945Y-105804945D02*
X128625000Y-104905000D01*
X123551000Y-106106900D02*
X124752900Y-104905000D01*
X129524945Y-107769945D02*
X129524945Y-105804945D01*
X131795000Y-108570000D02*
X131800000Y-108575000D01*
X130325000Y-108570000D02*
X129524945Y-107769945D01*
X124752900Y-104905000D02*
X128625000Y-104905000D01*
X123551000Y-106400000D02*
X123551000Y-106106900D01*
X130325000Y-108570000D02*
X131795000Y-108570000D01*
X130339975Y-108555025D02*
X130325000Y-108570000D01*
%TO.N,Net-(J3-In)*%
X171900000Y-107000000D02*
X172525000Y-107000000D01*
X170300000Y-108600000D02*
X171900000Y-107000000D01*
%TO.N,CS*%
X149400000Y-104757000D02*
X144557000Y-104757000D01*
X140575000Y-97500000D02*
X140700000Y-97375000D01*
X155400000Y-113000000D02*
X154900000Y-112500000D01*
X144557000Y-104757000D02*
X139300000Y-99500000D01*
X139300000Y-99500000D02*
X139300000Y-97700000D01*
X139500000Y-97500000D02*
X140575000Y-97500000D01*
X139300000Y-97700000D02*
X139500000Y-97500000D01*
X157475000Y-113000000D02*
X155400000Y-113000000D01*
%TO.N,RotSwit*%
X178561765Y-95961765D02*
X178561765Y-95536765D01*
X189000000Y-106500000D02*
X183400000Y-100900000D01*
X197300000Y-106500000D02*
X189000000Y-106500000D01*
X178561765Y-95536765D02*
X175810000Y-92785000D01*
%TO.N,RotC*%
X180200000Y-96500000D02*
X178350000Y-94650000D01*
X178350000Y-94650000D02*
X178350000Y-92785000D01*
%TO.N,INT*%
X155436000Y-117936000D02*
X153300000Y-115800000D01*
X172525000Y-117000000D02*
X171589000Y-117936000D01*
X143660000Y-106000000D02*
X137800000Y-100140000D01*
X147100000Y-106000000D02*
X143660000Y-106000000D01*
X171589000Y-117936000D02*
X155436000Y-117936000D01*
%TO.N,MOSI*%
X160200000Y-114624692D02*
X157824692Y-117000000D01*
X160200000Y-105700000D02*
X160200000Y-114624692D01*
X153040000Y-105220000D02*
X155306470Y-105220000D01*
X157824692Y-117000000D02*
X157475000Y-117000000D01*
X155306470Y-105220000D02*
X155663235Y-104863235D01*
X159700000Y-105200000D02*
X160200000Y-105700000D01*
%TO.N,MISO*%
X152470057Y-102680000D02*
X153040000Y-102680000D01*
X146999000Y-112299000D02*
X146999000Y-108151057D01*
X153699999Y-118999999D02*
X146999000Y-112299000D01*
X157475000Y-118999999D02*
X153699999Y-118999999D01*
X146999000Y-108151057D02*
X152470057Y-102680000D01*
%TO.N,SCK*%
X154103000Y-113103000D02*
X154103000Y-108823000D01*
X154103000Y-108823000D02*
X153040000Y-107760000D01*
X157475000Y-115000000D02*
X156000000Y-115000000D01*
X156000000Y-115000000D02*
X154103000Y-113103000D01*
%TO.N,Net-(J1-Pin_3)*%
X163800000Y-102525000D02*
X164800000Y-102525000D01*
X164800000Y-102525000D02*
X165539000Y-103264000D01*
X166213240Y-104766000D02*
X168079000Y-104766000D01*
X165539000Y-104091760D02*
X166213240Y-104766000D01*
X168079000Y-104766000D02*
X169230000Y-103615000D01*
X165539000Y-103264000D02*
X165539000Y-104091760D01*
%TO.N,Net-(J1-Pin_4)*%
X160400000Y-102525000D02*
X160400000Y-101900000D01*
%TO.N,Net-(U11-OE)*%
X161400000Y-103825000D02*
X160400000Y-103825000D01*
X161500000Y-101375000D02*
X161500000Y-103725000D01*
X161125000Y-101000000D02*
X161500000Y-101375000D01*
X161500000Y-103725000D02*
X161400000Y-103825000D01*
%TD*%
%TA.AperFunction,Conductor*%
%TO.N,GND*%
G36*
X162122992Y-91720185D02*
G01*
X162168747Y-91772989D01*
X162178691Y-91842147D01*
X162149666Y-91905703D01*
X162143634Y-91912181D01*
X162118032Y-91937782D01*
X162118028Y-91937786D01*
X161997715Y-92103386D01*
X161904781Y-92285776D01*
X161841522Y-92480465D01*
X161809500Y-92682648D01*
X161809500Y-92887351D01*
X161841523Y-93089535D01*
X161846172Y-93103845D01*
X161848165Y-93173687D01*
X161815921Y-93229841D01*
X159628786Y-95416978D01*
X159628784Y-95416980D01*
X159285265Y-95760500D01*
X159106286Y-95939478D01*
X158466983Y-96578780D01*
X158462032Y-96585233D01*
X158461756Y-96585021D01*
X158448606Y-96602157D01*
X158164519Y-96886244D01*
X158103196Y-96919729D01*
X158033504Y-96914745D01*
X157977571Y-96872873D01*
X157973736Y-96867454D01*
X157921789Y-96789711D01*
X157921786Y-96789707D01*
X157810292Y-96678213D01*
X157810288Y-96678210D01*
X157679185Y-96590609D01*
X157679172Y-96590602D01*
X157534812Y-96530807D01*
X157494583Y-96503927D01*
X155506546Y-94515888D01*
X155506545Y-94515887D01*
X155391807Y-94439222D01*
X155264332Y-94386421D01*
X155264322Y-94386418D01*
X155128996Y-94359500D01*
X155128994Y-94359500D01*
X155128993Y-94359500D01*
X154154774Y-94359500D01*
X154087735Y-94339815D01*
X154054457Y-94308387D01*
X154002981Y-94237536D01*
X153862464Y-94097019D01*
X153701694Y-93980213D01*
X153524632Y-93889994D01*
X153524629Y-93889993D01*
X153335637Y-93828587D01*
X153237498Y-93813043D01*
X153139361Y-93797500D01*
X152940639Y-93797500D01*
X152875214Y-93807862D01*
X152744362Y-93828587D01*
X152555370Y-93889993D01*
X152555367Y-93889994D01*
X152378305Y-93980213D01*
X152217533Y-94097021D01*
X152077021Y-94237533D01*
X151960213Y-94398305D01*
X151869994Y-94575367D01*
X151869993Y-94575370D01*
X151808587Y-94764362D01*
X151788734Y-94889711D01*
X151777500Y-94960639D01*
X151777500Y-95159361D01*
X151778631Y-95166503D01*
X151808587Y-95355637D01*
X151869993Y-95544629D01*
X151869994Y-95544632D01*
X151950978Y-95703570D01*
X151960213Y-95721694D01*
X152077019Y-95882464D01*
X152217536Y-96022981D01*
X152378306Y-96139787D01*
X152535332Y-96219796D01*
X152586127Y-96267769D01*
X152602922Y-96335590D01*
X152580385Y-96401725D01*
X152535332Y-96440764D01*
X152378566Y-96520641D01*
X152341283Y-96547729D01*
X152341282Y-96547730D01*
X152955906Y-97162352D01*
X152868429Y-97185792D01*
X152767070Y-97244311D01*
X152684311Y-97327070D01*
X152625792Y-97428429D01*
X152602352Y-97515905D01*
X151987730Y-96901282D01*
X151987729Y-96901283D01*
X151960643Y-96938564D01*
X151870457Y-97115562D01*
X151809075Y-97304476D01*
X151809075Y-97304479D01*
X151778000Y-97500678D01*
X151778000Y-97699321D01*
X151809074Y-97895519D01*
X151822612Y-97937181D01*
X151824608Y-98007022D01*
X151788528Y-98066855D01*
X151725827Y-98097684D01*
X151704681Y-98099500D01*
X141696337Y-98099500D01*
X141629298Y-98079815D01*
X141583543Y-98027011D01*
X141573599Y-97957853D01*
X141590220Y-97911350D01*
X141618478Y-97864606D01*
X141669086Y-97702196D01*
X141675500Y-97631616D01*
X141675500Y-97118384D01*
X141669086Y-97047804D01*
X141618478Y-96885394D01*
X141530472Y-96739815D01*
X141530470Y-96739813D01*
X141530469Y-96739811D01*
X141410188Y-96619530D01*
X141342786Y-96578784D01*
X141264606Y-96531522D01*
X141102196Y-96480914D01*
X141102194Y-96480913D01*
X141102192Y-96480913D01*
X141052778Y-96476423D01*
X141031616Y-96474500D01*
X140368384Y-96474500D01*
X140349145Y-96476248D01*
X140297807Y-96480913D01*
X140135393Y-96531522D01*
X139989813Y-96619529D01*
X139895026Y-96714316D01*
X139833702Y-96747800D01*
X139764011Y-96742816D01*
X139759895Y-96741196D01*
X139733502Y-96730264D01*
X139733494Y-96730261D01*
X139578845Y-96699500D01*
X139578842Y-96699500D01*
X139421158Y-96699500D01*
X139421155Y-96699500D01*
X139266510Y-96730261D01*
X139266498Y-96730264D01*
X139120827Y-96790602D01*
X139120814Y-96790609D01*
X138985449Y-96881058D01*
X138918771Y-96901936D01*
X138851391Y-96883451D01*
X138816240Y-96850841D01*
X138772474Y-96790602D01*
X138762981Y-96777536D01*
X138622464Y-96637019D01*
X138461694Y-96520213D01*
X138305218Y-96440484D01*
X138254423Y-96392510D01*
X138237628Y-96324689D01*
X138260165Y-96258554D01*
X138305218Y-96219515D01*
X138461694Y-96139787D01*
X138622464Y-96022981D01*
X138762981Y-95882464D01*
X138879787Y-95721694D01*
X138970005Y-95544632D01*
X139031413Y-95355636D01*
X139062500Y-95159361D01*
X139062500Y-94960639D01*
X139031413Y-94764364D01*
X138987841Y-94630261D01*
X138970006Y-94575370D01*
X138970005Y-94575367D01*
X138888924Y-94416239D01*
X138879787Y-94398306D01*
X138762981Y-94237536D01*
X138622464Y-94097019D01*
X138461694Y-93980213D01*
X138284632Y-93889994D01*
X138284629Y-93889993D01*
X138095637Y-93828587D01*
X137997498Y-93813043D01*
X137899361Y-93797500D01*
X137700639Y-93797500D01*
X137635214Y-93807862D01*
X137504362Y-93828587D01*
X137315370Y-93889993D01*
X137315367Y-93889994D01*
X137138305Y-93980213D01*
X136977533Y-94097021D01*
X136837021Y-94237533D01*
X136720213Y-94398305D01*
X136629994Y-94575367D01*
X136629993Y-94575370D01*
X136568587Y-94764362D01*
X136548734Y-94889711D01*
X136537500Y-94960639D01*
X136537500Y-95159361D01*
X136538631Y-95166503D01*
X136568587Y-95355637D01*
X136629993Y-95544629D01*
X136629994Y-95544632D01*
X136710978Y-95703570D01*
X136720213Y-95721694D01*
X136837019Y-95882464D01*
X136977536Y-96022981D01*
X137138306Y-96139787D01*
X137197082Y-96169735D01*
X137294780Y-96219515D01*
X137345576Y-96267490D01*
X137362371Y-96335311D01*
X137339833Y-96401446D01*
X137294780Y-96440485D01*
X137138305Y-96520213D01*
X136977533Y-96637021D01*
X136837021Y-96777533D01*
X136720213Y-96938305D01*
X136629994Y-97115367D01*
X136629993Y-97115370D01*
X136568587Y-97304362D01*
X136546735Y-97442331D01*
X136537500Y-97500639D01*
X136537500Y-97699361D01*
X136537949Y-97702196D01*
X136568587Y-97895637D01*
X136629993Y-98084629D01*
X136629994Y-98084632D01*
X136686305Y-98195147D01*
X136720213Y-98261694D01*
X136837019Y-98422464D01*
X136977536Y-98562981D01*
X137138306Y-98679787D01*
X137256832Y-98740179D01*
X137294780Y-98759515D01*
X137345576Y-98807490D01*
X137362371Y-98875311D01*
X137339833Y-98941446D01*
X137294780Y-98980485D01*
X137138305Y-99060213D01*
X136977533Y-99177021D01*
X136837021Y-99317533D01*
X136720213Y-99478305D01*
X136629994Y-99655367D01*
X136629993Y-99655370D01*
X136568587Y-99844362D01*
X136549405Y-99965472D01*
X136537500Y-100040639D01*
X136537500Y-100239361D01*
X136546772Y-100297899D01*
X136568587Y-100435637D01*
X136629993Y-100624629D01*
X136629994Y-100624632D01*
X136699017Y-100760095D01*
X136720213Y-100801694D01*
X136837019Y-100962464D01*
X136977536Y-101102981D01*
X137138306Y-101219787D01*
X137241782Y-101272511D01*
X137294780Y-101299515D01*
X137345576Y-101347490D01*
X137362371Y-101415311D01*
X137339833Y-101481446D01*
X137294780Y-101520485D01*
X137138305Y-101600213D01*
X136977533Y-101717021D01*
X136837021Y-101857533D01*
X136720213Y-102018305D01*
X136629994Y-102195367D01*
X136629993Y-102195370D01*
X136568587Y-102384362D01*
X136559441Y-102442110D01*
X136537500Y-102580639D01*
X136537500Y-102779361D01*
X136545353Y-102828945D01*
X136568587Y-102975637D01*
X136629993Y-103164629D01*
X136629994Y-103164632D01*
X136714495Y-103330472D01*
X136720213Y-103341694D01*
X136837019Y-103502464D01*
X136977536Y-103642981D01*
X137138306Y-103759787D01*
X137232915Y-103807993D01*
X137294780Y-103839515D01*
X137345576Y-103887490D01*
X137362371Y-103955311D01*
X137339833Y-104021446D01*
X137294780Y-104060485D01*
X137138305Y-104140213D01*
X136977533Y-104257021D01*
X136837021Y-104397533D01*
X136720213Y-104558305D01*
X136629994Y-104735367D01*
X136629993Y-104735370D01*
X136568587Y-104924362D01*
X136541339Y-105096398D01*
X136537500Y-105120639D01*
X136537500Y-105319361D01*
X136548848Y-105391011D01*
X136568587Y-105515637D01*
X136629993Y-105704629D01*
X136629994Y-105704632D01*
X136714255Y-105870000D01*
X136720213Y-105881694D01*
X136837019Y-106042464D01*
X136977536Y-106182981D01*
X137138306Y-106299787D01*
X137180243Y-106321155D01*
X137294780Y-106379515D01*
X137345576Y-106427490D01*
X137362371Y-106495311D01*
X137339833Y-106561446D01*
X137294780Y-106600485D01*
X137138305Y-106680213D01*
X136977533Y-106797021D01*
X136837021Y-106937533D01*
X136720213Y-107098305D01*
X136629994Y-107275367D01*
X136629993Y-107275370D01*
X136568587Y-107464362D01*
X136539032Y-107650968D01*
X136537500Y-107660639D01*
X136537500Y-107859361D01*
X136543455Y-107896959D01*
X136568587Y-108055637D01*
X136629993Y-108244629D01*
X136629994Y-108244632D01*
X136692095Y-108366510D01*
X136720213Y-108421694D01*
X136837019Y-108582464D01*
X136977536Y-108722981D01*
X137138306Y-108839787D01*
X137220961Y-108881902D01*
X137294780Y-108919515D01*
X137345576Y-108967490D01*
X137362371Y-109035311D01*
X137339833Y-109101446D01*
X137294780Y-109140485D01*
X137138305Y-109220213D01*
X136977533Y-109337021D01*
X136837021Y-109477533D01*
X136720213Y-109638305D01*
X136629994Y-109815367D01*
X136629993Y-109815370D01*
X136568587Y-110004362D01*
X136537500Y-110200639D01*
X136537500Y-110399360D01*
X136568587Y-110595637D01*
X136629993Y-110784629D01*
X136629994Y-110784632D01*
X136711499Y-110944592D01*
X136720213Y-110961694D01*
X136837019Y-111122464D01*
X136977536Y-111262981D01*
X137138306Y-111379787D01*
X137186484Y-111404335D01*
X137315367Y-111470005D01*
X137315370Y-111470006D01*
X137409749Y-111500671D01*
X137504364Y-111531413D01*
X137700639Y-111562500D01*
X137700640Y-111562500D01*
X137899360Y-111562500D01*
X137899361Y-111562500D01*
X138095636Y-111531413D01*
X138284632Y-111470005D01*
X138461694Y-111379787D01*
X138622464Y-111262981D01*
X138762981Y-111122464D01*
X138879787Y-110961694D01*
X138970005Y-110784632D01*
X139031413Y-110595636D01*
X139062500Y-110399361D01*
X139062500Y-110200639D01*
X139031413Y-110004364D01*
X138970005Y-109815368D01*
X138970005Y-109815367D01*
X138879786Y-109638305D01*
X138762981Y-109477536D01*
X138622464Y-109337019D01*
X138461694Y-109220213D01*
X138305218Y-109140484D01*
X138254423Y-109092510D01*
X138237628Y-109024689D01*
X138260165Y-108958554D01*
X138305218Y-108919515D01*
X138461694Y-108839787D01*
X138622464Y-108722981D01*
X138762981Y-108582464D01*
X138879787Y-108421694D01*
X138970005Y-108244632D01*
X139031413Y-108055636D01*
X139062500Y-107859361D01*
X139062500Y-107660639D01*
X139031413Y-107464364D01*
X138985705Y-107323687D01*
X138970006Y-107275370D01*
X138970005Y-107275367D01*
X138920990Y-107179172D01*
X138879787Y-107098306D01*
X138762981Y-106937536D01*
X138622464Y-106797019D01*
X138461694Y-106680213D01*
X138305218Y-106600484D01*
X138254423Y-106552510D01*
X138237628Y-106484689D01*
X138260165Y-106418554D01*
X138305218Y-106379515D01*
X138461694Y-106299787D01*
X138622464Y-106182981D01*
X138762981Y-106042464D01*
X138879787Y-105881694D01*
X138970005Y-105704632D01*
X139031413Y-105515636D01*
X139062500Y-105319361D01*
X139062500Y-105120639D01*
X139031413Y-104924364D01*
X138978384Y-104761155D01*
X138970006Y-104735370D01*
X138970005Y-104735367D01*
X138888562Y-104575528D01*
X138879787Y-104558306D01*
X138762981Y-104397536D01*
X138622464Y-104257019D01*
X138461694Y-104140213D01*
X138305218Y-104060484D01*
X138254423Y-104012510D01*
X138237628Y-103944689D01*
X138260165Y-103878554D01*
X138305218Y-103839515D01*
X138461694Y-103759787D01*
X138622464Y-103642981D01*
X138762981Y-103502464D01*
X138879787Y-103341694D01*
X138970005Y-103164632D01*
X139031413Y-102975636D01*
X139062500Y-102779361D01*
X139062500Y-102580639D01*
X139060303Y-102566770D01*
X139069257Y-102497480D01*
X139114252Y-102444027D01*
X139181003Y-102423386D01*
X139248317Y-102442110D01*
X139270457Y-102459692D01*
X143175139Y-106364374D01*
X143175149Y-106364385D01*
X143179479Y-106368715D01*
X143179480Y-106368716D01*
X143291284Y-106480520D01*
X143291286Y-106480521D01*
X143291290Y-106480524D01*
X143417772Y-106553547D01*
X143428216Y-106559577D01*
X143532124Y-106587419D01*
X143580942Y-106600500D01*
X143580943Y-106600500D01*
X146520234Y-106600500D01*
X146587273Y-106620185D01*
X146589125Y-106621398D01*
X146720814Y-106709390D01*
X146720827Y-106709397D01*
X146866498Y-106769735D01*
X146866503Y-106769737D01*
X146997696Y-106795833D01*
X147021153Y-106800499D01*
X147021156Y-106800500D01*
X147021158Y-106800500D01*
X147178843Y-106800500D01*
X147179220Y-106800425D01*
X147179422Y-106800443D01*
X147184907Y-106799903D01*
X147185009Y-106800942D01*
X147248812Y-106806649D01*
X147303991Y-106849509D01*
X147327239Y-106915398D01*
X147311174Y-106983396D01*
X147291098Y-107009722D01*
X146630286Y-107670535D01*
X146518481Y-107782339D01*
X146518479Y-107782342D01*
X146479995Y-107849000D01*
X146479994Y-107849002D01*
X146439423Y-107919271D01*
X146435611Y-107933497D01*
X146398499Y-108072000D01*
X146398499Y-108072002D01*
X146398499Y-108240103D01*
X146398500Y-108240116D01*
X146398500Y-112212330D01*
X146398499Y-112212348D01*
X146398499Y-112378054D01*
X146398498Y-112378054D01*
X146439424Y-112530789D01*
X146439425Y-112530790D01*
X146467168Y-112578841D01*
X146467169Y-112578842D01*
X146510308Y-112653561D01*
X146518479Y-112667714D01*
X146518481Y-112667717D01*
X146637349Y-112786585D01*
X146637354Y-112786589D01*
X153331283Y-119480519D01*
X153331285Y-119480520D01*
X153331289Y-119480523D01*
X153467229Y-119559007D01*
X153468215Y-119559576D01*
X153620942Y-119600500D01*
X153620944Y-119600500D01*
X153786653Y-119600500D01*
X153786669Y-119600499D01*
X155462215Y-119600499D01*
X155529254Y-119620184D01*
X155573939Y-119670705D01*
X155575842Y-119674657D01*
X155575844Y-119674662D01*
X155644671Y-119784200D01*
X155673915Y-119830741D01*
X155755846Y-119912672D01*
X155789331Y-119973995D01*
X155784347Y-120043687D01*
X155755846Y-120088034D01*
X155674308Y-120169571D01*
X155576296Y-120325556D01*
X155515452Y-120499440D01*
X155515451Y-120499446D01*
X155500000Y-120636581D01*
X155500000Y-120750000D01*
X159450000Y-120750000D01*
X159450000Y-120636585D01*
X159449999Y-120636581D01*
X159434548Y-120499446D01*
X159434547Y-120499440D01*
X159373703Y-120325556D01*
X159275691Y-120169571D01*
X159194154Y-120088034D01*
X159160669Y-120026711D01*
X159165653Y-119957019D01*
X159194154Y-119912672D01*
X159234997Y-119871829D01*
X159276085Y-119830741D01*
X159374156Y-119674662D01*
X159435037Y-119500673D01*
X159435037Y-119500672D01*
X159435038Y-119500670D01*
X159443487Y-119425672D01*
X159450500Y-119363437D01*
X159450500Y-118660500D01*
X159470185Y-118593461D01*
X159522989Y-118547706D01*
X159574500Y-118536500D01*
X170425500Y-118536500D01*
X170492539Y-118556185D01*
X170538294Y-118608989D01*
X170549500Y-118660500D01*
X170549500Y-119363441D01*
X170564961Y-119500670D01*
X170610308Y-119630262D01*
X170624459Y-119670705D01*
X170625845Y-119674664D01*
X170723915Y-119830741D01*
X170805492Y-119912318D01*
X170838977Y-119973641D01*
X170833993Y-120043333D01*
X170805493Y-120087680D01*
X170723914Y-120169259D01*
X170625845Y-120325334D01*
X170564961Y-120499328D01*
X170549500Y-120636557D01*
X170549500Y-121363442D01*
X170564962Y-121500672D01*
X170611806Y-121634546D01*
X170615367Y-121704325D01*
X170580638Y-121764952D01*
X170518645Y-121797179D01*
X170494764Y-121799500D01*
X159504706Y-121799500D01*
X159437667Y-121779815D01*
X159391912Y-121727011D01*
X159381968Y-121657853D01*
X159387664Y-121634546D01*
X159434547Y-121500559D01*
X159434548Y-121500553D01*
X159449999Y-121363418D01*
X159450000Y-121363414D01*
X159450000Y-121250000D01*
X155500000Y-121250000D01*
X155500000Y-121363418D01*
X155515451Y-121500553D01*
X155515452Y-121500559D01*
X155562336Y-121634546D01*
X155565897Y-121704325D01*
X155531168Y-121764952D01*
X155469174Y-121797179D01*
X155445294Y-121799500D01*
X119124000Y-121799500D01*
X119056961Y-121779815D01*
X119011206Y-121727011D01*
X119000000Y-121675500D01*
X119000000Y-119393713D01*
X119949500Y-119393713D01*
X119949500Y-119606287D01*
X119953298Y-119630264D01*
X119976730Y-119778213D01*
X119982754Y-119816243D01*
X120042460Y-119999999D01*
X120048444Y-120018414D01*
X120144951Y-120207820D01*
X120269890Y-120379786D01*
X120420213Y-120530109D01*
X120592179Y-120655048D01*
X120592181Y-120655049D01*
X120592184Y-120655051D01*
X120781588Y-120751557D01*
X120983757Y-120817246D01*
X121193713Y-120850500D01*
X121193714Y-120850500D01*
X121406286Y-120850500D01*
X121406287Y-120850500D01*
X121616243Y-120817246D01*
X121818412Y-120751557D01*
X122007816Y-120655051D01*
X122037494Y-120633489D01*
X122179786Y-120530109D01*
X122179788Y-120530106D01*
X122179792Y-120530104D01*
X122330104Y-120379792D01*
X122330106Y-120379788D01*
X122330109Y-120379786D01*
X122455048Y-120207820D01*
X122455047Y-120207820D01*
X122455051Y-120207816D01*
X122551557Y-120018412D01*
X122617246Y-119816243D01*
X122650500Y-119606287D01*
X122650500Y-119393713D01*
X122617246Y-119183757D01*
X122551557Y-118981588D01*
X122455051Y-118792184D01*
X122455049Y-118792181D01*
X122455048Y-118792179D01*
X122330109Y-118620213D01*
X122179786Y-118469890D01*
X122007820Y-118344951D01*
X121818414Y-118248444D01*
X121818413Y-118248443D01*
X121818412Y-118248443D01*
X121616243Y-118182754D01*
X121616241Y-118182753D01*
X121616240Y-118182753D01*
X121443001Y-118155315D01*
X121406287Y-118149500D01*
X121193713Y-118149500D01*
X121156999Y-118155315D01*
X120983760Y-118182753D01*
X120781585Y-118248444D01*
X120592179Y-118344951D01*
X120420213Y-118469890D01*
X120269890Y-118620213D01*
X120144951Y-118792179D01*
X120048444Y-118981585D01*
X119982753Y-119183760D01*
X119949500Y-119393713D01*
X119000000Y-119393713D01*
X119000000Y-115012811D01*
X119019685Y-114945772D01*
X119072489Y-114900017D01*
X119141647Y-114890073D01*
X119205203Y-114919098D01*
X119211681Y-114925130D01*
X119307345Y-115020794D01*
X119307350Y-115020798D01*
X119426840Y-115107612D01*
X119511155Y-115168870D01*
X119654184Y-115241747D01*
X119735616Y-115283239D01*
X119735618Y-115283239D01*
X119735621Y-115283241D01*
X119975215Y-115361090D01*
X120224038Y-115400500D01*
X120224039Y-115400500D01*
X121775961Y-115400500D01*
X121775962Y-115400500D01*
X122024785Y-115361090D01*
X122264379Y-115283241D01*
X122488845Y-115168870D01*
X122692656Y-115020793D01*
X122738819Y-114974630D01*
X122800142Y-114941145D01*
X122869834Y-114946129D01*
X122925767Y-114988001D01*
X122950184Y-115053465D01*
X122950500Y-115062311D01*
X122950500Y-119646212D01*
X122950500Y-119784200D01*
X122950500Y-119784202D01*
X122950499Y-119784202D01*
X122977418Y-119919528D01*
X122977421Y-119919538D01*
X123030222Y-120047013D01*
X123106887Y-120161751D01*
X123970248Y-121025112D01*
X124084984Y-121101776D01*
X124183584Y-121142617D01*
X124212465Y-121154580D01*
X124212466Y-121154580D01*
X124212471Y-121154582D01*
X124239339Y-121159925D01*
X124239345Y-121159926D01*
X124239385Y-121159934D01*
X124329731Y-121177905D01*
X124347800Y-121181500D01*
X124347801Y-121181500D01*
X126113428Y-121181500D01*
X126137618Y-121183882D01*
X126157003Y-121187738D01*
X126221155Y-121200500D01*
X126221158Y-121200500D01*
X126378844Y-121200500D01*
X126378845Y-121200499D01*
X126533497Y-121169737D01*
X126679179Y-121109394D01*
X126810289Y-121021789D01*
X126921789Y-120910289D01*
X127009394Y-120779179D01*
X127069737Y-120633497D01*
X127100500Y-120478842D01*
X127100500Y-120321158D01*
X127100500Y-120321155D01*
X127100499Y-120321153D01*
X127069737Y-120166503D01*
X127050490Y-120120036D01*
X127009397Y-120020827D01*
X127009390Y-120020814D01*
X126921789Y-119889711D01*
X126921786Y-119889707D01*
X126810292Y-119778213D01*
X126810288Y-119778210D01*
X126679185Y-119690609D01*
X126679172Y-119690602D01*
X126533501Y-119630264D01*
X126533489Y-119630261D01*
X126378845Y-119599500D01*
X126378842Y-119599500D01*
X126221158Y-119599500D01*
X126221155Y-119599500D01*
X126066510Y-119630261D01*
X126066507Y-119630262D01*
X126066506Y-119630262D01*
X126066503Y-119630263D01*
X125977170Y-119667265D01*
X125961952Y-119673569D01*
X125892482Y-119681037D01*
X125830003Y-119649761D01*
X125794351Y-119589672D01*
X125790500Y-119559007D01*
X125790500Y-119283224D01*
X125810185Y-119216185D01*
X125862989Y-119170430D01*
X125932147Y-119160486D01*
X125953505Y-119165518D01*
X126102394Y-119214856D01*
X126201683Y-119224999D01*
X126249999Y-119224998D01*
X126250000Y-119224998D01*
X126250000Y-118399000D01*
X126269685Y-118331961D01*
X126322489Y-118286206D01*
X126374000Y-118275000D01*
X126626000Y-118275000D01*
X126693039Y-118294685D01*
X126738794Y-118347489D01*
X126750000Y-118399000D01*
X126750000Y-119224999D01*
X126798308Y-119224999D01*
X126798322Y-119224998D01*
X126897607Y-119214855D01*
X127058481Y-119161547D01*
X127058492Y-119161542D01*
X127202728Y-119072575D01*
X127202732Y-119072572D01*
X127322572Y-118952732D01*
X127322575Y-118952728D01*
X127411542Y-118808492D01*
X127411547Y-118808480D01*
X127417674Y-118789991D01*
X127457445Y-118732544D01*
X127521960Y-118705719D01*
X127572273Y-118710606D01*
X127597895Y-118718590D01*
X127668418Y-118724999D01*
X127749999Y-118724998D01*
X127750000Y-118724998D01*
X127750000Y-118075000D01*
X128250000Y-118075000D01*
X128250000Y-118724999D01*
X128331581Y-118724999D01*
X128402102Y-118718591D01*
X128402107Y-118718590D01*
X128564396Y-118668018D01*
X128709877Y-118580072D01*
X128709878Y-118580071D01*
X128805675Y-118484273D01*
X128866998Y-118450787D01*
X128936689Y-118455771D01*
X128956477Y-118465220D01*
X128962492Y-118468777D01*
X129120191Y-118514593D01*
X129120197Y-118514594D01*
X129157037Y-118517493D01*
X129157053Y-118517494D01*
X129172687Y-118517494D01*
X129672687Y-118517494D01*
X129688321Y-118517494D01*
X129688336Y-118517493D01*
X129725176Y-118514594D01*
X129725182Y-118514593D01*
X129882880Y-118468777D01*
X129888125Y-118466508D01*
X129957468Y-118457944D01*
X130020433Y-118488229D01*
X130043495Y-118516154D01*
X130069927Y-118559877D01*
X130190122Y-118680072D01*
X130335604Y-118768019D01*
X130335603Y-118768019D01*
X130497894Y-118818590D01*
X130497892Y-118818590D01*
X130568418Y-118824999D01*
X131150000Y-118824999D01*
X131231581Y-118824999D01*
X131302102Y-118818591D01*
X131302107Y-118818590D01*
X131464398Y-118768018D01*
X131603080Y-118684181D01*
X131670635Y-118666344D01*
X131730352Y-118683565D01*
X131867730Y-118764810D01*
X131867733Y-118764811D01*
X132025431Y-118810627D01*
X132025437Y-118810628D01*
X132062277Y-118813527D01*
X132062293Y-118813528D01*
X132077927Y-118813528D01*
X132077927Y-118263528D01*
X131471927Y-118263528D01*
X131404888Y-118243843D01*
X131359133Y-118191039D01*
X131357789Y-118184862D01*
X131347927Y-118175000D01*
X131150000Y-118175000D01*
X131150000Y-118824999D01*
X130568418Y-118824999D01*
X130649999Y-118824998D01*
X130650000Y-118824998D01*
X130650000Y-118175000D01*
X129919000Y-118175000D01*
X129851961Y-118155315D01*
X129806206Y-118102511D01*
X129795000Y-118051000D01*
X129795000Y-117967494D01*
X129672687Y-117967494D01*
X129672687Y-118517494D01*
X129172687Y-118517494D01*
X129172687Y-117967494D01*
X129105000Y-117967494D01*
X129098143Y-117974350D01*
X129085315Y-118018039D01*
X129032511Y-118063794D01*
X128981000Y-118075000D01*
X128250000Y-118075000D01*
X127750000Y-118075000D01*
X127750000Y-117949000D01*
X127769685Y-117881961D01*
X127822489Y-117836206D01*
X127874000Y-117825000D01*
X128000000Y-117825000D01*
X128000000Y-117699000D01*
X128019685Y-117631961D01*
X128072489Y-117586206D01*
X128124000Y-117575000D01*
X128442687Y-117575000D01*
X128449543Y-117568143D01*
X128462372Y-117524455D01*
X128515176Y-117478700D01*
X128566687Y-117467494D01*
X130278687Y-117467494D01*
X130345726Y-117487179D01*
X130391481Y-117539983D01*
X130402687Y-117591494D01*
X130402687Y-117675000D01*
X131881000Y-117675000D01*
X131948039Y-117694685D01*
X131993794Y-117747489D01*
X131995137Y-117753665D01*
X132005000Y-117763528D01*
X132203927Y-117763528D01*
X132270966Y-117783213D01*
X132316721Y-117836017D01*
X132327927Y-117887528D01*
X132327927Y-118013528D01*
X132453927Y-118013528D01*
X132462612Y-118016078D01*
X132471574Y-118014790D01*
X132495614Y-118025768D01*
X132520966Y-118033213D01*
X132526893Y-118040053D01*
X132535130Y-118043815D01*
X132549419Y-118066049D01*
X132566721Y-118086017D01*
X132569008Y-118096531D01*
X132572904Y-118102593D01*
X132577927Y-118137528D01*
X132577927Y-118216749D01*
X132558242Y-118283788D01*
X132557030Y-118285638D01*
X132543373Y-118306077D01*
X132543364Y-118306093D01*
X132467950Y-118488160D01*
X132467947Y-118488170D01*
X132429500Y-118681456D01*
X132429500Y-118681459D01*
X132429500Y-119678541D01*
X132429500Y-119678543D01*
X132429499Y-119678543D01*
X132467947Y-119871829D01*
X132467950Y-119871839D01*
X132543364Y-120053907D01*
X132543371Y-120053920D01*
X132652860Y-120217781D01*
X132652863Y-120217785D01*
X132792214Y-120357136D01*
X132792218Y-120357139D01*
X132956079Y-120466628D01*
X132956092Y-120466635D01*
X133109322Y-120530104D01*
X133138165Y-120542051D01*
X133138169Y-120542051D01*
X133138170Y-120542052D01*
X133331456Y-120580500D01*
X133331459Y-120580500D01*
X133528543Y-120580500D01*
X133658582Y-120554632D01*
X133721835Y-120542051D01*
X133903914Y-120466632D01*
X134067782Y-120357139D01*
X134207139Y-120217782D01*
X134316632Y-120053914D01*
X134319491Y-120047013D01*
X134356767Y-119957019D01*
X134392051Y-119871835D01*
X134404632Y-119808582D01*
X134430500Y-119678543D01*
X134430500Y-118681456D01*
X134392052Y-118488170D01*
X134392051Y-118488169D01*
X134392051Y-118488165D01*
X134384020Y-118468777D01*
X134316635Y-118306092D01*
X134316628Y-118306079D01*
X134207139Y-118142218D01*
X134207136Y-118142214D01*
X134067785Y-118002863D01*
X134067781Y-118002860D01*
X133903920Y-117893371D01*
X133903907Y-117893364D01*
X133721839Y-117817950D01*
X133721829Y-117817947D01*
X133528543Y-117779500D01*
X133528541Y-117779500D01*
X133331459Y-117779500D01*
X133300181Y-117785721D01*
X133230590Y-117779492D01*
X133175413Y-117736628D01*
X133156915Y-117698697D01*
X133129208Y-117603330D01*
X133045612Y-117461975D01*
X133045605Y-117461966D01*
X132985201Y-117401562D01*
X132951716Y-117340239D01*
X132956700Y-117270547D01*
X132985199Y-117226201D01*
X133046008Y-117165393D01*
X133129671Y-117023926D01*
X133175525Y-116866097D01*
X133178427Y-116829222D01*
X133178427Y-116671154D01*
X133198112Y-116604115D01*
X133250916Y-116558360D01*
X133320074Y-116548416D01*
X133326603Y-116549534D01*
X133331459Y-116550500D01*
X133331461Y-116550500D01*
X133528543Y-116550500D01*
X133675951Y-116521178D01*
X133721835Y-116512051D01*
X133903914Y-116436632D01*
X134067782Y-116327139D01*
X134207139Y-116187782D01*
X134316632Y-116023914D01*
X134392051Y-115841835D01*
X134413772Y-115732636D01*
X134430500Y-115648543D01*
X134430500Y-114351456D01*
X134392052Y-114158170D01*
X134392051Y-114158169D01*
X134392051Y-114158165D01*
X134364069Y-114090609D01*
X134316635Y-113976092D01*
X134316628Y-113976079D01*
X134207139Y-113812218D01*
X134207136Y-113812214D01*
X134067785Y-113672863D01*
X134067781Y-113672860D01*
X133903920Y-113563371D01*
X133903907Y-113563364D01*
X133721839Y-113487950D01*
X133721829Y-113487947D01*
X133528543Y-113449500D01*
X133528541Y-113449500D01*
X133331459Y-113449500D01*
X133331457Y-113449500D01*
X133138170Y-113487947D01*
X133138160Y-113487950D01*
X132956092Y-113563364D01*
X132956079Y-113563371D01*
X132792218Y-113672860D01*
X132792214Y-113672863D01*
X132652863Y-113812214D01*
X132652860Y-113812218D01*
X132543371Y-113976079D01*
X132543364Y-113976092D01*
X132467950Y-114158160D01*
X132467947Y-114158170D01*
X132429500Y-114351456D01*
X132429500Y-114868666D01*
X132409815Y-114935705D01*
X132357011Y-114981460D01*
X132287853Y-114991404D01*
X132243501Y-114976054D01*
X132222137Y-114963719D01*
X132117584Y-114935705D01*
X132075766Y-114924500D01*
X131924234Y-114924500D01*
X131777865Y-114963719D01*
X131777864Y-114963719D01*
X131777862Y-114963720D01*
X131777861Y-114963720D01*
X131710061Y-115002865D01*
X131642161Y-115019338D01*
X131576134Y-114996485D01*
X131544959Y-114964369D01*
X131455724Y-114830820D01*
X131455721Y-114830816D01*
X131344227Y-114719322D01*
X131344223Y-114719319D01*
X131213120Y-114631718D01*
X131213107Y-114631711D01*
X131067436Y-114571373D01*
X131067424Y-114571370D01*
X130912780Y-114540609D01*
X130912777Y-114540609D01*
X130755093Y-114540609D01*
X130755090Y-114540609D01*
X130600445Y-114571370D01*
X130600433Y-114571373D01*
X130454762Y-114631711D01*
X130454749Y-114631718D01*
X130323646Y-114719319D01*
X130323642Y-114719322D01*
X130212148Y-114830816D01*
X130212145Y-114830820D01*
X130124544Y-114961923D01*
X130124537Y-114961936D01*
X130064199Y-115107607D01*
X130064196Y-115107619D01*
X130033435Y-115262262D01*
X130033435Y-115262267D01*
X130033435Y-115419951D01*
X130033435Y-115419953D01*
X130033434Y-115419953D01*
X130033609Y-115420828D01*
X130033567Y-115421295D01*
X130034032Y-115426016D01*
X130033136Y-115426104D01*
X130027382Y-115490420D01*
X129984520Y-115545597D01*
X129918630Y-115568842D01*
X129877398Y-115564097D01*
X129725254Y-115519895D01*
X129688388Y-115516994D01*
X129688381Y-115516994D01*
X129156993Y-115516994D01*
X129156985Y-115516994D01*
X129120119Y-115519895D01*
X129120113Y-115519896D01*
X128954798Y-115567926D01*
X128954150Y-115565696D01*
X128944929Y-115566832D01*
X128925326Y-115574144D01*
X128910953Y-115571017D01*
X128896353Y-115572816D01*
X128877497Y-115563739D01*
X128857053Y-115559292D01*
X128836869Y-115544182D01*
X128833397Y-115542511D01*
X128828799Y-115538141D01*
X128824812Y-115534154D01*
X128791327Y-115472831D01*
X128788493Y-115446473D01*
X128788493Y-115339075D01*
X128788492Y-115339073D01*
X128773213Y-115262262D01*
X128757730Y-115184423D01*
X128703486Y-115053465D01*
X128697390Y-115038747D01*
X128697383Y-115038734D01*
X128609782Y-114907631D01*
X128609779Y-114907627D01*
X128498285Y-114796133D01*
X128498281Y-114796130D01*
X128367178Y-114708529D01*
X128367165Y-114708522D01*
X128221494Y-114648184D01*
X128221482Y-114648181D01*
X128066838Y-114617420D01*
X128066835Y-114617420D01*
X127909151Y-114617420D01*
X127909148Y-114617420D01*
X127754503Y-114648181D01*
X127754491Y-114648184D01*
X127608820Y-114708522D01*
X127608807Y-114708529D01*
X127477704Y-114796130D01*
X127477700Y-114796133D01*
X127366206Y-114907627D01*
X127366203Y-114907631D01*
X127278602Y-115038734D01*
X127278595Y-115038747D01*
X127218257Y-115184418D01*
X127218254Y-115184430D01*
X127187493Y-115339073D01*
X127187493Y-115475529D01*
X127183797Y-115489994D01*
X127184646Y-115501947D01*
X127173770Y-115529237D01*
X127172296Y-115535010D01*
X127169839Y-115539503D01*
X127169528Y-115539815D01*
X127081522Y-115685394D01*
X127070173Y-115721813D01*
X127064257Y-115732636D01*
X127047908Y-115748968D01*
X127035099Y-115768195D01*
X127023660Y-115773192D01*
X127014827Y-115782017D01*
X126992243Y-115786918D01*
X126971073Y-115796167D01*
X126956256Y-115794727D01*
X126946547Y-115796835D01*
X126935510Y-115792712D01*
X126916451Y-115790861D01*
X126897707Y-115784650D01*
X126888597Y-115783719D01*
X126823907Y-115757320D01*
X126783758Y-115700137D01*
X126780899Y-115630326D01*
X126781395Y-115628405D01*
X126795500Y-115575766D01*
X126795500Y-115424234D01*
X126756281Y-115277865D01*
X126680515Y-115146635D01*
X126573365Y-115039485D01*
X126490087Y-114991404D01*
X126442136Y-114963719D01*
X126337584Y-114935705D01*
X126295766Y-114924500D01*
X126144234Y-114924500D01*
X125997862Y-114963719D01*
X125976499Y-114976054D01*
X125908598Y-114992525D01*
X125842572Y-114969673D01*
X125799382Y-114914751D01*
X125790500Y-114868666D01*
X125790500Y-114351456D01*
X125790499Y-114351454D01*
X125782491Y-114311191D01*
X125784368Y-114290207D01*
X125781370Y-114269353D01*
X125787419Y-114256105D01*
X125788718Y-114241599D01*
X125801643Y-114224960D01*
X125810395Y-114205797D01*
X125822646Y-114197923D01*
X125831581Y-114186422D01*
X125851449Y-114179412D01*
X125869173Y-114168023D01*
X125893756Y-114164488D01*
X125897471Y-114163178D01*
X125904108Y-114163000D01*
X126127327Y-114163000D01*
X126194366Y-114182685D01*
X126196218Y-114183898D01*
X126327907Y-114271890D01*
X126327920Y-114271897D01*
X126463876Y-114328211D01*
X126473596Y-114332237D01*
X126628246Y-114362999D01*
X126628249Y-114363000D01*
X126628251Y-114363000D01*
X126785937Y-114363000D01*
X126785938Y-114362999D01*
X126940590Y-114332237D01*
X127086272Y-114271894D01*
X127217382Y-114184289D01*
X127328882Y-114072789D01*
X127416487Y-113941679D01*
X127476830Y-113795997D01*
X127507593Y-113641342D01*
X127507593Y-113483658D01*
X127507593Y-113483655D01*
X127507592Y-113483653D01*
X127504875Y-113469996D01*
X127476830Y-113329003D01*
X127455805Y-113278244D01*
X127416490Y-113183327D01*
X127416483Y-113183314D01*
X127328882Y-113052211D01*
X127328879Y-113052207D01*
X127217385Y-112940713D01*
X127217381Y-112940710D01*
X127086278Y-112853109D01*
X127086265Y-112853102D01*
X126940594Y-112792764D01*
X126940582Y-112792761D01*
X126785938Y-112762000D01*
X126785935Y-112762000D01*
X126628251Y-112762000D01*
X126628248Y-112762000D01*
X126473603Y-112792761D01*
X126473591Y-112792764D01*
X126327920Y-112853102D01*
X126327907Y-112853109D01*
X126196218Y-112941102D01*
X126129540Y-112961980D01*
X126127327Y-112962000D01*
X124944927Y-112962000D01*
X124877888Y-112942315D01*
X124866421Y-112933075D01*
X124865999Y-112933590D01*
X124861288Y-112929724D01*
X124730185Y-112842123D01*
X124730172Y-112842116D01*
X124584501Y-112781778D01*
X124584491Y-112781775D01*
X124451308Y-112755283D01*
X124389397Y-112722898D01*
X124354823Y-112662182D01*
X124351500Y-112633666D01*
X124351500Y-109082004D01*
X124324581Y-108946677D01*
X124324580Y-108946676D01*
X124324580Y-108946672D01*
X124310243Y-108912059D01*
X124271776Y-108819191D01*
X124257762Y-108798217D01*
X124257762Y-108798216D01*
X124257760Y-108798215D01*
X124195114Y-108704457D01*
X124195111Y-108704453D01*
X122786818Y-107296160D01*
X122772114Y-107269232D01*
X122755522Y-107243414D01*
X122754630Y-107237213D01*
X122753333Y-107234837D01*
X122750499Y-107208479D01*
X122750499Y-107030940D01*
X122770184Y-106963901D01*
X122822988Y-106918146D01*
X122892146Y-106908202D01*
X122955702Y-106937227D01*
X122962180Y-106943259D01*
X123040707Y-107021786D01*
X123040711Y-107021789D01*
X123171814Y-107109390D01*
X123171827Y-107109397D01*
X123294039Y-107160018D01*
X123317503Y-107169737D01*
X123467131Y-107199500D01*
X123472153Y-107200499D01*
X123472156Y-107200500D01*
X123472158Y-107200500D01*
X123629844Y-107200500D01*
X123629845Y-107200499D01*
X123784497Y-107169737D01*
X123930179Y-107109394D01*
X124061289Y-107021789D01*
X124172789Y-106910289D01*
X124260394Y-106779179D01*
X124266005Y-106765634D01*
X124286939Y-106715093D01*
X124320737Y-106633497D01*
X124351500Y-106478842D01*
X124351500Y-106321158D01*
X124351500Y-106321155D01*
X124336968Y-106248102D01*
X124343195Y-106178511D01*
X124370901Y-106136232D01*
X124965316Y-105541819D01*
X125026639Y-105508334D01*
X125052997Y-105505500D01*
X127279192Y-105505500D01*
X127346231Y-105525185D01*
X127366874Y-105541820D01*
X127398129Y-105573076D01*
X127398133Y-105573079D01*
X127398135Y-105573081D01*
X127539602Y-105656744D01*
X127581224Y-105668836D01*
X127697426Y-105702597D01*
X127697429Y-105702597D01*
X127697431Y-105702598D01*
X127734306Y-105705500D01*
X128524903Y-105705500D01*
X128537477Y-105709192D01*
X128550545Y-105708180D01*
X128570357Y-105718847D01*
X128591942Y-105725185D01*
X128600522Y-105735087D01*
X128612065Y-105741302D01*
X128612584Y-105741819D01*
X128783584Y-105912819D01*
X128817069Y-105974142D01*
X128812085Y-106043834D01*
X128770213Y-106099767D01*
X128704749Y-106124184D01*
X128695903Y-106124500D01*
X128513688Y-106124500D01*
X128491373Y-106121562D01*
X128488046Y-106121820D01*
X128486335Y-106120899D01*
X128481595Y-106120275D01*
X128451693Y-106112263D01*
X128404057Y-106099499D01*
X128245943Y-106099499D01*
X128238347Y-106099499D01*
X128238331Y-106099500D01*
X127698877Y-106099500D01*
X127692873Y-106099355D01*
X127679611Y-106098712D01*
X127642336Y-106088724D01*
X127484222Y-106088724D01*
X127484218Y-106088725D01*
X125738031Y-106088725D01*
X125579916Y-106088725D01*
X125579913Y-106088725D01*
X125568167Y-106091872D01*
X125568168Y-106091873D01*
X125433335Y-106128001D01*
X125401244Y-106132226D01*
X125336628Y-106132226D01*
X125181983Y-106162987D01*
X125181971Y-106162990D01*
X125036300Y-106223328D01*
X125036287Y-106223335D01*
X124905184Y-106310936D01*
X124905180Y-106310939D01*
X124793686Y-106422433D01*
X124793683Y-106422437D01*
X124706082Y-106553540D01*
X124706075Y-106553553D01*
X124645737Y-106699224D01*
X124645734Y-106699236D01*
X124614973Y-106853879D01*
X124614973Y-107011572D01*
X124645734Y-107166215D01*
X124645737Y-107166227D01*
X124706075Y-107311898D01*
X124706082Y-107311911D01*
X124793683Y-107443014D01*
X124793686Y-107443018D01*
X124905180Y-107554512D01*
X124905184Y-107554515D01*
X125036287Y-107642116D01*
X125036300Y-107642123D01*
X125181971Y-107702461D01*
X125181976Y-107702463D01*
X125336626Y-107733225D01*
X125336629Y-107733226D01*
X125336631Y-107733226D01*
X125494317Y-107733226D01*
X125494318Y-107733225D01*
X125648970Y-107702463D01*
X125788865Y-107644517D01*
X125794645Y-107642123D01*
X125794645Y-107642122D01*
X125794652Y-107642120D01*
X125925762Y-107554515D01*
X126037262Y-107443015D01*
X126084052Y-107372989D01*
X126102865Y-107344834D01*
X126156477Y-107300029D01*
X126205967Y-107289725D01*
X127438459Y-107289725D01*
X127444693Y-107289882D01*
X127457839Y-107290543D01*
X127494997Y-107300500D01*
X127653111Y-107300500D01*
X127655642Y-107300500D01*
X127658761Y-107300657D01*
X127688920Y-107311186D01*
X127719566Y-107320185D01*
X127721678Y-107322623D01*
X127724726Y-107323687D01*
X127744409Y-107348855D01*
X127765321Y-107372989D01*
X127766404Y-107376980D01*
X127767768Y-107378724D01*
X127768229Y-107383703D01*
X127775885Y-107411898D01*
X127784651Y-107497708D01*
X127784651Y-107497710D01*
X127837996Y-107658694D01*
X127838001Y-107658705D01*
X127900822Y-107760552D01*
X127919263Y-107827944D01*
X127901401Y-107889798D01*
X127831523Y-108005391D01*
X127831522Y-108005393D01*
X127831522Y-108005394D01*
X127824879Y-108026712D01*
X127780913Y-108167807D01*
X127775782Y-108224275D01*
X127774500Y-108238384D01*
X127774500Y-108901616D01*
X127775448Y-108912046D01*
X127780913Y-108972192D01*
X127780913Y-108972194D01*
X127780914Y-108972196D01*
X127831522Y-109134606D01*
X127884224Y-109221786D01*
X127919530Y-109280188D01*
X128039811Y-109400469D01*
X128039813Y-109400470D01*
X128039815Y-109400472D01*
X128185394Y-109488478D01*
X128347804Y-109539086D01*
X128418384Y-109545500D01*
X128418387Y-109545500D01*
X128931613Y-109545500D01*
X128931616Y-109545500D01*
X129002196Y-109539086D01*
X129164606Y-109488478D01*
X129310185Y-109400472D01*
X129359289Y-109351368D01*
X129412319Y-109298339D01*
X129473642Y-109264854D01*
X129543334Y-109269838D01*
X129587681Y-109298339D01*
X129689811Y-109400469D01*
X129689813Y-109400470D01*
X129689815Y-109400472D01*
X129835394Y-109488478D01*
X129997804Y-109539086D01*
X130068384Y-109545500D01*
X130068387Y-109545500D01*
X130581613Y-109545500D01*
X130581616Y-109545500D01*
X130652196Y-109539086D01*
X130814606Y-109488478D01*
X130960185Y-109400472D01*
X130960189Y-109400468D01*
X130966094Y-109395843D01*
X130966899Y-109396871D01*
X131021356Y-109367129D01*
X131091048Y-109372107D01*
X131112819Y-109382752D01*
X131241303Y-109462003D01*
X131402292Y-109515349D01*
X131501655Y-109525500D01*
X132098344Y-109525499D01*
X132098352Y-109525498D01*
X132098355Y-109525498D01*
X132175750Y-109517592D01*
X132197708Y-109515349D01*
X132358697Y-109462003D01*
X132503044Y-109372968D01*
X132622968Y-109253044D01*
X132712003Y-109108697D01*
X132765349Y-108947708D01*
X132775500Y-108848345D01*
X132775499Y-108301656D01*
X132775139Y-108298136D01*
X132765349Y-108202292D01*
X132765348Y-108202289D01*
X132712003Y-108041303D01*
X132711999Y-108041297D01*
X132711998Y-108041294D01*
X132622970Y-107896959D01*
X132622967Y-107896955D01*
X132613339Y-107887327D01*
X132579854Y-107826004D01*
X132584838Y-107756312D01*
X132613345Y-107711959D01*
X132622573Y-107702731D01*
X132711542Y-107558492D01*
X132711547Y-107558481D01*
X132764855Y-107397606D01*
X132774999Y-107298322D01*
X132775000Y-107298309D01*
X132775000Y-107275000D01*
X131355000Y-107275000D01*
X131318681Y-107311319D01*
X131316609Y-107309247D01*
X131282511Y-107338794D01*
X131231000Y-107350000D01*
X130399000Y-107350000D01*
X130331961Y-107330315D01*
X130286206Y-107277511D01*
X130275000Y-107226000D01*
X130275000Y-107100000D01*
X130249445Y-107100000D01*
X130182406Y-107080315D01*
X130136651Y-107027511D01*
X130125445Y-106976000D01*
X130125445Y-106125000D01*
X130525000Y-106125000D01*
X130525000Y-106850000D01*
X130695000Y-106850000D01*
X130731319Y-106813681D01*
X130733390Y-106815752D01*
X130767489Y-106786206D01*
X130819000Y-106775000D01*
X131550000Y-106775000D01*
X131550000Y-106075000D01*
X131549999Y-106074999D01*
X131501693Y-106075000D01*
X131501675Y-106075001D01*
X131402392Y-106085144D01*
X131241518Y-106138452D01*
X131241507Y-106138457D01*
X131097271Y-106227424D01*
X131097266Y-106227428D01*
X131080530Y-106244164D01*
X131019206Y-106277648D01*
X130949515Y-106272662D01*
X130927754Y-106262020D01*
X130808486Y-106188454D01*
X130808481Y-106188452D01*
X130647606Y-106135144D01*
X130548322Y-106125000D01*
X130525000Y-106125000D01*
X130125445Y-106125000D01*
X130125445Y-105725887D01*
X130123136Y-105717272D01*
X130123136Y-105717271D01*
X130123135Y-105717268D01*
X130113628Y-105681785D01*
X130084522Y-105573161D01*
X130029254Y-105477434D01*
X130012782Y-105409536D01*
X130021437Y-105369569D01*
X130025000Y-105360618D01*
X130051744Y-105315398D01*
X130075340Y-105234179D01*
X130077549Y-105228632D01*
X130095561Y-105205638D01*
X130111284Y-105181018D01*
X130116854Y-105178454D01*
X130120635Y-105173629D01*
X130148217Y-105164023D01*
X130174757Y-105151812D01*
X130185543Y-105151025D01*
X130186618Y-105150651D01*
X130187560Y-105150877D01*
X130192754Y-105150499D01*
X132007246Y-105150499D01*
X132074285Y-105170184D01*
X132120040Y-105222988D01*
X132126322Y-105239904D01*
X132148253Y-105315393D01*
X132148255Y-105315396D01*
X132148256Y-105315398D01*
X132169631Y-105351542D01*
X132231917Y-105456862D01*
X132231923Y-105456870D01*
X132348129Y-105573076D01*
X132348133Y-105573079D01*
X132348135Y-105573081D01*
X132489602Y-105656744D01*
X132531224Y-105668836D01*
X132647426Y-105702597D01*
X132647429Y-105702597D01*
X132647431Y-105702598D01*
X132684306Y-105705500D01*
X132752795Y-105705500D01*
X132819834Y-105725185D01*
X132865589Y-105777989D01*
X132875533Y-105847147D01*
X132867356Y-105876949D01*
X132851399Y-105915475D01*
X132830263Y-105966502D01*
X132830261Y-105966510D01*
X132799500Y-106121153D01*
X132799500Y-106224833D01*
X132779815Y-106291872D01*
X132727011Y-106337627D01*
X132657853Y-106347571D01*
X132594297Y-106318546D01*
X132587819Y-106312514D01*
X132502732Y-106227427D01*
X132502728Y-106227424D01*
X132358492Y-106138457D01*
X132358481Y-106138452D01*
X132197606Y-106085144D01*
X132098322Y-106075000D01*
X132050000Y-106075000D01*
X132050000Y-106775000D01*
X132774999Y-106775000D01*
X132788068Y-106761930D01*
X132794684Y-106739401D01*
X132847488Y-106693646D01*
X132916646Y-106683702D01*
X132980202Y-106712727D01*
X132986680Y-106718759D01*
X133089707Y-106821786D01*
X133089711Y-106821789D01*
X133220814Y-106909390D01*
X133220827Y-106909397D01*
X133366498Y-106969735D01*
X133366503Y-106969737D01*
X133518644Y-107000000D01*
X133521153Y-107000499D01*
X133521156Y-107000500D01*
X133521158Y-107000500D01*
X133678844Y-107000500D01*
X133678845Y-107000499D01*
X133833497Y-106969737D01*
X133979179Y-106909394D01*
X134110289Y-106821789D01*
X134221789Y-106710289D01*
X134309394Y-106579179D01*
X134369737Y-106433497D01*
X134400500Y-106278842D01*
X134400500Y-106121158D01*
X134400500Y-106121155D01*
X134400499Y-106121153D01*
X134393289Y-106084907D01*
X134369737Y-105966503D01*
X134332643Y-105876951D01*
X134325175Y-105807483D01*
X134356450Y-105745004D01*
X134416539Y-105709352D01*
X134447205Y-105705500D01*
X134465686Y-105705500D01*
X134465694Y-105705500D01*
X134502569Y-105702598D01*
X134502571Y-105702597D01*
X134502573Y-105702597D01*
X134544191Y-105690505D01*
X134660398Y-105656744D01*
X134801865Y-105573081D01*
X134918081Y-105456865D01*
X135001744Y-105315398D01*
X135035855Y-105197987D01*
X135047597Y-105157573D01*
X135047598Y-105157567D01*
X135048113Y-105151025D01*
X135050500Y-105120694D01*
X135050500Y-104689306D01*
X135047598Y-104652431D01*
X135045469Y-104645104D01*
X135012371Y-104531181D01*
X135001744Y-104494602D01*
X134918081Y-104353135D01*
X134918078Y-104353132D01*
X134913298Y-104346969D01*
X134915635Y-104345155D01*
X134888798Y-104296050D01*
X134893756Y-104226356D01*
X134914554Y-104193998D01*
X134912903Y-104192717D01*
X134917686Y-104186550D01*
X135001281Y-104045198D01*
X135047100Y-103887486D01*
X135047295Y-103885001D01*
X135047295Y-103885000D01*
X133699000Y-103885000D01*
X133631961Y-103865315D01*
X133586206Y-103812511D01*
X133575000Y-103761000D01*
X133575000Y-103509000D01*
X133594685Y-103441961D01*
X133647489Y-103396206D01*
X133699000Y-103385000D01*
X135047295Y-103385000D01*
X135047295Y-103384998D01*
X135047100Y-103382513D01*
X135001281Y-103224801D01*
X134917685Y-103083447D01*
X134912900Y-103077278D01*
X134915366Y-103075364D01*
X134888802Y-103026776D01*
X134893749Y-102957082D01*
X134914856Y-102924232D01*
X134913301Y-102923026D01*
X134918077Y-102916868D01*
X134918081Y-102916865D01*
X134918625Y-102915946D01*
X134926756Y-102902196D01*
X135001744Y-102775398D01*
X135047598Y-102617569D01*
X135050500Y-102580694D01*
X135050500Y-102149306D01*
X135047598Y-102112431D01*
X135044131Y-102100499D01*
X135001745Y-101954606D01*
X135001744Y-101954603D01*
X135001744Y-101954602D01*
X134918081Y-101813135D01*
X134918078Y-101813132D01*
X134913298Y-101806969D01*
X134915635Y-101805155D01*
X134888798Y-101756050D01*
X134893756Y-101686356D01*
X134914554Y-101653998D01*
X134912903Y-101652717D01*
X134917686Y-101646550D01*
X135001281Y-101505198D01*
X135047100Y-101347486D01*
X135047295Y-101345001D01*
X135047295Y-101345000D01*
X133699000Y-101345000D01*
X133631961Y-101325315D01*
X133586206Y-101272511D01*
X133575000Y-101221000D01*
X133575000Y-101095000D01*
X133449000Y-101095000D01*
X133381961Y-101075315D01*
X133336206Y-101022511D01*
X133325000Y-100971000D01*
X133325000Y-100845000D01*
X133825000Y-100845000D01*
X135047295Y-100845000D01*
X135047295Y-100844998D01*
X135047100Y-100842513D01*
X135001281Y-100684801D01*
X134917685Y-100543447D01*
X134917678Y-100543438D01*
X134801561Y-100427321D01*
X134801552Y-100427314D01*
X134660196Y-100343717D01*
X134660193Y-100343716D01*
X134502495Y-100297900D01*
X134502489Y-100297899D01*
X134465649Y-100295000D01*
X133825000Y-100295000D01*
X133825000Y-100845000D01*
X133325000Y-100845000D01*
X133325000Y-100295000D01*
X132684350Y-100295000D01*
X132647510Y-100297899D01*
X132647504Y-100297900D01*
X132489806Y-100343716D01*
X132489803Y-100343717D01*
X132348447Y-100427314D01*
X132348438Y-100427321D01*
X132232321Y-100543438D01*
X132232314Y-100543447D01*
X132148718Y-100684801D01*
X132126844Y-100760095D01*
X132089237Y-100818980D01*
X132025765Y-100848187D01*
X132007767Y-100849500D01*
X130192753Y-100849500D01*
X130125714Y-100829815D01*
X130079959Y-100777011D01*
X130073679Y-100760102D01*
X130051744Y-100684602D01*
X129968081Y-100543135D01*
X129968079Y-100543133D01*
X129968076Y-100543129D01*
X129851870Y-100426923D01*
X129851862Y-100426917D01*
X129730511Y-100355151D01*
X129710398Y-100343256D01*
X129710397Y-100343255D01*
X129710396Y-100343255D01*
X129710393Y-100343254D01*
X129552573Y-100297402D01*
X129552567Y-100297401D01*
X129515701Y-100294500D01*
X129515694Y-100294500D01*
X127734306Y-100294500D01*
X127734298Y-100294500D01*
X127697430Y-100297401D01*
X127696992Y-100297482D01*
X127674712Y-100299500D01*
X127530535Y-100299500D01*
X127463496Y-100279815D01*
X127442854Y-100263181D01*
X127355392Y-100175719D01*
X127355388Y-100175716D01*
X127212296Y-100087455D01*
X127212290Y-100087452D01*
X127212288Y-100087451D01*
X127052686Y-100034564D01*
X127052684Y-100034563D01*
X126954182Y-100024500D01*
X126954175Y-100024500D01*
X126420827Y-100024500D01*
X126420819Y-100024500D01*
X126322317Y-100034563D01*
X126322316Y-100034564D01*
X126271370Y-100051446D01*
X126162716Y-100087450D01*
X126162705Y-100087455D01*
X126019613Y-100175716D01*
X126019608Y-100175719D01*
X125987680Y-100207648D01*
X125926356Y-100241133D01*
X125856665Y-100236147D01*
X125812320Y-100207648D01*
X125780391Y-100175719D01*
X125780386Y-100175716D01*
X125637294Y-100087455D01*
X125637288Y-100087452D01*
X125637286Y-100087451D01*
X125477684Y-100034564D01*
X125477682Y-100034563D01*
X125379180Y-100024500D01*
X125379173Y-100024500D01*
X124845825Y-100024500D01*
X124845817Y-100024500D01*
X124747315Y-100034563D01*
X124747314Y-100034564D01*
X124696368Y-100051446D01*
X124587714Y-100087450D01*
X124587703Y-100087455D01*
X124444611Y-100175716D01*
X124444607Y-100175719D01*
X124325718Y-100294608D01*
X124325715Y-100294612D01*
X124237454Y-100437704D01*
X124237449Y-100437715D01*
X124216494Y-100500954D01*
X124184563Y-100597315D01*
X124184563Y-100597316D01*
X124184562Y-100597316D01*
X124174499Y-100695818D01*
X124174499Y-101304181D01*
X124184562Y-101402683D01*
X124237449Y-101562284D01*
X124237451Y-101562289D01*
X124308615Y-101677663D01*
X124327055Y-101745056D01*
X124309193Y-101806909D01*
X124231523Y-101935391D01*
X124231522Y-101935393D01*
X124231522Y-101935394D01*
X124221023Y-101969086D01*
X124180913Y-102097807D01*
X124174500Y-102168386D01*
X124174500Y-102831613D01*
X124180913Y-102902192D01*
X124180913Y-102902194D01*
X124180914Y-102902196D01*
X124203799Y-102975637D01*
X124231522Y-103064606D01*
X124319530Y-103210188D01*
X124439811Y-103330469D01*
X124439813Y-103330470D01*
X124439815Y-103330472D01*
X124585394Y-103418478D01*
X124747804Y-103469086D01*
X124818384Y-103475500D01*
X124875500Y-103475500D01*
X124942539Y-103495185D01*
X124988294Y-103547989D01*
X124999500Y-103599500D01*
X124999500Y-103678846D01*
X125030261Y-103833489D01*
X125030264Y-103833501D01*
X125090602Y-103979172D01*
X125090609Y-103979185D01*
X125179093Y-104111609D01*
X125199971Y-104178286D01*
X125181487Y-104245666D01*
X125129508Y-104292357D01*
X125075991Y-104304500D01*
X124831957Y-104304500D01*
X124673842Y-104304500D01*
X124521115Y-104345423D01*
X124521114Y-104345423D01*
X124521112Y-104345424D01*
X124521109Y-104345425D01*
X124470996Y-104374359D01*
X124470995Y-104374360D01*
X124433453Y-104396035D01*
X124384185Y-104424479D01*
X124384182Y-104424481D01*
X123434086Y-105374578D01*
X123372763Y-105408063D01*
X123303071Y-105403079D01*
X123247138Y-105361207D01*
X123223932Y-105306295D01*
X123211090Y-105225214D01*
X123162451Y-105075520D01*
X123133241Y-104985621D01*
X123133239Y-104985618D01*
X123133239Y-104985616D01*
X123060978Y-104843797D01*
X123018870Y-104761155D01*
X122946340Y-104661326D01*
X122870798Y-104557350D01*
X122870794Y-104557345D01*
X122692654Y-104379205D01*
X122692649Y-104379201D01*
X122488848Y-104231132D01*
X122488847Y-104231131D01*
X122488845Y-104231130D01*
X122385133Y-104178286D01*
X122264383Y-104116760D01*
X122024785Y-104038910D01*
X121775962Y-103999500D01*
X120224038Y-103999500D01*
X120141897Y-104012510D01*
X119975214Y-104038910D01*
X119735616Y-104116760D01*
X119511151Y-104231132D01*
X119307350Y-104379201D01*
X119307345Y-104379205D01*
X119211681Y-104474870D01*
X119150358Y-104508355D01*
X119080666Y-104503371D01*
X119024733Y-104461499D01*
X119000316Y-104396035D01*
X119000000Y-104387189D01*
X119000000Y-100599983D01*
X119274500Y-100599983D01*
X119274500Y-101400001D01*
X119274501Y-101400019D01*
X119285000Y-101502796D01*
X119285001Y-101502799D01*
X119340185Y-101669331D01*
X119340187Y-101669336D01*
X119340435Y-101669738D01*
X119432288Y-101818656D01*
X119556344Y-101942712D01*
X119705666Y-102034814D01*
X119872203Y-102089999D01*
X119974991Y-102100500D01*
X121325008Y-102100499D01*
X121427797Y-102089999D01*
X121594334Y-102034814D01*
X121743656Y-101942712D01*
X121867712Y-101818656D01*
X121959814Y-101669334D01*
X122014999Y-101502797D01*
X122025500Y-101400009D01*
X122025499Y-100599992D01*
X122025275Y-100597804D01*
X122014999Y-100497203D01*
X122014998Y-100497200D01*
X121995345Y-100437891D01*
X121959814Y-100330666D01*
X121867712Y-100181344D01*
X121743656Y-100057288D01*
X121743655Y-100057287D01*
X121679019Y-100017420D01*
X121632294Y-99965472D01*
X121621071Y-99896510D01*
X121648914Y-99832428D01*
X121656434Y-99824199D01*
X121764035Y-99716598D01*
X121865804Y-99576524D01*
X121944408Y-99422255D01*
X121997914Y-99257584D01*
X121999115Y-99250000D01*
X120930330Y-99250000D01*
X120950075Y-99230255D01*
X120999444Y-99144745D01*
X121025000Y-99049370D01*
X121025000Y-98950630D01*
X120999444Y-98855255D01*
X120950075Y-98769745D01*
X120930330Y-98750000D01*
X121999115Y-98750000D01*
X121999115Y-98749999D01*
X121997914Y-98742415D01*
X121944408Y-98577744D01*
X121865804Y-98423475D01*
X121764032Y-98283397D01*
X121641602Y-98160967D01*
X121501524Y-98059195D01*
X121347257Y-97980591D01*
X121182584Y-97927085D01*
X121011571Y-97900000D01*
X120900000Y-97900000D01*
X120900000Y-98719670D01*
X120880255Y-98699925D01*
X120794745Y-98650556D01*
X120699370Y-98625000D01*
X120600630Y-98625000D01*
X120505255Y-98650556D01*
X120419745Y-98699925D01*
X120400000Y-98719670D01*
X120400000Y-97900000D01*
X120288429Y-97900000D01*
X120117415Y-97927085D01*
X119952742Y-97980591D01*
X119798475Y-98059195D01*
X119658397Y-98160967D01*
X119535967Y-98283397D01*
X119434195Y-98423475D01*
X119355591Y-98577744D01*
X119302085Y-98742415D01*
X119300884Y-98749999D01*
X119300885Y-98750000D01*
X120369670Y-98750000D01*
X120349925Y-98769745D01*
X120300556Y-98855255D01*
X120275000Y-98950630D01*
X120275000Y-99049370D01*
X120300556Y-99144745D01*
X120349925Y-99230255D01*
X120369670Y-99250000D01*
X119300885Y-99250000D01*
X119302085Y-99257584D01*
X119355591Y-99422255D01*
X119434195Y-99576524D01*
X119535967Y-99716602D01*
X119643565Y-99824200D01*
X119677050Y-99885523D01*
X119672066Y-99955215D01*
X119630194Y-100011148D01*
X119620981Y-100017420D01*
X119556342Y-100057289D01*
X119432289Y-100181342D01*
X119340187Y-100330663D01*
X119340185Y-100330668D01*
X119333004Y-100352339D01*
X119285001Y-100497203D01*
X119285001Y-100497204D01*
X119285000Y-100497204D01*
X119274500Y-100599983D01*
X119000000Y-100599983D01*
X119000000Y-93993713D01*
X119949500Y-93993713D01*
X119949500Y-94206286D01*
X119980381Y-94401265D01*
X119982754Y-94416243D01*
X120015130Y-94515887D01*
X120048444Y-94618414D01*
X120144951Y-94807820D01*
X120269890Y-94979786D01*
X120420213Y-95130109D01*
X120592179Y-95255048D01*
X120592181Y-95255049D01*
X120592184Y-95255051D01*
X120781588Y-95351557D01*
X120983757Y-95417246D01*
X121193713Y-95450500D01*
X121193714Y-95450500D01*
X121406286Y-95450500D01*
X121406287Y-95450500D01*
X121616243Y-95417246D01*
X121818412Y-95351557D01*
X122007816Y-95255051D01*
X122090771Y-95194781D01*
X122179786Y-95130109D01*
X122179788Y-95130106D01*
X122179792Y-95130104D01*
X122330104Y-94979792D01*
X122330106Y-94979788D01*
X122330109Y-94979786D01*
X122455048Y-94807820D01*
X122455047Y-94807820D01*
X122455051Y-94807816D01*
X122551557Y-94618412D01*
X122617246Y-94416243D01*
X122650500Y-94206287D01*
X122650500Y-93993713D01*
X122617246Y-93783757D01*
X122551557Y-93581588D01*
X122455051Y-93392184D01*
X122455049Y-93392181D01*
X122455048Y-93392179D01*
X122330109Y-93220213D01*
X122179786Y-93069890D01*
X122007820Y-92944951D01*
X121818414Y-92848444D01*
X121818413Y-92848443D01*
X121818412Y-92848443D01*
X121616243Y-92782754D01*
X121616241Y-92782753D01*
X121616240Y-92782753D01*
X121454957Y-92757208D01*
X121406287Y-92749500D01*
X121193713Y-92749500D01*
X121145042Y-92757208D01*
X120983760Y-92782753D01*
X120781585Y-92848444D01*
X120592179Y-92944951D01*
X120420213Y-93069890D01*
X120269890Y-93220213D01*
X120144951Y-93392179D01*
X120048444Y-93581585D01*
X119982753Y-93783760D01*
X119949500Y-93993713D01*
X119000000Y-93993713D01*
X119000000Y-91824500D01*
X119019685Y-91757461D01*
X119072489Y-91711706D01*
X119124000Y-91700500D01*
X162055953Y-91700500D01*
X162122992Y-91720185D01*
G37*
%TD.AperFunction*%
%TA.AperFunction,Conductor*%
G36*
X179162100Y-111404880D02*
G01*
X179174044Y-111403739D01*
X179195006Y-111414543D01*
X179217629Y-111421186D01*
X179227036Y-111431051D01*
X179236150Y-111435749D01*
X179257971Y-111463490D01*
X179261727Y-111469994D01*
X179261733Y-111470006D01*
X179324474Y-111578678D01*
X179324480Y-111578686D01*
X179443348Y-111697554D01*
X179443353Y-111697558D01*
X181027314Y-113281520D01*
X181027316Y-113281521D01*
X181027320Y-113281524D01*
X181119579Y-113334789D01*
X181164246Y-113360577D01*
X181316973Y-113401501D01*
X181316975Y-113401501D01*
X181482684Y-113401501D01*
X181482700Y-113401500D01*
X188077649Y-113401500D01*
X188144688Y-113421185D01*
X188190443Y-113473989D01*
X188200937Y-113538755D01*
X188199997Y-113547505D01*
X188199500Y-113552124D01*
X188199500Y-115647870D01*
X188199501Y-115647876D01*
X188205908Y-115707483D01*
X188256202Y-115842328D01*
X188256206Y-115842335D01*
X188342452Y-115957544D01*
X188342455Y-115957547D01*
X188457664Y-116043793D01*
X188457671Y-116043797D01*
X188592517Y-116094091D01*
X188592516Y-116094091D01*
X188599444Y-116094835D01*
X188652127Y-116100500D01*
X191947872Y-116100499D01*
X192007483Y-116094091D01*
X192142331Y-116043796D01*
X192257546Y-115957546D01*
X192343796Y-115842331D01*
X192394091Y-115707483D01*
X192400500Y-115647873D01*
X192400499Y-113552128D01*
X192400499Y-113552124D01*
X192400498Y-113552112D01*
X192399062Y-113538756D01*
X192411467Y-113469996D01*
X192459077Y-113418859D01*
X192522351Y-113401500D01*
X195912331Y-113401500D01*
X195912347Y-113401501D01*
X195919943Y-113401501D01*
X196078054Y-113401501D01*
X196078057Y-113401501D01*
X196230785Y-113360577D01*
X196301535Y-113319729D01*
X196367716Y-113281520D01*
X196479520Y-113169716D01*
X196479520Y-113169714D01*
X196489724Y-113159511D01*
X196489728Y-113159506D01*
X196696437Y-112952796D01*
X196757758Y-112919313D01*
X196822433Y-112922547D01*
X196948632Y-112963553D01*
X197036110Y-112977408D01*
X197181903Y-113000500D01*
X197181908Y-113000500D01*
X197418097Y-113000500D01*
X197651368Y-112963553D01*
X197684468Y-112952798D01*
X197875992Y-112890568D01*
X198086433Y-112783343D01*
X198277510Y-112644517D01*
X198287819Y-112634208D01*
X198349142Y-112600723D01*
X198418834Y-112605707D01*
X198474767Y-112647579D01*
X198499184Y-112713043D01*
X198499500Y-112721889D01*
X198499500Y-121675500D01*
X198479815Y-121742539D01*
X198427011Y-121788294D01*
X198375500Y-121799500D01*
X174555236Y-121799500D01*
X174488197Y-121779815D01*
X174442442Y-121727011D01*
X174432498Y-121657853D01*
X174438194Y-121634546D01*
X174458663Y-121576045D01*
X174485037Y-121500674D01*
X174500500Y-121363438D01*
X174500500Y-120636562D01*
X174494183Y-120580500D01*
X174485038Y-120499328D01*
X174470422Y-120457559D01*
X174424156Y-120325337D01*
X174326085Y-120169258D01*
X174244507Y-120087680D01*
X174211022Y-120026357D01*
X174216006Y-119956665D01*
X174244503Y-119912322D01*
X174326085Y-119830741D01*
X174424156Y-119674662D01*
X174485037Y-119500673D01*
X174485037Y-119500671D01*
X174485038Y-119500669D01*
X174497089Y-119393713D01*
X194949500Y-119393713D01*
X194949500Y-119606287D01*
X194953298Y-119630264D01*
X194976730Y-119778213D01*
X194982754Y-119816243D01*
X195042460Y-119999999D01*
X195048444Y-120018414D01*
X195144951Y-120207820D01*
X195269890Y-120379786D01*
X195420213Y-120530109D01*
X195592179Y-120655048D01*
X195592181Y-120655049D01*
X195592184Y-120655051D01*
X195781588Y-120751557D01*
X195983757Y-120817246D01*
X196193713Y-120850500D01*
X196193714Y-120850500D01*
X196406286Y-120850500D01*
X196406287Y-120850500D01*
X196616243Y-120817246D01*
X196818412Y-120751557D01*
X197007816Y-120655051D01*
X197037494Y-120633489D01*
X197179786Y-120530109D01*
X197179788Y-120530106D01*
X197179792Y-120530104D01*
X197330104Y-120379792D01*
X197330106Y-120379788D01*
X197330109Y-120379786D01*
X197455048Y-120207820D01*
X197455047Y-120207820D01*
X197455051Y-120207816D01*
X197551557Y-120018412D01*
X197617246Y-119816243D01*
X197650500Y-119606287D01*
X197650500Y-119393713D01*
X197617246Y-119183757D01*
X197551557Y-118981588D01*
X197455051Y-118792184D01*
X197455049Y-118792181D01*
X197455048Y-118792179D01*
X197330109Y-118620213D01*
X197179786Y-118469890D01*
X197007820Y-118344951D01*
X196818414Y-118248444D01*
X196818413Y-118248443D01*
X196818412Y-118248443D01*
X196616243Y-118182754D01*
X196616241Y-118182753D01*
X196616240Y-118182753D01*
X196443001Y-118155315D01*
X196406287Y-118149500D01*
X196193713Y-118149500D01*
X196156999Y-118155315D01*
X195983760Y-118182753D01*
X195781585Y-118248444D01*
X195592179Y-118344951D01*
X195420213Y-118469890D01*
X195269890Y-118620213D01*
X195144951Y-118792179D01*
X195048444Y-118981585D01*
X194982753Y-119183760D01*
X194949500Y-119393713D01*
X174497089Y-119393713D01*
X174499202Y-119374958D01*
X174499202Y-119374953D01*
X174500500Y-119363441D01*
X174500500Y-119363437D01*
X174500500Y-118636561D01*
X174491444Y-118556185D01*
X174485038Y-118499327D01*
X174468053Y-118450787D01*
X174424156Y-118325336D01*
X174326085Y-118169257D01*
X174244508Y-118087680D01*
X174211023Y-118026357D01*
X174216007Y-117956665D01*
X174244504Y-117912322D01*
X174326085Y-117830742D01*
X174424156Y-117674663D01*
X174485037Y-117500674D01*
X174485037Y-117500673D01*
X174485038Y-117500671D01*
X174500293Y-117365272D01*
X174500500Y-117363438D01*
X174500500Y-116636562D01*
X174490695Y-116549538D01*
X174485038Y-116499328D01*
X174468232Y-116451300D01*
X174424156Y-116325337D01*
X174326085Y-116169258D01*
X174244508Y-116087681D01*
X174211023Y-116026358D01*
X174216007Y-115956666D01*
X174244508Y-115912319D01*
X174277985Y-115878842D01*
X174326085Y-115830742D01*
X174424156Y-115674663D01*
X174485037Y-115500674D01*
X174485037Y-115500673D01*
X174485038Y-115500671D01*
X174495389Y-115408795D01*
X174500500Y-115363438D01*
X174500500Y-115253129D01*
X174520185Y-115186090D01*
X174536819Y-115165448D01*
X174983318Y-114718949D01*
X175044641Y-114685464D01*
X175114333Y-114690448D01*
X175170266Y-114732320D01*
X175194683Y-114797784D01*
X175194999Y-114806630D01*
X175194999Y-115365650D01*
X175197898Y-115402490D01*
X175197899Y-115402496D01*
X175243715Y-115560194D01*
X175243716Y-115560197D01*
X175327313Y-115701553D01*
X175327320Y-115701562D01*
X175443437Y-115817679D01*
X175443446Y-115817686D01*
X175584800Y-115901282D01*
X175742513Y-115947101D01*
X175742510Y-115947101D01*
X175744997Y-115947296D01*
X175744999Y-115947296D01*
X176244999Y-115947296D01*
X176245000Y-115947296D01*
X176247485Y-115947101D01*
X176405197Y-115901282D01*
X176546551Y-115817686D01*
X176552721Y-115812901D01*
X176554545Y-115815253D01*
X176603594Y-115788446D01*
X176673287Y-115793403D01*
X176706062Y-115814466D01*
X176707277Y-115812901D01*
X176713446Y-115817686D01*
X176854800Y-115901282D01*
X177012513Y-115947101D01*
X177012510Y-115947101D01*
X177014997Y-115947296D01*
X177014999Y-115947296D01*
X177514999Y-115947296D01*
X177515000Y-115947296D01*
X177517485Y-115947101D01*
X177675197Y-115901282D01*
X177816551Y-115817686D01*
X177822721Y-115812901D01*
X177824545Y-115815253D01*
X177873594Y-115788446D01*
X177943287Y-115793403D01*
X177976062Y-115814466D01*
X177977277Y-115812901D01*
X177983446Y-115817686D01*
X178124800Y-115901282D01*
X178282513Y-115947101D01*
X178282510Y-115947101D01*
X178284997Y-115947296D01*
X178284999Y-115947296D01*
X178784999Y-115947296D01*
X178785000Y-115947296D01*
X178787485Y-115947101D01*
X178945197Y-115901282D01*
X179086551Y-115817686D01*
X179092721Y-115812901D01*
X179094545Y-115815253D01*
X179143594Y-115788446D01*
X179213287Y-115793403D01*
X179246062Y-115814466D01*
X179247277Y-115812901D01*
X179253446Y-115817686D01*
X179394800Y-115901282D01*
X179552513Y-115947101D01*
X179552510Y-115947101D01*
X179554997Y-115947296D01*
X179554999Y-115947296D01*
X180054999Y-115947296D01*
X180055000Y-115947296D01*
X180057485Y-115947101D01*
X180215197Y-115901282D01*
X180356551Y-115817686D01*
X180356560Y-115817679D01*
X180472677Y-115701562D01*
X180472684Y-115701553D01*
X180556281Y-115560197D01*
X180556282Y-115560194D01*
X180602098Y-115402496D01*
X180602099Y-115402490D01*
X180604998Y-115365650D01*
X180604999Y-115365635D01*
X180604999Y-114725001D01*
X180054999Y-114725001D01*
X180054999Y-115947296D01*
X179554999Y-115947296D01*
X179554999Y-114725001D01*
X178784999Y-114725001D01*
X178784999Y-115947296D01*
X178284999Y-115947296D01*
X178284999Y-114725001D01*
X177514999Y-114725001D01*
X177514999Y-115947296D01*
X177014999Y-115947296D01*
X177014999Y-114725001D01*
X176244999Y-114725001D01*
X176244999Y-115947296D01*
X175744999Y-115947296D01*
X175744999Y-114599001D01*
X175764684Y-114531962D01*
X175817488Y-114486207D01*
X175868999Y-114475001D01*
X175994999Y-114475001D01*
X175994999Y-114349001D01*
X176014684Y-114281962D01*
X176067488Y-114236207D01*
X176118999Y-114225001D01*
X177014999Y-114225001D01*
X177014999Y-113002704D01*
X177514999Y-113002704D01*
X177514999Y-114225001D01*
X178284999Y-114225001D01*
X178284999Y-113002704D01*
X178784999Y-113002704D01*
X178784999Y-114225001D01*
X179554999Y-114225001D01*
X180054999Y-114225001D01*
X180604999Y-114225001D01*
X180604999Y-113584366D01*
X180604998Y-113584351D01*
X180602099Y-113547511D01*
X180602098Y-113547505D01*
X180556282Y-113389807D01*
X180556281Y-113389804D01*
X180472684Y-113248448D01*
X180472677Y-113248439D01*
X180356560Y-113132322D01*
X180356551Y-113132315D01*
X180215195Y-113048718D01*
X180215192Y-113048717D01*
X180057493Y-113002901D01*
X180057496Y-113002901D01*
X180054999Y-113002704D01*
X180054999Y-114225001D01*
X179554999Y-114225001D01*
X179554999Y-113002704D01*
X179552502Y-113002901D01*
X179394805Y-113048717D01*
X179394802Y-113048718D01*
X179253446Y-113132315D01*
X179247277Y-113137101D01*
X179245456Y-113134754D01*
X179196357Y-113161565D01*
X179126665Y-113156581D01*
X179093929Y-113135542D01*
X179092721Y-113137101D01*
X179086551Y-113132315D01*
X178945195Y-113048718D01*
X178945192Y-113048717D01*
X178787493Y-113002901D01*
X178787496Y-113002901D01*
X178784999Y-113002704D01*
X178284999Y-113002704D01*
X178282502Y-113002901D01*
X178124805Y-113048717D01*
X178124802Y-113048718D01*
X177983446Y-113132315D01*
X177977277Y-113137101D01*
X177975456Y-113134754D01*
X177926357Y-113161565D01*
X177856665Y-113156581D01*
X177823929Y-113135542D01*
X177822721Y-113137101D01*
X177816551Y-113132315D01*
X177675195Y-113048718D01*
X177675192Y-113048717D01*
X177517493Y-113002901D01*
X177517496Y-113002901D01*
X177514999Y-113002704D01*
X177014999Y-113002704D01*
X177014998Y-113002703D01*
X177007739Y-113003278D01*
X176939357Y-112988940D01*
X176889582Y-112939907D01*
X176874217Y-112871748D01*
X176898141Y-112806102D01*
X176910276Y-112791990D01*
X178264447Y-111437820D01*
X178325770Y-111404335D01*
X178352128Y-111401501D01*
X179150590Y-111401501D01*
X179162100Y-111404880D01*
G37*
%TD.AperFunction*%
%TA.AperFunction,Conductor*%
G36*
X162952127Y-105125500D02*
G01*
X164176500Y-105125499D01*
X164243539Y-105145184D01*
X164289294Y-105197987D01*
X164300500Y-105249499D01*
X164300500Y-105648959D01*
X164280815Y-105715998D01*
X164264181Y-105736640D01*
X163360367Y-106640453D01*
X163299044Y-106673938D01*
X163296878Y-106674389D01*
X163141536Y-106705289D01*
X163141526Y-106705292D01*
X162995855Y-106765630D01*
X162995842Y-106765637D01*
X162864739Y-106853238D01*
X162864735Y-106853241D01*
X162753241Y-106964735D01*
X162753238Y-106964739D01*
X162665637Y-107095842D01*
X162665630Y-107095855D01*
X162605292Y-107241526D01*
X162605289Y-107241538D01*
X162574528Y-107396181D01*
X162574528Y-107553874D01*
X162605289Y-107708517D01*
X162605292Y-107708529D01*
X162665630Y-107854200D01*
X162665637Y-107854213D01*
X162753238Y-107985316D01*
X162753241Y-107985320D01*
X162864735Y-108096814D01*
X162864739Y-108096817D01*
X162995842Y-108184418D01*
X162995855Y-108184425D01*
X163141210Y-108244632D01*
X163141531Y-108244765D01*
X163252675Y-108266873D01*
X163296181Y-108275527D01*
X163296184Y-108275528D01*
X163296186Y-108275528D01*
X163453872Y-108275528D01*
X163453873Y-108275527D01*
X163608525Y-108244765D01*
X163754207Y-108184422D01*
X163885317Y-108096817D01*
X163996817Y-107985317D01*
X164084422Y-107854207D01*
X164144765Y-107708525D01*
X164175400Y-107554515D01*
X164175666Y-107553178D01*
X164208051Y-107491267D01*
X164209543Y-107489747D01*
X165090252Y-106609040D01*
X165151572Y-106575557D01*
X165221264Y-106580541D01*
X165277197Y-106622413D01*
X165301614Y-106687877D01*
X165299914Y-106715075D01*
X165300097Y-106715093D01*
X165299595Y-106720185D01*
X165299551Y-106720898D01*
X165299500Y-106721153D01*
X165299500Y-106878846D01*
X165330261Y-107033489D01*
X165330264Y-107033501D01*
X165390602Y-107179172D01*
X165390609Y-107179185D01*
X165478210Y-107310288D01*
X165478213Y-107310292D01*
X165589707Y-107421786D01*
X165589711Y-107421789D01*
X165720814Y-107509390D01*
X165720827Y-107509397D01*
X165866498Y-107569735D01*
X165866503Y-107569737D01*
X166021153Y-107600499D01*
X166021156Y-107600500D01*
X166021158Y-107600500D01*
X166178844Y-107600500D01*
X166178845Y-107600499D01*
X166333497Y-107569737D01*
X166479179Y-107509394D01*
X166610289Y-107421789D01*
X166721789Y-107310289D01*
X166809394Y-107179179D01*
X166869737Y-107033497D01*
X166895868Y-106902128D01*
X166900638Y-106878150D01*
X166909402Y-106861393D01*
X166913423Y-106842914D01*
X166932168Y-106817872D01*
X166933023Y-106816239D01*
X166934467Y-106814767D01*
X167048418Y-106700816D01*
X167109739Y-106667334D01*
X167136097Y-106664500D01*
X170425500Y-106664500D01*
X170492539Y-106684185D01*
X170538294Y-106736989D01*
X170549500Y-106788500D01*
X170549500Y-107363444D01*
X170556770Y-107427967D01*
X170544715Y-107496789D01*
X170521231Y-107529531D01*
X170285337Y-107765426D01*
X170224014Y-107798911D01*
X170221848Y-107799362D01*
X170066508Y-107830261D01*
X170066498Y-107830264D01*
X169920827Y-107890602D01*
X169920814Y-107890609D01*
X169789711Y-107978210D01*
X169789707Y-107978213D01*
X169678213Y-108089707D01*
X169678210Y-108089711D01*
X169590609Y-108220814D01*
X169590602Y-108220827D01*
X169530264Y-108366498D01*
X169530261Y-108366510D01*
X169499500Y-108521153D01*
X169499500Y-108678846D01*
X169530261Y-108833489D01*
X169530264Y-108833501D01*
X169590602Y-108979172D01*
X169590609Y-108979185D01*
X169678210Y-109110288D01*
X169678213Y-109110292D01*
X169789707Y-109221786D01*
X169789711Y-109221789D01*
X169920814Y-109309390D01*
X169920827Y-109309397D01*
X170066498Y-109369735D01*
X170066503Y-109369737D01*
X170213280Y-109398933D01*
X170221153Y-109400499D01*
X170221156Y-109400500D01*
X170221158Y-109400500D01*
X170378844Y-109400500D01*
X170418026Y-109392706D01*
X170487618Y-109398933D01*
X170542795Y-109441796D01*
X170562947Y-109493985D01*
X170563902Y-109493768D01*
X170565403Y-109500345D01*
X170565437Y-109500432D01*
X170565450Y-109500550D01*
X170565452Y-109500560D01*
X170626296Y-109674444D01*
X170724308Y-109830429D01*
X170805845Y-109911966D01*
X170839330Y-109973289D01*
X170834346Y-110042981D01*
X170805845Y-110087328D01*
X170723915Y-110169257D01*
X170625845Y-110325334D01*
X170564961Y-110499328D01*
X170549500Y-110636557D01*
X170549500Y-111363442D01*
X170564961Y-111500671D01*
X170625845Y-111674665D01*
X170723915Y-111830742D01*
X170805492Y-111912319D01*
X170838977Y-111973642D01*
X170833993Y-112043334D01*
X170805492Y-112087681D01*
X170723915Y-112169257D01*
X170625845Y-112325334D01*
X170564961Y-112499328D01*
X170549500Y-112636557D01*
X170549500Y-113363442D01*
X170564961Y-113500671D01*
X170599893Y-113600500D01*
X170625213Y-113672861D01*
X170625845Y-113674665D01*
X170723915Y-113830742D01*
X170805492Y-113912319D01*
X170838977Y-113973642D01*
X170833993Y-114043334D01*
X170805492Y-114087681D01*
X170723915Y-114169257D01*
X170625845Y-114325334D01*
X170564961Y-114499328D01*
X170549500Y-114636557D01*
X170549500Y-115363442D01*
X170564961Y-115500671D01*
X170599893Y-115600500D01*
X170625551Y-115673827D01*
X170625845Y-115674665D01*
X170723915Y-115830742D01*
X170805492Y-115912319D01*
X170838977Y-115973642D01*
X170833993Y-116043334D01*
X170805492Y-116087681D01*
X170723915Y-116169257D01*
X170625845Y-116325334D01*
X170564961Y-116499328D01*
X170549500Y-116636557D01*
X170549500Y-117211500D01*
X170529815Y-117278539D01*
X170477011Y-117324294D01*
X170425500Y-117335500D01*
X159574500Y-117335500D01*
X159507461Y-117315815D01*
X159461706Y-117263011D01*
X159450500Y-117211500D01*
X159450500Y-116636558D01*
X159450499Y-116636557D01*
X159446436Y-116600500D01*
X159435037Y-116499326D01*
X159435037Y-116499325D01*
X159435037Y-116499323D01*
X159393262Y-116379939D01*
X159389700Y-116310160D01*
X159422620Y-116251305D01*
X160680520Y-114993408D01*
X160759577Y-114856477D01*
X160800501Y-114703749D01*
X160800501Y-114545634D01*
X160800501Y-114538039D01*
X160800500Y-114538021D01*
X160800500Y-106028269D01*
X160820185Y-105961230D01*
X160872989Y-105915475D01*
X160942147Y-105905531D01*
X161005703Y-105934556D01*
X161024292Y-105955626D01*
X161024347Y-105955581D01*
X161025609Y-105957119D01*
X161027603Y-105959379D01*
X161028212Y-105960291D01*
X161139707Y-106071786D01*
X161139711Y-106071789D01*
X161270814Y-106159390D01*
X161270827Y-106159397D01*
X161416170Y-106219599D01*
X161416503Y-106219737D01*
X161539305Y-106244164D01*
X161571153Y-106250499D01*
X161571156Y-106250500D01*
X161571158Y-106250500D01*
X161728844Y-106250500D01*
X161728845Y-106250499D01*
X161883497Y-106219737D01*
X161996166Y-106173067D01*
X162029172Y-106159397D01*
X162029172Y-106159396D01*
X162029179Y-106159394D01*
X162160289Y-106071789D01*
X162271789Y-105960289D01*
X162359394Y-105829179D01*
X162419737Y-105683497D01*
X162446214Y-105550391D01*
X162450638Y-105528150D01*
X162483023Y-105466239D01*
X162484523Y-105464711D01*
X162794250Y-105154983D01*
X162796263Y-105153884D01*
X162797435Y-105151910D01*
X162826771Y-105137225D01*
X162855571Y-105121500D01*
X162858502Y-105121342D01*
X162859915Y-105120636D01*
X162895179Y-105119377D01*
X162952127Y-105125500D01*
G37*
%TD.AperFunction*%
%TA.AperFunction,Conductor*%
G36*
X175830942Y-106684185D02*
G01*
X175851584Y-106700819D01*
X176628180Y-107477415D01*
X176661665Y-107538738D01*
X176664499Y-107565096D01*
X176664499Y-108034094D01*
X176663685Y-108036863D01*
X176664374Y-108039668D01*
X176653899Y-108070193D01*
X176644814Y-108101133D01*
X176642633Y-108103022D01*
X176641696Y-108105754D01*
X176616377Y-108125773D01*
X176592010Y-108146888D01*
X176589154Y-108147298D01*
X176586889Y-108149090D01*
X176554772Y-108152242D01*
X176522852Y-108156832D01*
X176519353Y-108155718D01*
X176517353Y-108155915D01*
X176503296Y-108150608D01*
X176483970Y-108144459D01*
X176480614Y-108142740D01*
X176405397Y-108098257D01*
X176378525Y-108090449D01*
X176367971Y-108085044D01*
X176350875Y-108068829D01*
X176331018Y-108056147D01*
X176325995Y-108045231D01*
X176317277Y-108036962D01*
X176311661Y-108014077D01*
X176301813Y-107992674D01*
X176300500Y-107974679D01*
X176300500Y-107921155D01*
X176300499Y-107921153D01*
X176294262Y-107889798D01*
X176269737Y-107766503D01*
X176261039Y-107745504D01*
X176209397Y-107620827D01*
X176209390Y-107620814D01*
X176121789Y-107489711D01*
X176121786Y-107489707D01*
X176010292Y-107378213D01*
X176010288Y-107378210D01*
X175879185Y-107290609D01*
X175879172Y-107290602D01*
X175733501Y-107230264D01*
X175733489Y-107230261D01*
X175578845Y-107199500D01*
X175578842Y-107199500D01*
X175421158Y-107199500D01*
X175421155Y-107199500D01*
X175266510Y-107230261D01*
X175266498Y-107230264D01*
X175120827Y-107290602D01*
X175120814Y-107290609D01*
X174989711Y-107378210D01*
X174989707Y-107378213D01*
X174878213Y-107489707D01*
X174878210Y-107489711D01*
X174790609Y-107620814D01*
X174790602Y-107620827D01*
X174730264Y-107766498D01*
X174730261Y-107766510D01*
X174699500Y-107921153D01*
X174699500Y-108078846D01*
X174730261Y-108233489D01*
X174730264Y-108233501D01*
X174790602Y-108379172D01*
X174790609Y-108379185D01*
X174878602Y-108510874D01*
X174899480Y-108577551D01*
X174899500Y-108579765D01*
X174899500Y-108943332D01*
X174899499Y-108943350D01*
X174899499Y-109109056D01*
X174899498Y-109109056D01*
X174899829Y-109110292D01*
X174940423Y-109261787D01*
X174964517Y-109303519D01*
X175019477Y-109398714D01*
X175019481Y-109398719D01*
X175138349Y-109517587D01*
X175138355Y-109517592D01*
X175158180Y-109537417D01*
X175191665Y-109598740D01*
X175194499Y-109625098D01*
X175194499Y-110415702D01*
X175197400Y-110452568D01*
X175197401Y-110452574D01*
X175243253Y-110610394D01*
X175243254Y-110610397D01*
X175243255Y-110610399D01*
X175258725Y-110636557D01*
X175326916Y-110751863D01*
X175326922Y-110751871D01*
X175443128Y-110868077D01*
X175443132Y-110868080D01*
X175443134Y-110868082D01*
X175584601Y-110951745D01*
X175617259Y-110961233D01*
X175742425Y-110997598D01*
X175742428Y-110997598D01*
X175742430Y-110997599D01*
X175779305Y-111000501D01*
X175779313Y-111000501D01*
X176210685Y-111000501D01*
X176210693Y-111000501D01*
X176247568Y-110997599D01*
X176247570Y-110997598D01*
X176247572Y-110997598D01*
X176289190Y-110985506D01*
X176405397Y-110951745D01*
X176546864Y-110868082D01*
X176546869Y-110868076D01*
X176553030Y-110863299D01*
X176554932Y-110865751D01*
X176603578Y-110839156D01*
X176673273Y-110844105D01*
X176694529Y-110854423D01*
X176707192Y-110862140D01*
X176713134Y-110868082D01*
X176841800Y-110944174D01*
X176842485Y-110944592D01*
X176865463Y-110969865D01*
X176888759Y-110994815D01*
X176888911Y-110995655D01*
X176889488Y-110996289D01*
X176895158Y-111029995D01*
X176901263Y-111063556D01*
X176900937Y-111064346D01*
X176901079Y-111065190D01*
X176887630Y-111096601D01*
X176874618Y-111128146D01*
X176873676Y-111129195D01*
X176873580Y-111129421D01*
X176873310Y-111129603D01*
X176865636Y-111138159D01*
X174712181Y-113291615D01*
X174650858Y-113325100D01*
X174581166Y-113320116D01*
X174525233Y-113278244D01*
X174500816Y-113212780D01*
X174500500Y-113203934D01*
X174500500Y-112636558D01*
X174500499Y-112636557D01*
X174500234Y-112634208D01*
X174492965Y-112569688D01*
X174485038Y-112499328D01*
X174459994Y-112427757D01*
X174424156Y-112325337D01*
X174326085Y-112169258D01*
X174244508Y-112087681D01*
X174211023Y-112026358D01*
X174216007Y-111956666D01*
X174244508Y-111912319D01*
X174278617Y-111878210D01*
X174326085Y-111830742D01*
X174424156Y-111674663D01*
X174485037Y-111500674D01*
X174485037Y-111500673D01*
X174485038Y-111500671D01*
X174495572Y-111407173D01*
X174500500Y-111363438D01*
X174500500Y-110636562D01*
X174494925Y-110587090D01*
X174485038Y-110499328D01*
X174455773Y-110415695D01*
X174424156Y-110325337D01*
X174326085Y-110169258D01*
X174244155Y-110087328D01*
X174210670Y-110026005D01*
X174215654Y-109956313D01*
X174244155Y-109911966D01*
X174325691Y-109830429D01*
X174423703Y-109674444D01*
X174484547Y-109500560D01*
X174484548Y-109500554D01*
X174499999Y-109363419D01*
X174500000Y-109363415D01*
X174500000Y-109250001D01*
X172649000Y-109250001D01*
X172581961Y-109230316D01*
X172536206Y-109177512D01*
X172525000Y-109126001D01*
X172525000Y-108874001D01*
X172544685Y-108806962D01*
X172597489Y-108761207D01*
X172649000Y-108750001D01*
X174500000Y-108750001D01*
X174500000Y-108636586D01*
X174499999Y-108636582D01*
X174484548Y-108499447D01*
X174484547Y-108499441D01*
X174423703Y-108325557D01*
X174325691Y-108169572D01*
X174244154Y-108088035D01*
X174210669Y-108026712D01*
X174215653Y-107957020D01*
X174244154Y-107912673D01*
X174276863Y-107879964D01*
X174326085Y-107830742D01*
X174424156Y-107674663D01*
X174485037Y-107500674D01*
X174485037Y-107500673D01*
X174485038Y-107500671D01*
X174496810Y-107396186D01*
X174500500Y-107363438D01*
X174500500Y-106788500D01*
X174520185Y-106721461D01*
X174572989Y-106675706D01*
X174624500Y-106664500D01*
X175763903Y-106664500D01*
X175830942Y-106684185D01*
G37*
%TD.AperFunction*%
%TA.AperFunction,Conductor*%
G36*
X182725551Y-101397950D02*
G01*
X182751911Y-101399836D01*
X182760964Y-101405654D01*
X182768004Y-101407186D01*
X182796258Y-101428337D01*
X182889707Y-101521786D01*
X182889711Y-101521789D01*
X183020814Y-101609390D01*
X183020827Y-101609397D01*
X183128505Y-101653998D01*
X183166503Y-101669737D01*
X183230345Y-101682436D01*
X183321849Y-101700638D01*
X183383760Y-101733023D01*
X183385339Y-101734574D01*
X188515139Y-106864374D01*
X188515149Y-106864385D01*
X188519479Y-106868715D01*
X188519480Y-106868716D01*
X188631284Y-106980520D01*
X188702765Y-107021789D01*
X188768215Y-107059577D01*
X188920943Y-107100501D01*
X188920946Y-107100501D01*
X189086653Y-107100501D01*
X189086669Y-107100500D01*
X195845932Y-107100500D01*
X195912971Y-107120185D01*
X195956416Y-107168203D01*
X196016657Y-107286433D01*
X196155483Y-107477510D01*
X196322490Y-107644517D01*
X196513567Y-107783343D01*
X196605649Y-107830261D01*
X196724003Y-107890566D01*
X196724005Y-107890566D01*
X196724008Y-107890568D01*
X196812350Y-107919272D01*
X196948631Y-107963553D01*
X197181903Y-108000500D01*
X197181908Y-108000500D01*
X197418097Y-108000500D01*
X197651368Y-107963553D01*
X197706344Y-107945690D01*
X197875992Y-107890568D01*
X198086433Y-107783343D01*
X198277510Y-107644517D01*
X198287819Y-107634208D01*
X198349142Y-107600723D01*
X198418834Y-107605707D01*
X198474767Y-107647579D01*
X198499184Y-107713043D01*
X198499500Y-107721889D01*
X198499500Y-110278111D01*
X198479815Y-110345150D01*
X198427011Y-110390905D01*
X198357853Y-110400849D01*
X198294297Y-110371824D01*
X198287819Y-110365792D01*
X198277512Y-110355485D01*
X198277510Y-110355483D01*
X198086433Y-110216657D01*
X198054996Y-110200639D01*
X197875996Y-110109433D01*
X197651368Y-110036446D01*
X197418097Y-109999500D01*
X197418092Y-109999500D01*
X197181908Y-109999500D01*
X197181903Y-109999500D01*
X196948631Y-110036446D01*
X196724003Y-110109433D01*
X196513566Y-110216657D01*
X196467674Y-110250000D01*
X196322490Y-110355483D01*
X196322488Y-110355485D01*
X196322487Y-110355485D01*
X196155485Y-110522487D01*
X196155485Y-110522488D01*
X196155483Y-110522490D01*
X196102339Y-110595636D01*
X196016657Y-110713566D01*
X195909433Y-110924003D01*
X195836446Y-111148631D01*
X195799500Y-111381902D01*
X195799500Y-111618097D01*
X195836447Y-111851369D01*
X195836447Y-111851372D01*
X195877450Y-111977563D01*
X195877884Y-111992774D01*
X195883203Y-112007033D01*
X195878861Y-112026990D01*
X195879445Y-112047404D01*
X195871357Y-112061490D01*
X195868352Y-112075306D01*
X195847202Y-112103561D01*
X195786585Y-112164180D01*
X195725262Y-112197666D01*
X195698902Y-112200500D01*
X184320784Y-112200500D01*
X184253745Y-112180815D01*
X184207990Y-112128011D01*
X184198046Y-112058853D01*
X184202851Y-112038187D01*
X184263553Y-111851368D01*
X184273177Y-111790606D01*
X184300500Y-111618097D01*
X184300500Y-111381902D01*
X184263553Y-111148631D01*
X184214464Y-110997552D01*
X184190568Y-110924008D01*
X184190566Y-110924005D01*
X184190566Y-110924003D01*
X184119551Y-110784629D01*
X184083343Y-110713567D01*
X183944517Y-110522490D01*
X183777510Y-110355483D01*
X183770401Y-110350318D01*
X183727735Y-110294988D01*
X183721756Y-110225375D01*
X183754362Y-110163580D01*
X183770401Y-110149682D01*
X183770500Y-110149609D01*
X183777510Y-110144517D01*
X183944517Y-109977510D01*
X184083343Y-109786433D01*
X184190568Y-109575992D01*
X184263553Y-109351368D01*
X184270202Y-109309390D01*
X184300500Y-109118097D01*
X184300500Y-108881902D01*
X184263553Y-108648631D01*
X184222132Y-108521153D01*
X184190568Y-108424008D01*
X184190566Y-108424005D01*
X184190566Y-108424003D01*
X184101421Y-108249048D01*
X184083343Y-108213567D01*
X184013793Y-108117840D01*
X183990314Y-108052036D01*
X184006139Y-107983982D01*
X184039801Y-107945689D01*
X184042328Y-107943796D01*
X184042331Y-107943796D01*
X184157546Y-107857546D01*
X184243796Y-107742331D01*
X184294091Y-107607483D01*
X184300500Y-107547873D01*
X184300499Y-105452128D01*
X184294091Y-105392517D01*
X184293799Y-105391735D01*
X184243797Y-105257671D01*
X184243793Y-105257664D01*
X184157547Y-105142455D01*
X184157544Y-105142452D01*
X184042335Y-105056206D01*
X184042328Y-105056202D01*
X183907482Y-105005908D01*
X183907483Y-105005908D01*
X183847883Y-104999501D01*
X183847881Y-104999500D01*
X183847873Y-104999500D01*
X183847864Y-104999500D01*
X181752129Y-104999500D01*
X181752123Y-104999501D01*
X181692516Y-105005908D01*
X181557671Y-105056202D01*
X181557664Y-105056206D01*
X181442455Y-105142452D01*
X181442452Y-105142455D01*
X181356206Y-105257664D01*
X181356202Y-105257671D01*
X181305908Y-105392517D01*
X181299986Y-105447609D01*
X181299501Y-105452123D01*
X181299500Y-105452135D01*
X181299500Y-107547870D01*
X181299501Y-107547876D01*
X181305908Y-107607483D01*
X181356202Y-107742328D01*
X181356206Y-107742335D01*
X181442452Y-107857544D01*
X181442455Y-107857547D01*
X181560198Y-107945690D01*
X181602069Y-108001623D01*
X181607053Y-108071315D01*
X181586205Y-108117841D01*
X181516659Y-108213563D01*
X181409433Y-108424003D01*
X181336446Y-108648631D01*
X181299500Y-108881902D01*
X181299500Y-109118097D01*
X181336446Y-109351368D01*
X181409433Y-109575996D01*
X181496282Y-109746445D01*
X181516657Y-109786433D01*
X181655483Y-109977510D01*
X181655485Y-109977512D01*
X181822490Y-110144517D01*
X181829603Y-110149685D01*
X181872266Y-110205017D01*
X181878242Y-110274630D01*
X181845634Y-110336424D01*
X181829603Y-110350315D01*
X181822490Y-110355482D01*
X181655485Y-110522487D01*
X181655485Y-110522488D01*
X181655483Y-110522490D01*
X181602339Y-110595636D01*
X181516657Y-110713566D01*
X181409433Y-110924003D01*
X181336446Y-111148631D01*
X181299500Y-111381902D01*
X181299500Y-111555872D01*
X181279815Y-111622911D01*
X181227011Y-111668666D01*
X181157853Y-111678610D01*
X181094297Y-111649585D01*
X181087819Y-111643553D01*
X180441818Y-110997552D01*
X180427114Y-110970624D01*
X180410522Y-110944806D01*
X180409630Y-110938605D01*
X180408333Y-110936229D01*
X180405499Y-110909871D01*
X180405499Y-110870809D01*
X180425184Y-110803770D01*
X180441819Y-110783127D01*
X180473075Y-110751871D01*
X180473080Y-110751866D01*
X180556743Y-110610399D01*
X180602597Y-110452570D01*
X180605499Y-110415695D01*
X180605499Y-108634307D01*
X180602597Y-108597432D01*
X180601769Y-108594583D01*
X180565497Y-108469735D01*
X180556743Y-108439603D01*
X180473080Y-108298136D01*
X180473078Y-108298134D01*
X180473075Y-108298130D01*
X180441818Y-108266873D01*
X180408333Y-108205550D01*
X180405499Y-108179192D01*
X180405499Y-103695096D01*
X180425184Y-103628057D01*
X180441813Y-103607420D01*
X182620896Y-101428336D01*
X182628841Y-101423998D01*
X182634267Y-101416751D01*
X182659026Y-101407516D01*
X182682219Y-101394852D01*
X182691248Y-101395497D01*
X182699731Y-101392334D01*
X182725551Y-101397950D01*
G37*
%TD.AperFunction*%
%TA.AperFunction,Conductor*%
G36*
X158842539Y-105095185D02*
G01*
X158888294Y-105147989D01*
X158899500Y-105199500D01*
X158899500Y-105278846D01*
X158930261Y-105433489D01*
X158930264Y-105433501D01*
X158990602Y-105579172D01*
X158990609Y-105579185D01*
X159078210Y-105710288D01*
X159078213Y-105710292D01*
X159097182Y-105729261D01*
X159130667Y-105790584D01*
X159125683Y-105860276D01*
X159083811Y-105916209D01*
X159018347Y-105940626D01*
X158968547Y-105933984D01*
X158815559Y-105880452D01*
X158815553Y-105880451D01*
X158678418Y-105865000D01*
X157725000Y-105865000D01*
X157725000Y-106876000D01*
X157705315Y-106943039D01*
X157652511Y-106988794D01*
X157601000Y-107000000D01*
X157475000Y-107000000D01*
X157475000Y-107126000D01*
X157455315Y-107193039D01*
X157402511Y-107238794D01*
X157351000Y-107250000D01*
X155500000Y-107250000D01*
X155500000Y-107363418D01*
X155515451Y-107500553D01*
X155515452Y-107500559D01*
X155576296Y-107674443D01*
X155674308Y-107830428D01*
X155755846Y-107911966D01*
X155789331Y-107973289D01*
X155784347Y-108042981D01*
X155755846Y-108087328D01*
X155673915Y-108169258D01*
X155575845Y-108325335D01*
X155514961Y-108499329D01*
X155499500Y-108636558D01*
X155499500Y-109363443D01*
X155514961Y-109500672D01*
X155575845Y-109674666D01*
X155673915Y-109830743D01*
X155755491Y-109912319D01*
X155788976Y-109973642D01*
X155783992Y-110043334D01*
X155755492Y-110087681D01*
X155673914Y-110169259D01*
X155575845Y-110325334D01*
X155514961Y-110499328D01*
X155499500Y-110636557D01*
X155499500Y-111363442D01*
X155514961Y-111500671D01*
X155575845Y-111674665D01*
X155614346Y-111735939D01*
X155633346Y-111803176D01*
X155612978Y-111870011D01*
X155559710Y-111915225D01*
X155490454Y-111924462D01*
X155427198Y-111894791D01*
X155421671Y-111889592D01*
X155410292Y-111878213D01*
X155410288Y-111878210D01*
X155279185Y-111790609D01*
X155279172Y-111790602D01*
X155133501Y-111730264D01*
X155133489Y-111730261D01*
X154978845Y-111699500D01*
X154978842Y-111699500D01*
X154827500Y-111699500D01*
X154760461Y-111679815D01*
X154714706Y-111627011D01*
X154703500Y-111575500D01*
X154703500Y-108912059D01*
X154703501Y-108912046D01*
X154703501Y-108743945D01*
X154703501Y-108743943D01*
X154662577Y-108591215D01*
X154627364Y-108530225D01*
X154583520Y-108454284D01*
X154471716Y-108342480D01*
X154471715Y-108342479D01*
X154467385Y-108338149D01*
X154467374Y-108338139D01*
X154303762Y-108174527D01*
X154270277Y-108113204D01*
X154270843Y-108060478D01*
X154270651Y-108060448D01*
X154270857Y-108059143D01*
X154270871Y-108057891D01*
X154271409Y-108055646D01*
X154271413Y-108055636D01*
X154302500Y-107859361D01*
X154302500Y-107660639D01*
X154271413Y-107464364D01*
X154264249Y-107442318D01*
X154263446Y-107414197D01*
X154259443Y-107386353D01*
X154262462Y-107379741D01*
X154262255Y-107372478D01*
X154276779Y-107348391D01*
X154288468Y-107322797D01*
X154294582Y-107318867D01*
X154298335Y-107312645D01*
X154323577Y-107300233D01*
X154347246Y-107285023D01*
X154357517Y-107283546D01*
X154361036Y-107281816D01*
X154382181Y-107280000D01*
X154608831Y-107280000D01*
X154608847Y-107280001D01*
X154616443Y-107280001D01*
X154774554Y-107280001D01*
X154774557Y-107280001D01*
X154927285Y-107239077D01*
X155019317Y-107185942D01*
X155064216Y-107160020D01*
X155176020Y-107048216D01*
X155176020Y-107048214D01*
X155186224Y-107038011D01*
X155186227Y-107038006D01*
X155437915Y-106786318D01*
X155499238Y-106752834D01*
X155525596Y-106750000D01*
X157225000Y-106750000D01*
X157225000Y-105865000D01*
X156658597Y-105865000D01*
X156591558Y-105845315D01*
X156545803Y-105792511D01*
X156535859Y-105723353D01*
X156564884Y-105659797D01*
X156570908Y-105653327D01*
X156914664Y-105309571D01*
X156975985Y-105276088D01*
X156978152Y-105275637D01*
X156978841Y-105275500D01*
X156978842Y-105275500D01*
X157133497Y-105244737D01*
X157279179Y-105184394D01*
X157300446Y-105170184D01*
X157410875Y-105096398D01*
X157477553Y-105075520D01*
X157479766Y-105075500D01*
X158775500Y-105075500D01*
X158842539Y-105095185D01*
G37*
%TD.AperFunction*%
%TA.AperFunction,Conductor*%
G36*
X159555743Y-107650968D02*
G01*
X159594115Y-107709357D01*
X159599500Y-107745504D01*
X159599500Y-108253556D01*
X159579815Y-108320595D01*
X159527011Y-108366350D01*
X159457853Y-108376294D01*
X159394297Y-108347269D01*
X159370507Y-108319528D01*
X159276089Y-108169264D01*
X159276084Y-108169258D01*
X159194154Y-108087328D01*
X159160669Y-108026005D01*
X159165653Y-107956313D01*
X159194154Y-107911966D01*
X159275691Y-107830428D01*
X159370506Y-107679532D01*
X159422841Y-107633241D01*
X159491894Y-107622593D01*
X159555743Y-107650968D01*
G37*
%TD.AperFunction*%
%TA.AperFunction,Conductor*%
G36*
X180490000Y-100457661D02*
G01*
X180517259Y-100559394D01*
X180569920Y-100650606D01*
X180644394Y-100725080D01*
X180735606Y-100777741D01*
X180837339Y-100805000D01*
X180843553Y-100805000D01*
X180164076Y-101484474D01*
X180208650Y-101516859D01*
X180390970Y-101609755D01*
X180462718Y-101633068D01*
X180520394Y-101672505D01*
X180547592Y-101736864D01*
X180535677Y-101805710D01*
X180512081Y-101838680D01*
X179436285Y-102914478D01*
X179324480Y-103026282D01*
X179324476Y-103026287D01*
X179282799Y-103098476D01*
X179282799Y-103098477D01*
X179245422Y-103163214D01*
X179242264Y-103175000D01*
X179204498Y-103315943D01*
X179204498Y-103315945D01*
X179204498Y-103484046D01*
X179204499Y-103484059D01*
X179204499Y-108034094D01*
X179184814Y-108101133D01*
X179132010Y-108146888D01*
X179062852Y-108156832D01*
X179017379Y-108140826D01*
X178945399Y-108098258D01*
X178945392Y-108098255D01*
X178787572Y-108052403D01*
X178787566Y-108052402D01*
X178750700Y-108049501D01*
X178750693Y-108049501D01*
X178319305Y-108049501D01*
X178319297Y-108049501D01*
X178282431Y-108052402D01*
X178282425Y-108052403D01*
X178124605Y-108098255D01*
X178124598Y-108098258D01*
X178052619Y-108140826D01*
X177984895Y-108158009D01*
X177918633Y-108135849D01*
X177874870Y-108081382D01*
X177865499Y-108034094D01*
X177865499Y-107185942D01*
X177849438Y-107126000D01*
X177840888Y-107094092D01*
X177824576Y-107033214D01*
X177769336Y-106937536D01*
X177745519Y-106896283D01*
X177633715Y-106784479D01*
X177633712Y-106784477D01*
X176551590Y-105702355D01*
X176551588Y-105702352D01*
X176432717Y-105583481D01*
X176432716Y-105583480D01*
X176338079Y-105528842D01*
X176338078Y-105528841D01*
X176295783Y-105504422D01*
X176218495Y-105483713D01*
X176143057Y-105463499D01*
X175984943Y-105463499D01*
X175977347Y-105463499D01*
X175977331Y-105463500D01*
X168530098Y-105463500D01*
X168508852Y-105457261D01*
X168486766Y-105455682D01*
X168475982Y-105447609D01*
X168463059Y-105443815D01*
X168448560Y-105427082D01*
X168430832Y-105413812D01*
X168426123Y-105401189D01*
X168417304Y-105391011D01*
X168414152Y-105369095D01*
X168406414Y-105348348D01*
X168409277Y-105335185D01*
X168407360Y-105321853D01*
X168416558Y-105301711D01*
X168421265Y-105280074D01*
X168434535Y-105262347D01*
X168436385Y-105258297D01*
X168442416Y-105251820D01*
X168456916Y-105237320D01*
X168559520Y-105134716D01*
X168559521Y-105134713D01*
X168745478Y-104948755D01*
X168806799Y-104915272D01*
X168871473Y-104918506D01*
X168913757Y-104932246D01*
X169123713Y-104965500D01*
X169123714Y-104965500D01*
X169336286Y-104965500D01*
X169336287Y-104965500D01*
X169546243Y-104932246D01*
X169748412Y-104866557D01*
X169937816Y-104770051D01*
X169985551Y-104735370D01*
X170109786Y-104645109D01*
X170109788Y-104645106D01*
X170109792Y-104645104D01*
X170260104Y-104494792D01*
X170260106Y-104494788D01*
X170260109Y-104494786D01*
X170385048Y-104322820D01*
X170385047Y-104322820D01*
X170385051Y-104322816D01*
X170389514Y-104314054D01*
X170437488Y-104263259D01*
X170505308Y-104246463D01*
X170571444Y-104268999D01*
X170610486Y-104314056D01*
X170614951Y-104322820D01*
X170739890Y-104494786D01*
X170890213Y-104645109D01*
X171062179Y-104770048D01*
X171062181Y-104770049D01*
X171062184Y-104770051D01*
X171251588Y-104866557D01*
X171453757Y-104932246D01*
X171663713Y-104965500D01*
X171663714Y-104965500D01*
X171876286Y-104965500D01*
X171876287Y-104965500D01*
X172086243Y-104932246D01*
X172288412Y-104866557D01*
X172477816Y-104770051D01*
X172564478Y-104707088D01*
X172649784Y-104645110D01*
X172649784Y-104645109D01*
X172649792Y-104645104D01*
X172763717Y-104531178D01*
X172825036Y-104497696D01*
X172894728Y-104502680D01*
X172950662Y-104544551D01*
X172967577Y-104575528D01*
X173016646Y-104707088D01*
X173016649Y-104707093D01*
X173102809Y-104822187D01*
X173102812Y-104822190D01*
X173217906Y-104908350D01*
X173217913Y-104908354D01*
X173352620Y-104958596D01*
X173352627Y-104958598D01*
X173412155Y-104964999D01*
X173412172Y-104965000D01*
X174060000Y-104965000D01*
X174060000Y-104048012D01*
X174117007Y-104080925D01*
X174244174Y-104115000D01*
X174375826Y-104115000D01*
X174502993Y-104080925D01*
X174560000Y-104048012D01*
X174560000Y-104965000D01*
X175207828Y-104965000D01*
X175207844Y-104964999D01*
X175267372Y-104958598D01*
X175267379Y-104958596D01*
X175402086Y-104908354D01*
X175402093Y-104908350D01*
X175517187Y-104822190D01*
X175517190Y-104822187D01*
X175603350Y-104707093D01*
X175603354Y-104707086D01*
X175653596Y-104572379D01*
X175653598Y-104572372D01*
X175659999Y-104512844D01*
X175660000Y-104512827D01*
X175660000Y-103865000D01*
X174743012Y-103865000D01*
X174775925Y-103807993D01*
X174810000Y-103680826D01*
X174810000Y-103549174D01*
X174775925Y-103422007D01*
X174743012Y-103365000D01*
X175660000Y-103365000D01*
X175660000Y-102717172D01*
X175659999Y-102717155D01*
X175653598Y-102657627D01*
X175653596Y-102657620D01*
X175603354Y-102522913D01*
X175603350Y-102522906D01*
X175517190Y-102407812D01*
X175517187Y-102407809D01*
X175402093Y-102321649D01*
X175402086Y-102321645D01*
X175267379Y-102271403D01*
X175267372Y-102271401D01*
X175207844Y-102265000D01*
X174560000Y-102265000D01*
X174560000Y-103181988D01*
X174502993Y-103149075D01*
X174375826Y-103115000D01*
X174244174Y-103115000D01*
X174117007Y-103149075D01*
X174060000Y-103181988D01*
X174060000Y-102265000D01*
X173412155Y-102265000D01*
X173352627Y-102271401D01*
X173352620Y-102271403D01*
X173217913Y-102321645D01*
X173217906Y-102321649D01*
X173102812Y-102407809D01*
X173102809Y-102407812D01*
X173016649Y-102522906D01*
X173016646Y-102522912D01*
X172967577Y-102654471D01*
X172925705Y-102710404D01*
X172860241Y-102734821D01*
X172791968Y-102719969D01*
X172763714Y-102698818D01*
X172649786Y-102584890D01*
X172477820Y-102459951D01*
X172288414Y-102363444D01*
X172288413Y-102363443D01*
X172288412Y-102363443D01*
X172086243Y-102297754D01*
X172086241Y-102297753D01*
X172086240Y-102297753D01*
X171924957Y-102272208D01*
X171876287Y-102264500D01*
X171663713Y-102264500D01*
X171507227Y-102289284D01*
X171437934Y-102280329D01*
X171400149Y-102254492D01*
X171015041Y-101869384D01*
X170981556Y-101808061D01*
X170986540Y-101738369D01*
X171028412Y-101682436D01*
X171064403Y-101663772D01*
X171094484Y-101653998D01*
X171229219Y-101610220D01*
X171411610Y-101517287D01*
X171506168Y-101448587D01*
X171577213Y-101396971D01*
X171577215Y-101396968D01*
X171577219Y-101396966D01*
X171721966Y-101252219D01*
X171721968Y-101252215D01*
X171721971Y-101252213D01*
X171842284Y-101086614D01*
X171842286Y-101086611D01*
X171842287Y-101086610D01*
X171889516Y-100993917D01*
X171937489Y-100943123D01*
X172005310Y-100926328D01*
X172071445Y-100948865D01*
X172110483Y-100993917D01*
X172121170Y-101014890D01*
X172157715Y-101086614D01*
X172278028Y-101252213D01*
X172422786Y-101396971D01*
X172543226Y-101484474D01*
X172588390Y-101517287D01*
X172681051Y-101564500D01*
X172770776Y-101610218D01*
X172770778Y-101610218D01*
X172770781Y-101610220D01*
X172841100Y-101633068D01*
X172965465Y-101673477D01*
X173022030Y-101682436D01*
X173167648Y-101705500D01*
X173167649Y-101705500D01*
X173372351Y-101705500D01*
X173372352Y-101705500D01*
X173574534Y-101673477D01*
X173769219Y-101610220D01*
X173951610Y-101517287D01*
X174046168Y-101448587D01*
X174117213Y-101396971D01*
X174117215Y-101396968D01*
X174117219Y-101396966D01*
X174261966Y-101252219D01*
X174261968Y-101252215D01*
X174261971Y-101252213D01*
X174382284Y-101086614D01*
X174382286Y-101086611D01*
X174382287Y-101086610D01*
X174429516Y-100993917D01*
X174477489Y-100943123D01*
X174545310Y-100926328D01*
X174611445Y-100948865D01*
X174650483Y-100993917D01*
X174661170Y-101014890D01*
X174697715Y-101086614D01*
X174818028Y-101252213D01*
X174962786Y-101396971D01*
X175083226Y-101484474D01*
X175128390Y-101517287D01*
X175221051Y-101564500D01*
X175310776Y-101610218D01*
X175310778Y-101610218D01*
X175310781Y-101610220D01*
X175381100Y-101633068D01*
X175505465Y-101673477D01*
X175562030Y-101682436D01*
X175707648Y-101705500D01*
X175707649Y-101705500D01*
X175912351Y-101705500D01*
X175912352Y-101705500D01*
X176114534Y-101673477D01*
X176309219Y-101610220D01*
X176491610Y-101517287D01*
X176586168Y-101448587D01*
X176657213Y-101396971D01*
X176657215Y-101396968D01*
X176657219Y-101396966D01*
X176801966Y-101252219D01*
X176801968Y-101252215D01*
X176801971Y-101252213D01*
X176922284Y-101086614D01*
X176922286Y-101086611D01*
X176922287Y-101086610D01*
X176969516Y-100993917D01*
X177017489Y-100943123D01*
X177085310Y-100926328D01*
X177151445Y-100948865D01*
X177190483Y-100993917D01*
X177201170Y-101014890D01*
X177237715Y-101086614D01*
X177358028Y-101252213D01*
X177502786Y-101396971D01*
X177623226Y-101484474D01*
X177668390Y-101517287D01*
X177761051Y-101564500D01*
X177850776Y-101610218D01*
X177850778Y-101610218D01*
X177850781Y-101610220D01*
X177921100Y-101633068D01*
X178045465Y-101673477D01*
X178102030Y-101682436D01*
X178247648Y-101705500D01*
X178247649Y-101705500D01*
X178452351Y-101705500D01*
X178452352Y-101705500D01*
X178654534Y-101673477D01*
X178849219Y-101610220D01*
X179031610Y-101517287D01*
X179126168Y-101448587D01*
X179197213Y-101396971D01*
X179197215Y-101396968D01*
X179197219Y-101396966D01*
X179341966Y-101252219D01*
X179341968Y-101252215D01*
X179341971Y-101252213D01*
X179432550Y-101127540D01*
X179462287Y-101086610D01*
X179509795Y-100993369D01*
X179557769Y-100942573D01*
X179625590Y-100925778D01*
X179691725Y-100948315D01*
X179730765Y-100993369D01*
X179778141Y-101086350D01*
X179778147Y-101086359D01*
X179810523Y-101130921D01*
X179810524Y-101130922D01*
X180490000Y-100451446D01*
X180490000Y-100457661D01*
G37*
%TD.AperFunction*%
%TA.AperFunction,Conductor*%
G36*
X198442539Y-91720185D02*
G01*
X198488294Y-91772989D01*
X198499500Y-91824500D01*
X198499500Y-105278111D01*
X198479815Y-105345150D01*
X198427011Y-105390905D01*
X198357853Y-105400849D01*
X198294297Y-105371824D01*
X198287819Y-105365792D01*
X198277512Y-105355485D01*
X198277510Y-105355483D01*
X198086433Y-105216657D01*
X198059349Y-105202857D01*
X197875996Y-105109433D01*
X197651368Y-105036446D01*
X197418097Y-104999500D01*
X197418092Y-104999500D01*
X197181908Y-104999500D01*
X197181903Y-104999500D01*
X196948631Y-105036446D01*
X196724003Y-105109433D01*
X196513566Y-105216657D01*
X196428983Y-105278111D01*
X196322490Y-105355483D01*
X196322488Y-105355485D01*
X196322487Y-105355485D01*
X196155485Y-105522487D01*
X196155485Y-105522488D01*
X196155483Y-105522490D01*
X196118670Y-105573159D01*
X196016657Y-105713566D01*
X196002525Y-105741302D01*
X195957747Y-105829185D01*
X195956417Y-105831795D01*
X195908442Y-105882591D01*
X195845932Y-105899500D01*
X189300097Y-105899500D01*
X189233058Y-105879815D01*
X189212416Y-105863181D01*
X188438674Y-105089439D01*
X188405189Y-105028116D01*
X188410173Y-104958424D01*
X188452045Y-104902491D01*
X188517509Y-104878074D01*
X188569690Y-104885577D01*
X188592516Y-104894091D01*
X188599444Y-104894835D01*
X188652127Y-104900500D01*
X191947872Y-104900499D01*
X192007483Y-104894091D01*
X192142331Y-104843796D01*
X192257546Y-104757546D01*
X192343796Y-104642331D01*
X192394091Y-104507483D01*
X192400500Y-104447873D01*
X192400499Y-102352128D01*
X192394091Y-102292517D01*
X192392885Y-102289284D01*
X192343797Y-102157671D01*
X192343793Y-102157664D01*
X192257547Y-102042455D01*
X192257544Y-102042452D01*
X192142335Y-101956206D01*
X192142328Y-101956202D01*
X192007482Y-101905908D01*
X192007483Y-101905908D01*
X191947883Y-101899501D01*
X191947881Y-101899500D01*
X191947873Y-101899500D01*
X191947864Y-101899500D01*
X188652129Y-101899500D01*
X188652123Y-101899501D01*
X188592516Y-101905908D01*
X188457671Y-101956202D01*
X188457664Y-101956206D01*
X188342455Y-102042452D01*
X188342452Y-102042455D01*
X188256206Y-102157664D01*
X188256202Y-102157671D01*
X188205908Y-102292517D01*
X188199501Y-102352116D01*
X188199501Y-102352123D01*
X188199500Y-102352135D01*
X188199500Y-104447870D01*
X188199501Y-104447876D01*
X188205908Y-104507483D01*
X188214423Y-104530311D01*
X188219407Y-104600003D01*
X188185922Y-104661326D01*
X188124598Y-104694810D01*
X188054907Y-104689825D01*
X188010560Y-104661325D01*
X184234574Y-100885339D01*
X184201089Y-100824016D01*
X184200638Y-100821849D01*
X184175568Y-100695818D01*
X184169737Y-100666503D01*
X184152394Y-100624632D01*
X184109397Y-100520827D01*
X184109390Y-100520814D01*
X184021789Y-100389711D01*
X184021786Y-100389707D01*
X183928336Y-100296257D01*
X183894851Y-100234934D01*
X183899835Y-100165242D01*
X183928332Y-100120900D01*
X185906978Y-98142254D01*
X185968297Y-98108772D01*
X186037989Y-98113756D01*
X186093922Y-98155628D01*
X186118146Y-98218715D01*
X186118908Y-98227103D01*
X186118909Y-98227107D01*
X186169481Y-98389396D01*
X186257427Y-98534877D01*
X186359515Y-98636965D01*
X186393000Y-98698288D01*
X186388016Y-98767980D01*
X186359515Y-98812327D01*
X186257031Y-98914810D01*
X186257030Y-98914811D01*
X186169022Y-99060393D01*
X186118413Y-99222807D01*
X186112000Y-99293386D01*
X186112000Y-99806613D01*
X186118413Y-99877192D01*
X186118413Y-99877194D01*
X186118414Y-99877196D01*
X186169022Y-100039606D01*
X186228008Y-100137181D01*
X186257030Y-100185188D01*
X186377311Y-100305469D01*
X186377313Y-100305470D01*
X186377315Y-100305472D01*
X186522894Y-100393478D01*
X186685304Y-100444086D01*
X186755884Y-100450500D01*
X186755887Y-100450500D01*
X187419113Y-100450500D01*
X187419116Y-100450500D01*
X187489696Y-100444086D01*
X187652106Y-100393478D01*
X187721553Y-100351495D01*
X187789106Y-100333659D01*
X187848821Y-100350879D01*
X187977102Y-100426744D01*
X188006872Y-100435393D01*
X188134926Y-100472597D01*
X188134929Y-100472597D01*
X188134931Y-100472598D01*
X188171806Y-100475500D01*
X188171814Y-100475500D01*
X189478186Y-100475500D01*
X189478194Y-100475500D01*
X189515069Y-100472598D01*
X189515071Y-100472597D01*
X189515073Y-100472597D01*
X189591130Y-100450500D01*
X189672898Y-100426744D01*
X189814365Y-100343081D01*
X189930581Y-100226865D01*
X190014244Y-100085398D01*
X190052066Y-99955215D01*
X190060097Y-99927573D01*
X190060098Y-99927567D01*
X190060261Y-99925500D01*
X190063000Y-99890694D01*
X190063000Y-99649500D01*
X190082685Y-99582461D01*
X190135489Y-99536706D01*
X190187000Y-99525500D01*
X191353186Y-99525500D01*
X191353194Y-99525500D01*
X191390069Y-99522598D01*
X191390071Y-99522597D01*
X191390073Y-99522597D01*
X191444886Y-99506672D01*
X191547898Y-99476744D01*
X191689365Y-99393081D01*
X191805581Y-99276865D01*
X191889244Y-99135398D01*
X191889245Y-99135393D01*
X191889248Y-99135388D01*
X191935097Y-98977573D01*
X191935098Y-98977567D01*
X191935714Y-98969737D01*
X191938000Y-98940694D01*
X191938000Y-98509306D01*
X191935098Y-98472431D01*
X191889244Y-98314602D01*
X191805581Y-98173135D01*
X191805579Y-98173133D01*
X191805576Y-98173129D01*
X191689370Y-98056923D01*
X191689362Y-98056917D01*
X191653800Y-98035886D01*
X191606117Y-97984817D01*
X191593613Y-97916076D01*
X191595301Y-97904974D01*
X191600500Y-97878842D01*
X191600500Y-97721158D01*
X191600500Y-97721155D01*
X191600499Y-97721153D01*
X191585112Y-97643797D01*
X191569737Y-97566503D01*
X191569497Y-97565923D01*
X191569461Y-97565597D01*
X191567969Y-97560676D01*
X191568902Y-97560392D01*
X191562028Y-97496454D01*
X191593303Y-97433975D01*
X191611167Y-97418157D01*
X191647218Y-97391966D01*
X191791965Y-97247219D01*
X191791967Y-97247215D01*
X191791970Y-97247213D01*
X191858602Y-97155500D01*
X191912286Y-97081610D01*
X192005219Y-96899219D01*
X192068476Y-96704534D01*
X192100499Y-96502352D01*
X192100499Y-96297648D01*
X192071883Y-96116978D01*
X192068476Y-96095465D01*
X192024322Y-95959575D01*
X192005219Y-95900781D01*
X192005217Y-95900778D01*
X192005217Y-95900776D01*
X191959786Y-95811614D01*
X191912286Y-95718390D01*
X191863910Y-95651805D01*
X191791970Y-95552786D01*
X191647212Y-95408028D01*
X191481612Y-95287715D01*
X191481611Y-95287714D01*
X191481609Y-95287713D01*
X191417506Y-95255051D01*
X191299222Y-95194781D01*
X191104533Y-95131522D01*
X190929994Y-95103878D01*
X190902351Y-95099500D01*
X190697647Y-95099500D01*
X190673328Y-95103351D01*
X190495464Y-95131522D01*
X190300775Y-95194781D01*
X190118385Y-95287715D01*
X189952785Y-95408028D01*
X189808027Y-95552786D01*
X189687714Y-95718386D01*
X189594776Y-95900784D01*
X189594694Y-95900985D01*
X189594642Y-95901049D01*
X189592567Y-95905122D01*
X189591711Y-95904686D01*
X189550854Y-95955390D01*
X189484560Y-95977456D01*
X189416861Y-95960178D01*
X189392451Y-95941216D01*
X188388589Y-94937355D01*
X188388587Y-94937352D01*
X188269716Y-94818481D01*
X188269715Y-94818480D01*
X188182903Y-94768360D01*
X188182903Y-94768359D01*
X188182899Y-94768358D01*
X188132784Y-94739423D01*
X187980056Y-94698499D01*
X187821942Y-94698499D01*
X187814346Y-94698499D01*
X187814330Y-94698500D01*
X182337612Y-94698500D01*
X182337596Y-94698499D01*
X182330000Y-94698499D01*
X182171886Y-94698499D01*
X182064530Y-94727265D01*
X182019153Y-94739424D01*
X182019152Y-94739425D01*
X181969039Y-94768359D01*
X181969038Y-94768360D01*
X181925632Y-94793420D01*
X181882228Y-94818479D01*
X181882225Y-94818481D01*
X180849511Y-95851196D01*
X180788188Y-95884681D01*
X180718496Y-95879697D01*
X180692939Y-95866617D01*
X180579185Y-95790609D01*
X180579172Y-95790602D01*
X180433501Y-95730264D01*
X180433491Y-95730261D01*
X180278149Y-95699361D01*
X180216238Y-95666976D01*
X180214660Y-95665425D01*
X178986819Y-94437584D01*
X178953334Y-94376261D01*
X178950500Y-94349903D01*
X178950500Y-94014601D01*
X178970185Y-93947562D01*
X179018206Y-93904116D01*
X179031610Y-93897287D01*
X179197219Y-93776966D01*
X179341966Y-93632219D01*
X179341968Y-93632215D01*
X179341971Y-93632213D01*
X179462284Y-93466614D01*
X179462285Y-93466613D01*
X179462287Y-93466610D01*
X179509516Y-93373917D01*
X179557489Y-93323123D01*
X179625310Y-93306328D01*
X179691445Y-93328865D01*
X179730483Y-93373917D01*
X179739791Y-93392184D01*
X179777715Y-93466614D01*
X179898028Y-93632213D01*
X180042786Y-93776971D01*
X180196325Y-93888521D01*
X180208390Y-93897287D01*
X180289499Y-93938614D01*
X180390776Y-93990218D01*
X180390778Y-93990218D01*
X180390781Y-93990220D01*
X180465818Y-94014601D01*
X180585465Y-94053477D01*
X180686557Y-94069488D01*
X180787648Y-94085500D01*
X180787649Y-94085500D01*
X180992351Y-94085500D01*
X180992352Y-94085500D01*
X181194534Y-94053477D01*
X181378469Y-93993713D01*
X194949500Y-93993713D01*
X194949500Y-94206286D01*
X194980381Y-94401265D01*
X194982754Y-94416243D01*
X195015130Y-94515887D01*
X195048444Y-94618414D01*
X195144951Y-94807820D01*
X195269890Y-94979786D01*
X195420213Y-95130109D01*
X195592179Y-95255048D01*
X195592181Y-95255049D01*
X195592184Y-95255051D01*
X195781588Y-95351557D01*
X195983757Y-95417246D01*
X196193713Y-95450500D01*
X196193714Y-95450500D01*
X196406286Y-95450500D01*
X196406287Y-95450500D01*
X196616243Y-95417246D01*
X196818412Y-95351557D01*
X197007816Y-95255051D01*
X197090771Y-95194781D01*
X197179786Y-95130109D01*
X197179788Y-95130106D01*
X197179792Y-95130104D01*
X197330104Y-94979792D01*
X197330106Y-94979788D01*
X197330109Y-94979786D01*
X197455048Y-94807820D01*
X197455047Y-94807820D01*
X197455051Y-94807816D01*
X197551557Y-94618412D01*
X197617246Y-94416243D01*
X197650500Y-94206287D01*
X197650500Y-93993713D01*
X197617246Y-93783757D01*
X197551557Y-93581588D01*
X197455051Y-93392184D01*
X197455049Y-93392181D01*
X197455048Y-93392179D01*
X197330109Y-93220213D01*
X197179786Y-93069890D01*
X197007820Y-92944951D01*
X196818414Y-92848444D01*
X196818413Y-92848443D01*
X196818412Y-92848443D01*
X196616243Y-92782754D01*
X196616241Y-92782753D01*
X196616240Y-92782753D01*
X196454957Y-92757208D01*
X196406287Y-92749500D01*
X196193713Y-92749500D01*
X196145042Y-92757208D01*
X195983760Y-92782753D01*
X195781585Y-92848444D01*
X195592179Y-92944951D01*
X195420213Y-93069890D01*
X195269890Y-93220213D01*
X195144951Y-93392179D01*
X195048444Y-93581585D01*
X194982753Y-93783760D01*
X194949500Y-93993713D01*
X181378469Y-93993713D01*
X181389219Y-93990220D01*
X181571610Y-93897287D01*
X181581647Y-93889995D01*
X181583675Y-93888522D01*
X181583675Y-93888521D01*
X181737212Y-93776971D01*
X181737210Y-93776971D01*
X181737219Y-93776966D01*
X181881966Y-93632219D01*
X181881968Y-93632215D01*
X181881971Y-93632213D01*
X181934732Y-93559590D01*
X182002287Y-93466610D01*
X182095220Y-93284219D01*
X182158477Y-93089534D01*
X182190500Y-92887352D01*
X182190500Y-92682648D01*
X182158477Y-92480466D01*
X182095220Y-92285781D01*
X182095218Y-92285778D01*
X182095218Y-92285776D01*
X182049515Y-92196080D01*
X182002287Y-92103390D01*
X181994556Y-92092749D01*
X181881971Y-91937786D01*
X181856366Y-91912181D01*
X181822881Y-91850858D01*
X181827865Y-91781166D01*
X181869737Y-91725233D01*
X181935201Y-91700816D01*
X181944047Y-91700500D01*
X198375500Y-91700500D01*
X198442539Y-91720185D01*
G37*
%TD.AperFunction*%
%TA.AperFunction,Conductor*%
G36*
X151851100Y-99301275D02*
G01*
X151853771Y-99300614D01*
X151884426Y-99311061D01*
X151915499Y-99320185D01*
X151917300Y-99322264D01*
X151919906Y-99323152D01*
X151940052Y-99348521D01*
X151961254Y-99372989D01*
X151961645Y-99375711D01*
X151963357Y-99377867D01*
X151966588Y-99410087D01*
X151971198Y-99442147D01*
X151970138Y-99445488D01*
X151970329Y-99447388D01*
X151958945Y-99480795D01*
X151869994Y-99655367D01*
X151869993Y-99655370D01*
X151808587Y-99844362D01*
X151789405Y-99965472D01*
X151777500Y-100040639D01*
X151777500Y-100239361D01*
X151786772Y-100297899D01*
X151808587Y-100435637D01*
X151869993Y-100624629D01*
X151869994Y-100624632D01*
X151939017Y-100760095D01*
X151960213Y-100801694D01*
X152077019Y-100962464D01*
X152217536Y-101102981D01*
X152378306Y-101219787D01*
X152481782Y-101272511D01*
X152534780Y-101299515D01*
X152585576Y-101347490D01*
X152602371Y-101415311D01*
X152579833Y-101481446D01*
X152534780Y-101520485D01*
X152378305Y-101600213D01*
X152217533Y-101717021D01*
X152077021Y-101857533D01*
X151960213Y-102018305D01*
X151869994Y-102195367D01*
X151869993Y-102195370D01*
X151808587Y-102384359D01*
X151794588Y-102472743D01*
X151764658Y-102535877D01*
X151759796Y-102541024D01*
X150125631Y-104175190D01*
X150064308Y-104208675D01*
X149994616Y-104203691D01*
X149950269Y-104175190D01*
X149910292Y-104135213D01*
X149910288Y-104135210D01*
X149779185Y-104047609D01*
X149779172Y-104047602D01*
X149633501Y-103987264D01*
X149633489Y-103987261D01*
X149478845Y-103956500D01*
X149478842Y-103956500D01*
X149321158Y-103956500D01*
X149321155Y-103956500D01*
X149166510Y-103987261D01*
X149166498Y-103987264D01*
X149020827Y-104047602D01*
X149020814Y-104047609D01*
X148889125Y-104135602D01*
X148822447Y-104156480D01*
X148820234Y-104156500D01*
X144857098Y-104156500D01*
X144790059Y-104136815D01*
X144769417Y-104120181D01*
X142781905Y-102132669D01*
X140786415Y-100137180D01*
X140752931Y-100075858D01*
X140757915Y-100006166D01*
X140799787Y-99950233D01*
X140865251Y-99925816D01*
X140874097Y-99925500D01*
X141031613Y-99925500D01*
X141031616Y-99925500D01*
X141102196Y-99919086D01*
X141264606Y-99868478D01*
X141410185Y-99780472D01*
X141530472Y-99660185D01*
X141618478Y-99514606D01*
X141658051Y-99387607D01*
X141696788Y-99329462D01*
X141760813Y-99301488D01*
X141776436Y-99300500D01*
X151848460Y-99300500D01*
X151851100Y-99301275D01*
G37*
%TD.AperFunction*%
%TA.AperFunction,Conductor*%
G36*
X167790000Y-100457661D02*
G01*
X167817259Y-100559394D01*
X167869920Y-100650606D01*
X167944394Y-100725080D01*
X168035606Y-100777741D01*
X168137339Y-100805000D01*
X168143552Y-100805000D01*
X167464076Y-101484474D01*
X167508650Y-101516859D01*
X167690968Y-101609755D01*
X167885582Y-101672990D01*
X168087683Y-101705000D01*
X168292317Y-101705000D01*
X168494417Y-101672990D01*
X168689032Y-101609754D01*
X168703619Y-101602322D01*
X168772288Y-101589424D01*
X168837029Y-101615698D01*
X168874477Y-101665350D01*
X168876295Y-101669738D01*
X168879225Y-101676811D01*
X168924458Y-101744508D01*
X168955887Y-101791545D01*
X168955888Y-101791546D01*
X169217162Y-102052819D01*
X169250647Y-102114142D01*
X169245663Y-102183833D01*
X169203792Y-102239767D01*
X169138327Y-102264184D01*
X169129481Y-102264500D01*
X169123713Y-102264500D01*
X169075042Y-102272208D01*
X168913760Y-102297753D01*
X168711585Y-102363444D01*
X168522179Y-102459951D01*
X168350213Y-102584890D01*
X168199890Y-102735213D01*
X168074949Y-102907182D01*
X168070484Y-102915946D01*
X168022509Y-102966742D01*
X167954688Y-102983536D01*
X167888553Y-102960998D01*
X167849516Y-102915946D01*
X167845050Y-102907182D01*
X167720109Y-102735213D01*
X167569786Y-102584890D01*
X167397820Y-102459951D01*
X167208414Y-102363444D01*
X167208413Y-102363443D01*
X167208412Y-102363443D01*
X167006243Y-102297754D01*
X167006241Y-102297753D01*
X167006240Y-102297753D01*
X166844957Y-102272208D01*
X166796287Y-102264500D01*
X166583713Y-102264500D01*
X166535042Y-102272208D01*
X166373760Y-102297753D01*
X166171585Y-102363444D01*
X165982180Y-102459951D01*
X165837344Y-102565180D01*
X165771538Y-102588660D01*
X165703484Y-102572834D01*
X165676778Y-102552543D01*
X165287590Y-102163355D01*
X165287588Y-102163352D01*
X165168717Y-102044481D01*
X165168709Y-102044475D01*
X165055028Y-101978842D01*
X165055027Y-101978841D01*
X165038129Y-101969086D01*
X165031785Y-101965423D01*
X164879057Y-101924499D01*
X164879054Y-101924499D01*
X164846726Y-101924499D01*
X164803393Y-101916681D01*
X164707482Y-101880908D01*
X164707483Y-101880908D01*
X164647883Y-101874501D01*
X164647881Y-101874500D01*
X164647873Y-101874500D01*
X164647865Y-101874500D01*
X164034185Y-101874500D01*
X163967146Y-101854815D01*
X163921391Y-101802011D01*
X163911447Y-101732853D01*
X163940472Y-101669297D01*
X163973655Y-101644253D01*
X163972975Y-101643149D01*
X164128345Y-101547315D01*
X164252315Y-101423345D01*
X164280582Y-101377517D01*
X164377859Y-101176367D01*
X164396094Y-101156235D01*
X164411556Y-101133904D01*
X164419205Y-101130723D01*
X164424767Y-101124584D01*
X164450991Y-101117507D01*
X164476072Y-101107080D01*
X164484226Y-101108540D01*
X164492224Y-101106382D01*
X164518107Y-101114606D01*
X164544848Y-101119394D01*
X164551858Y-101125330D01*
X164558813Y-101127540D01*
X164560993Y-101130171D01*
X164570524Y-101130922D01*
X165250000Y-100451446D01*
X165250000Y-100457661D01*
X165277259Y-100559394D01*
X165329920Y-100650606D01*
X165404394Y-100725080D01*
X165495606Y-100777741D01*
X165597339Y-100805000D01*
X165603553Y-100805000D01*
X164924076Y-101484474D01*
X164968650Y-101516859D01*
X165150968Y-101609755D01*
X165345582Y-101672990D01*
X165547683Y-101705000D01*
X165752317Y-101705000D01*
X165954417Y-101672990D01*
X166149031Y-101609755D01*
X166331349Y-101516859D01*
X166375921Y-101484474D01*
X165696447Y-100805000D01*
X165702661Y-100805000D01*
X165804394Y-100777741D01*
X165895606Y-100725080D01*
X165970080Y-100650606D01*
X166022741Y-100559394D01*
X166050000Y-100457661D01*
X166050000Y-100451447D01*
X166729474Y-101130921D01*
X166761861Y-101086347D01*
X166761861Y-101086346D01*
X166809515Y-100992820D01*
X166857489Y-100942024D01*
X166925310Y-100925228D01*
X166991445Y-100947765D01*
X167030485Y-100992819D01*
X167078141Y-101086350D01*
X167078147Y-101086359D01*
X167110523Y-101130921D01*
X167110524Y-101130922D01*
X167790000Y-100451446D01*
X167790000Y-100457661D01*
G37*
%TD.AperFunction*%
%TA.AperFunction,Conductor*%
G36*
X158793834Y-99399336D02*
G01*
X158849767Y-99441208D01*
X158874184Y-99506672D01*
X158874500Y-99515518D01*
X158874500Y-100083480D01*
X158854815Y-100150519D01*
X158838181Y-100171161D01*
X158719531Y-100289810D01*
X158719530Y-100289811D01*
X158631522Y-100435393D01*
X158580913Y-100597807D01*
X158576116Y-100650606D01*
X158574672Y-100666498D01*
X158574500Y-100668386D01*
X158574500Y-100995778D01*
X158554815Y-101062817D01*
X158502011Y-101108572D01*
X158432853Y-101118516D01*
X158421904Y-101116436D01*
X158315069Y-101091116D01*
X158145592Y-101091116D01*
X158005088Y-101124415D01*
X157935316Y-101120721D01*
X157878617Y-101079891D01*
X157852993Y-101014890D01*
X157852492Y-101003757D01*
X157852492Y-100289526D01*
X157872177Y-100222487D01*
X157888807Y-100201849D01*
X158662819Y-99427836D01*
X158724142Y-99394352D01*
X158793834Y-99399336D01*
G37*
%TD.AperFunction*%
%TA.AperFunction,Conductor*%
G36*
X165306017Y-98905033D02*
G01*
X165322101Y-98904574D01*
X165338850Y-98914674D01*
X165357618Y-98920185D01*
X165368154Y-98932344D01*
X165381934Y-98940654D01*
X165390565Y-98958207D01*
X165403373Y-98972989D01*
X165405662Y-98988913D01*
X165412763Y-99003354D01*
X165410533Y-99022787D01*
X165413317Y-99042147D01*
X165406633Y-99056782D01*
X165404799Y-99072769D01*
X165392417Y-99087911D01*
X165384292Y-99105703D01*
X165370263Y-99115004D01*
X165360571Y-99126858D01*
X165328898Y-99142431D01*
X165150968Y-99200244D01*
X164968644Y-99293143D01*
X164924077Y-99325523D01*
X164924077Y-99325524D01*
X165603554Y-100005000D01*
X165597339Y-100005000D01*
X165495606Y-100032259D01*
X165404394Y-100084920D01*
X165329920Y-100159394D01*
X165277259Y-100250606D01*
X165250000Y-100352339D01*
X165250000Y-100358553D01*
X164570524Y-99679077D01*
X164553660Y-99680404D01*
X164534475Y-99695198D01*
X164464861Y-99701174D01*
X164403067Y-99668566D01*
X164371785Y-99618649D01*
X164344358Y-99535880D01*
X164344356Y-99535875D01*
X164252315Y-99386654D01*
X164128345Y-99262684D01*
X163979124Y-99170643D01*
X163979119Y-99170641D01*
X163893306Y-99142206D01*
X163835861Y-99102434D01*
X163809038Y-99037918D01*
X163821353Y-98969142D01*
X163868896Y-98917942D01*
X163932310Y-98900500D01*
X165290579Y-98900500D01*
X165306017Y-98905033D01*
G37*
%TD.AperFunction*%
%TA.AperFunction,Conductor*%
G36*
X167371392Y-98909144D02*
G01*
X167401379Y-98915668D01*
X167406394Y-98919422D01*
X167408991Y-98920185D01*
X167429633Y-98936819D01*
X167571670Y-99078856D01*
X167605155Y-99140179D01*
X167600171Y-99209871D01*
X167558299Y-99265804D01*
X167540286Y-99277021D01*
X167508644Y-99293143D01*
X167464077Y-99325523D01*
X167464077Y-99325524D01*
X168143553Y-100005000D01*
X168137339Y-100005000D01*
X168035606Y-100032259D01*
X167944394Y-100084920D01*
X167869920Y-100159394D01*
X167817259Y-100250606D01*
X167790000Y-100352339D01*
X167790000Y-100358553D01*
X167110524Y-99679077D01*
X167110523Y-99679077D01*
X167078143Y-99723644D01*
X167030485Y-99817180D01*
X166982510Y-99867976D01*
X166914689Y-99884771D01*
X166848554Y-99862233D01*
X166809515Y-99817180D01*
X166761859Y-99723650D01*
X166729474Y-99679077D01*
X166729474Y-99679076D01*
X166050000Y-100358551D01*
X166050000Y-100352339D01*
X166022741Y-100250606D01*
X165970080Y-100159394D01*
X165895606Y-100084920D01*
X165804394Y-100032259D01*
X165702661Y-100005000D01*
X165696446Y-100005000D01*
X166375922Y-99325524D01*
X166375921Y-99325523D01*
X166331359Y-99293147D01*
X166331350Y-99293141D01*
X166149031Y-99200244D01*
X165971102Y-99142431D01*
X165913427Y-99102993D01*
X165886229Y-99038634D01*
X165898144Y-98969788D01*
X165945388Y-98918312D01*
X166009421Y-98900500D01*
X167341952Y-98900500D01*
X167371392Y-98909144D01*
G37*
%TD.AperFunction*%
%TA.AperFunction,Conductor*%
G36*
X185117941Y-97020185D02*
G01*
X185163696Y-97072989D01*
X185173640Y-97142147D01*
X185144615Y-97205703D01*
X185138583Y-97212181D01*
X182323680Y-100027081D01*
X182262357Y-100060566D01*
X182192665Y-100055582D01*
X182136732Y-100013710D01*
X182118068Y-99977718D01*
X182094755Y-99905970D01*
X182001859Y-99723650D01*
X181969474Y-99679077D01*
X181969474Y-99679076D01*
X181290000Y-100358553D01*
X181290000Y-100352339D01*
X181262741Y-100250606D01*
X181210080Y-100159394D01*
X181135606Y-100084920D01*
X181044394Y-100032259D01*
X180942661Y-100005000D01*
X180936446Y-100005000D01*
X181615922Y-99325524D01*
X181615921Y-99325523D01*
X181571359Y-99293147D01*
X181571350Y-99293141D01*
X181389031Y-99200244D01*
X181194417Y-99137009D01*
X180992317Y-99105000D01*
X180787683Y-99105000D01*
X180585582Y-99137009D01*
X180390968Y-99200244D01*
X180208644Y-99293143D01*
X180164077Y-99325523D01*
X180164077Y-99325524D01*
X180843554Y-100005000D01*
X180837339Y-100005000D01*
X180735606Y-100032259D01*
X180644394Y-100084920D01*
X180569920Y-100159394D01*
X180517259Y-100250606D01*
X180490000Y-100352339D01*
X180490000Y-100358553D01*
X179810524Y-99679077D01*
X179810523Y-99679077D01*
X179778143Y-99723644D01*
X179730765Y-99816630D01*
X179682790Y-99867426D01*
X179614969Y-99884221D01*
X179548834Y-99861683D01*
X179509795Y-99816630D01*
X179504691Y-99806613D01*
X179462287Y-99723390D01*
X179462285Y-99723387D01*
X179462284Y-99723385D01*
X179341971Y-99557786D01*
X179197213Y-99413028D01*
X179031613Y-99292715D01*
X179031612Y-99292714D01*
X179031610Y-99292713D01*
X178955740Y-99254055D01*
X178849223Y-99199781D01*
X178654534Y-99136522D01*
X178459947Y-99105703D01*
X178452352Y-99104500D01*
X178247648Y-99104500D01*
X178240053Y-99105703D01*
X178045465Y-99136522D01*
X177850776Y-99199781D01*
X177668386Y-99292715D01*
X177502786Y-99413028D01*
X177358028Y-99557786D01*
X177237715Y-99723386D01*
X177190485Y-99816080D01*
X177142510Y-99866876D01*
X177074689Y-99883671D01*
X177008554Y-99861134D01*
X176969515Y-99816080D01*
X176964691Y-99806613D01*
X176922287Y-99723390D01*
X176906146Y-99701174D01*
X176801971Y-99557786D01*
X176657213Y-99413028D01*
X176491613Y-99292715D01*
X176491612Y-99292714D01*
X176491610Y-99292713D01*
X176415740Y-99254055D01*
X176309223Y-99199781D01*
X176114534Y-99136522D01*
X175919947Y-99105703D01*
X175912352Y-99104500D01*
X175707648Y-99104500D01*
X175700053Y-99105703D01*
X175505465Y-99136522D01*
X175310776Y-99199781D01*
X175128386Y-99292715D01*
X174962786Y-99413028D01*
X174818028Y-99557786D01*
X174697715Y-99723386D01*
X174650485Y-99816080D01*
X174602510Y-99866876D01*
X174534689Y-99883671D01*
X174468554Y-99861134D01*
X174429515Y-99816080D01*
X174424691Y-99806613D01*
X174382287Y-99723390D01*
X174366146Y-99701174D01*
X174261971Y-99557786D01*
X174117213Y-99413028D01*
X173951613Y-99292715D01*
X173951612Y-99292714D01*
X173951610Y-99292713D01*
X173875740Y-99254055D01*
X173769223Y-99199781D01*
X173574534Y-99136522D01*
X173379947Y-99105703D01*
X173372352Y-99104500D01*
X173167648Y-99104500D01*
X173160053Y-99105703D01*
X172965465Y-99136522D01*
X172770776Y-99199781D01*
X172588386Y-99292715D01*
X172422786Y-99413028D01*
X172278028Y-99557786D01*
X172157715Y-99723386D01*
X172110485Y-99816080D01*
X172062510Y-99866876D01*
X171994689Y-99883671D01*
X171928554Y-99861134D01*
X171889515Y-99816080D01*
X171884691Y-99806613D01*
X171842287Y-99723390D01*
X171826146Y-99701174D01*
X171721971Y-99557786D01*
X171577213Y-99413028D01*
X171411613Y-99292715D01*
X171411612Y-99292714D01*
X171411610Y-99292713D01*
X171335740Y-99254055D01*
X171229223Y-99199781D01*
X171034534Y-99136522D01*
X170839947Y-99105703D01*
X170832352Y-99104500D01*
X170627648Y-99104500D01*
X170620053Y-99105703D01*
X170425465Y-99136522D01*
X170230776Y-99199781D01*
X170048391Y-99292712D01*
X170048383Y-99292717D01*
X169970995Y-99348941D01*
X169905189Y-99372420D01*
X169837135Y-99356593D01*
X169810431Y-99336303D01*
X168788309Y-98314181D01*
X168754824Y-98252858D01*
X168759808Y-98183166D01*
X168801680Y-98127233D01*
X168867144Y-98102816D01*
X168875990Y-98102500D01*
X181544231Y-98102500D01*
X181544247Y-98102501D01*
X181551843Y-98102501D01*
X181709954Y-98102501D01*
X181709957Y-98102501D01*
X181862685Y-98061577D01*
X181926904Y-98024500D01*
X181999616Y-97982520D01*
X182111420Y-97870716D01*
X182111420Y-97870714D01*
X182121624Y-97860511D01*
X182121627Y-97860506D01*
X182945316Y-97036819D01*
X183006639Y-97003334D01*
X183032997Y-97000500D01*
X185050902Y-97000500D01*
X185117941Y-97020185D01*
G37*
%TD.AperFunction*%
%TA.AperFunction,Conductor*%
G36*
X188768039Y-97544685D02*
G01*
X188813794Y-97597489D01*
X188825000Y-97649000D01*
X188825000Y-97901000D01*
X188805315Y-97968039D01*
X188752511Y-98013794D01*
X188701000Y-98025000D01*
X188192500Y-98025000D01*
X188192500Y-98026000D01*
X188172815Y-98093039D01*
X188120011Y-98138794D01*
X188068500Y-98150000D01*
X187211500Y-98150000D01*
X187202814Y-98147449D01*
X187193853Y-98148738D01*
X187169812Y-98137759D01*
X187144461Y-98130315D01*
X187138533Y-98123474D01*
X187130297Y-98119713D01*
X187116007Y-98097478D01*
X187098706Y-98077511D01*
X187096418Y-98066996D01*
X187092523Y-98060935D01*
X187087500Y-98026000D01*
X187087500Y-97824499D01*
X187107185Y-97757460D01*
X187159989Y-97711705D01*
X187211500Y-97700499D01*
X187647870Y-97700499D01*
X187647871Y-97700499D01*
X187707482Y-97694091D01*
X187842330Y-97643796D01*
X187946355Y-97565923D01*
X187964644Y-97552232D01*
X187966318Y-97554468D01*
X188015095Y-97527834D01*
X188041453Y-97525000D01*
X188701000Y-97525000D01*
X188768039Y-97544685D01*
G37*
%TD.AperFunction*%
%TA.AperFunction,Conductor*%
G36*
X154785520Y-95780185D02*
G01*
X154806162Y-95796819D01*
X156503927Y-97494583D01*
X156530807Y-97534812D01*
X156590602Y-97679172D01*
X156590609Y-97679185D01*
X156678210Y-97810288D01*
X156678213Y-97810292D01*
X156755740Y-97887819D01*
X156789225Y-97949142D01*
X156784241Y-98018834D01*
X156742369Y-98074767D01*
X156676905Y-98099184D01*
X156668059Y-98099500D01*
X154375319Y-98099500D01*
X154308280Y-98079815D01*
X154262525Y-98027011D01*
X154252581Y-97957853D01*
X154257388Y-97937181D01*
X154270925Y-97895519D01*
X154302000Y-97699321D01*
X154302000Y-97500678D01*
X154270924Y-97304479D01*
X154270924Y-97304476D01*
X154209542Y-97115562D01*
X154119358Y-96938567D01*
X154092268Y-96901283D01*
X153477647Y-97515904D01*
X153454208Y-97428429D01*
X153395689Y-97327070D01*
X153312930Y-97244311D01*
X153211571Y-97185792D01*
X153124094Y-97162352D01*
X153738716Y-96547731D01*
X153738715Y-96547730D01*
X153701432Y-96520641D01*
X153544668Y-96440765D01*
X153493872Y-96392790D01*
X153477077Y-96324969D01*
X153499615Y-96258834D01*
X153544667Y-96219796D01*
X153701694Y-96139787D01*
X153862464Y-96022981D01*
X154002981Y-95882464D01*
X154054457Y-95811613D01*
X154109786Y-95768949D01*
X154154774Y-95760500D01*
X154718481Y-95760500D01*
X154785520Y-95780185D01*
G37*
%TD.AperFunction*%
%TA.AperFunction,Conductor*%
G36*
X174611445Y-93328865D02*
G01*
X174650483Y-93373917D01*
X174659791Y-93392184D01*
X174697715Y-93466614D01*
X174818028Y-93632213D01*
X174962786Y-93776971D01*
X175116325Y-93888521D01*
X175128390Y-93897287D01*
X175209499Y-93938614D01*
X175310776Y-93990218D01*
X175310778Y-93990218D01*
X175310781Y-93990220D01*
X175385818Y-94014601D01*
X175505465Y-94053477D01*
X175606557Y-94069488D01*
X175707648Y-94085500D01*
X175707649Y-94085500D01*
X175912351Y-94085500D01*
X175912352Y-94085500D01*
X176114534Y-94053477D01*
X176128842Y-94048827D01*
X176198682Y-94046831D01*
X176254842Y-94079077D01*
X177766247Y-95590482D01*
X177799732Y-95651805D01*
X177794748Y-95721497D01*
X177793149Y-95725561D01*
X177792028Y-95728268D01*
X177792027Y-95728272D01*
X177792026Y-95728275D01*
X177792025Y-95728276D01*
X177761265Y-95882918D01*
X177761265Y-96040611D01*
X177792026Y-96195254D01*
X177792029Y-96195266D01*
X177847443Y-96329048D01*
X177854912Y-96398517D01*
X177823637Y-96460996D01*
X177763547Y-96496648D01*
X177732882Y-96500500D01*
X163318046Y-96500500D01*
X163251007Y-96480815D01*
X163205252Y-96428011D01*
X163196429Y-96400691D01*
X163181311Y-96324689D01*
X163169737Y-96266503D01*
X163169617Y-96266213D01*
X163109397Y-96120827D01*
X163109390Y-96120814D01*
X163021789Y-95989711D01*
X163021786Y-95989707D01*
X162910292Y-95878213D01*
X162910288Y-95878210D01*
X162779185Y-95790609D01*
X162779172Y-95790602D01*
X162633501Y-95730264D01*
X162633491Y-95730261D01*
X162499308Y-95703570D01*
X162437397Y-95671185D01*
X162402823Y-95610469D01*
X162399500Y-95581953D01*
X162399500Y-94396097D01*
X162419185Y-94329058D01*
X162435819Y-94308416D01*
X162537949Y-94206286D01*
X162665159Y-94079075D01*
X162726480Y-94045592D01*
X162791154Y-94048826D01*
X162805466Y-94053477D01*
X163007648Y-94085500D01*
X163007649Y-94085500D01*
X163212351Y-94085500D01*
X163212352Y-94085500D01*
X163414534Y-94053477D01*
X163609219Y-93990220D01*
X163791610Y-93897287D01*
X163886168Y-93828587D01*
X163957213Y-93776971D01*
X163957215Y-93776968D01*
X163957219Y-93776966D01*
X164101966Y-93632219D01*
X164101968Y-93632215D01*
X164101971Y-93632213D01*
X164222284Y-93466614D01*
X164222285Y-93466613D01*
X164222287Y-93466610D01*
X164269516Y-93373917D01*
X164317489Y-93323123D01*
X164385310Y-93306328D01*
X164451445Y-93328865D01*
X164490483Y-93373917D01*
X164499791Y-93392184D01*
X164537715Y-93466614D01*
X164658028Y-93632213D01*
X164802786Y-93776971D01*
X164956325Y-93888521D01*
X164968390Y-93897287D01*
X165049499Y-93938614D01*
X165150776Y-93990218D01*
X165150778Y-93990218D01*
X165150781Y-93990220D01*
X165225818Y-94014601D01*
X165345465Y-94053477D01*
X165446557Y-94069488D01*
X165547648Y-94085500D01*
X165547649Y-94085500D01*
X165740902Y-94085500D01*
X165807941Y-94105185D01*
X165853696Y-94157989D01*
X165863640Y-94227147D01*
X165834615Y-94290703D01*
X165828583Y-94297181D01*
X165362584Y-94763181D01*
X165335656Y-94777884D01*
X165309838Y-94794477D01*
X165303637Y-94795368D01*
X165301261Y-94796666D01*
X165274903Y-94799500D01*
X165179766Y-94799500D01*
X165112727Y-94779815D01*
X165110875Y-94778602D01*
X164979185Y-94690609D01*
X164979172Y-94690602D01*
X164833501Y-94630264D01*
X164833489Y-94630261D01*
X164678845Y-94599500D01*
X164678842Y-94599500D01*
X164521158Y-94599500D01*
X164521155Y-94599500D01*
X164366510Y-94630261D01*
X164366498Y-94630264D01*
X164220827Y-94690602D01*
X164220814Y-94690609D01*
X164089711Y-94778210D01*
X164089707Y-94778213D01*
X163978213Y-94889707D01*
X163978210Y-94889711D01*
X163890609Y-95020814D01*
X163890602Y-95020827D01*
X163830264Y-95166498D01*
X163830261Y-95166510D01*
X163799500Y-95321153D01*
X163799500Y-95478846D01*
X163830261Y-95633489D01*
X163830264Y-95633501D01*
X163890602Y-95779172D01*
X163890609Y-95779185D01*
X163978210Y-95910288D01*
X163978213Y-95910292D01*
X164089707Y-96021786D01*
X164089711Y-96021789D01*
X164220814Y-96109390D01*
X164220827Y-96109397D01*
X164366498Y-96169735D01*
X164366503Y-96169737D01*
X164494785Y-96195254D01*
X164521153Y-96200499D01*
X164521156Y-96200500D01*
X164521158Y-96200500D01*
X164678844Y-96200500D01*
X164678845Y-96200499D01*
X164833497Y-96169737D01*
X164951592Y-96120821D01*
X164979172Y-96109397D01*
X164979172Y-96109396D01*
X164979179Y-96109394D01*
X165000025Y-96095465D01*
X165110875Y-96021398D01*
X165177553Y-96000520D01*
X165179766Y-96000500D01*
X165488331Y-96000500D01*
X165488347Y-96000501D01*
X165495943Y-96000501D01*
X165654054Y-96000501D01*
X165654057Y-96000501D01*
X165806785Y-95959577D01*
X165876233Y-95919481D01*
X165943716Y-95880520D01*
X166055520Y-95768716D01*
X166055520Y-95768714D01*
X166065724Y-95758511D01*
X166065728Y-95758506D01*
X167745158Y-94079075D01*
X167806479Y-94045592D01*
X167871151Y-94048825D01*
X167885466Y-94053477D01*
X168087648Y-94085500D01*
X168087649Y-94085500D01*
X168292351Y-94085500D01*
X168292352Y-94085500D01*
X168494534Y-94053477D01*
X168689219Y-93990220D01*
X168871610Y-93897287D01*
X168966168Y-93828587D01*
X169037213Y-93776971D01*
X169037215Y-93776968D01*
X169037219Y-93776966D01*
X169181966Y-93632219D01*
X169181968Y-93632215D01*
X169181971Y-93632213D01*
X169302284Y-93466614D01*
X169302285Y-93466613D01*
X169302287Y-93466610D01*
X169349516Y-93373917D01*
X169397489Y-93323123D01*
X169465310Y-93306328D01*
X169531445Y-93328865D01*
X169570483Y-93373917D01*
X169579791Y-93392184D01*
X169617715Y-93466614D01*
X169738028Y-93632213D01*
X169882786Y-93776971D01*
X170036325Y-93888521D01*
X170048390Y-93897287D01*
X170129499Y-93938614D01*
X170230776Y-93990218D01*
X170230778Y-93990218D01*
X170230781Y-93990220D01*
X170305818Y-94014601D01*
X170425465Y-94053477D01*
X170526557Y-94069488D01*
X170627648Y-94085500D01*
X170627649Y-94085500D01*
X170832351Y-94085500D01*
X170832352Y-94085500D01*
X171034534Y-94053477D01*
X171229219Y-93990220D01*
X171411610Y-93897287D01*
X171506168Y-93828587D01*
X171577213Y-93776971D01*
X171577215Y-93776968D01*
X171577219Y-93776966D01*
X171721966Y-93632219D01*
X171721968Y-93632215D01*
X171721971Y-93632213D01*
X171842284Y-93466614D01*
X171842285Y-93466613D01*
X171842287Y-93466610D01*
X171889516Y-93373917D01*
X171937489Y-93323123D01*
X172005310Y-93306328D01*
X172071445Y-93328865D01*
X172110483Y-93373917D01*
X172119791Y-93392184D01*
X172157715Y-93466614D01*
X172278028Y-93632213D01*
X172422786Y-93776971D01*
X172576325Y-93888521D01*
X172588390Y-93897287D01*
X172669499Y-93938614D01*
X172770776Y-93990218D01*
X172770778Y-93990218D01*
X172770781Y-93990220D01*
X172845818Y-94014601D01*
X172965465Y-94053477D01*
X173066557Y-94069488D01*
X173167648Y-94085500D01*
X173167649Y-94085500D01*
X173372351Y-94085500D01*
X173372352Y-94085500D01*
X173574534Y-94053477D01*
X173769219Y-93990220D01*
X173951610Y-93897287D01*
X174046168Y-93828587D01*
X174117213Y-93776971D01*
X174117215Y-93776968D01*
X174117219Y-93776966D01*
X174261966Y-93632219D01*
X174261968Y-93632215D01*
X174261971Y-93632213D01*
X174382284Y-93466614D01*
X174382285Y-93466613D01*
X174382287Y-93466610D01*
X174429516Y-93373917D01*
X174477489Y-93323123D01*
X174545310Y-93306328D01*
X174611445Y-93328865D01*
G37*
%TD.AperFunction*%
%TD*%
M02*
