%TF.GenerationSoftware,KiCad,Pcbnew,9.0.2*%
%TF.CreationDate,2025-07-15T17:58:13-04:00*%
%TF.ProjectId,raven-caller,72617665-6e2d-4636-916c-6c65722e6b69,rev?*%
%TF.SameCoordinates,Original*%
%TF.FileFunction,OtherDrawing,Comment*%
%FSLAX46Y46*%
G04 Gerber Fmt 4.6, Leading zero omitted, Abs format (unit mm)*
G04 Created by KiCad (PCBNEW 9.0.2) date 2025-07-15 17:58:13*
%MOMM*%
%LPD*%
G01*
G04 APERTURE LIST*
%ADD10C,0.100000*%
G04 APERTURE END LIST*
D10*
X127395714Y-121431109D02*
X127395714Y-120931109D01*
X127395714Y-120931109D02*
X127586190Y-120931109D01*
X127586190Y-120931109D02*
X127633809Y-120954919D01*
X127633809Y-120954919D02*
X127657619Y-120978728D01*
X127657619Y-120978728D02*
X127681428Y-121026347D01*
X127681428Y-121026347D02*
X127681428Y-121097776D01*
X127681428Y-121097776D02*
X127657619Y-121145395D01*
X127657619Y-121145395D02*
X127633809Y-121169204D01*
X127633809Y-121169204D02*
X127586190Y-121193014D01*
X127586190Y-121193014D02*
X127395714Y-121193014D01*
X128181428Y-121383490D02*
X128157619Y-121407300D01*
X128157619Y-121407300D02*
X128086190Y-121431109D01*
X128086190Y-121431109D02*
X128038571Y-121431109D01*
X128038571Y-121431109D02*
X127967143Y-121407300D01*
X127967143Y-121407300D02*
X127919524Y-121359680D01*
X127919524Y-121359680D02*
X127895714Y-121312061D01*
X127895714Y-121312061D02*
X127871905Y-121216823D01*
X127871905Y-121216823D02*
X127871905Y-121145395D01*
X127871905Y-121145395D02*
X127895714Y-121050157D01*
X127895714Y-121050157D02*
X127919524Y-121002538D01*
X127919524Y-121002538D02*
X127967143Y-120954919D01*
X127967143Y-120954919D02*
X128038571Y-120931109D01*
X128038571Y-120931109D02*
X128086190Y-120931109D01*
X128086190Y-120931109D02*
X128157619Y-120954919D01*
X128157619Y-120954919D02*
X128181428Y-120978728D01*
X128562381Y-121169204D02*
X128633809Y-121193014D01*
X128633809Y-121193014D02*
X128657619Y-121216823D01*
X128657619Y-121216823D02*
X128681428Y-121264442D01*
X128681428Y-121264442D02*
X128681428Y-121335871D01*
X128681428Y-121335871D02*
X128657619Y-121383490D01*
X128657619Y-121383490D02*
X128633809Y-121407300D01*
X128633809Y-121407300D02*
X128586190Y-121431109D01*
X128586190Y-121431109D02*
X128395714Y-121431109D01*
X128395714Y-121431109D02*
X128395714Y-120931109D01*
X128395714Y-120931109D02*
X128562381Y-120931109D01*
X128562381Y-120931109D02*
X128610000Y-120954919D01*
X128610000Y-120954919D02*
X128633809Y-120978728D01*
X128633809Y-120978728D02*
X128657619Y-121026347D01*
X128657619Y-121026347D02*
X128657619Y-121073966D01*
X128657619Y-121073966D02*
X128633809Y-121121585D01*
X128633809Y-121121585D02*
X128610000Y-121145395D01*
X128610000Y-121145395D02*
X128562381Y-121169204D01*
X128562381Y-121169204D02*
X128395714Y-121169204D01*
X129276666Y-121169204D02*
X129443333Y-121169204D01*
X129514761Y-121431109D02*
X129276666Y-121431109D01*
X129276666Y-121431109D02*
X129276666Y-120931109D01*
X129276666Y-120931109D02*
X129514761Y-120931109D01*
X129943333Y-121431109D02*
X129943333Y-120931109D01*
X129943333Y-121407300D02*
X129895714Y-121431109D01*
X129895714Y-121431109D02*
X129800476Y-121431109D01*
X129800476Y-121431109D02*
X129752857Y-121407300D01*
X129752857Y-121407300D02*
X129729047Y-121383490D01*
X129729047Y-121383490D02*
X129705238Y-121335871D01*
X129705238Y-121335871D02*
X129705238Y-121193014D01*
X129705238Y-121193014D02*
X129729047Y-121145395D01*
X129729047Y-121145395D02*
X129752857Y-121121585D01*
X129752857Y-121121585D02*
X129800476Y-121097776D01*
X129800476Y-121097776D02*
X129895714Y-121097776D01*
X129895714Y-121097776D02*
X129943333Y-121121585D01*
X130395714Y-121097776D02*
X130395714Y-121502538D01*
X130395714Y-121502538D02*
X130371904Y-121550157D01*
X130371904Y-121550157D02*
X130348095Y-121573966D01*
X130348095Y-121573966D02*
X130300476Y-121597776D01*
X130300476Y-121597776D02*
X130229047Y-121597776D01*
X130229047Y-121597776D02*
X130181428Y-121573966D01*
X130395714Y-121407300D02*
X130348095Y-121431109D01*
X130348095Y-121431109D02*
X130252857Y-121431109D01*
X130252857Y-121431109D02*
X130205238Y-121407300D01*
X130205238Y-121407300D02*
X130181428Y-121383490D01*
X130181428Y-121383490D02*
X130157619Y-121335871D01*
X130157619Y-121335871D02*
X130157619Y-121193014D01*
X130157619Y-121193014D02*
X130181428Y-121145395D01*
X130181428Y-121145395D02*
X130205238Y-121121585D01*
X130205238Y-121121585D02*
X130252857Y-121097776D01*
X130252857Y-121097776D02*
X130348095Y-121097776D01*
X130348095Y-121097776D02*
X130395714Y-121121585D01*
X130824285Y-121407300D02*
X130776666Y-121431109D01*
X130776666Y-121431109D02*
X130681428Y-121431109D01*
X130681428Y-121431109D02*
X130633809Y-121407300D01*
X130633809Y-121407300D02*
X130610000Y-121359680D01*
X130610000Y-121359680D02*
X130610000Y-121169204D01*
X130610000Y-121169204D02*
X130633809Y-121121585D01*
X130633809Y-121121585D02*
X130681428Y-121097776D01*
X130681428Y-121097776D02*
X130776666Y-121097776D01*
X130776666Y-121097776D02*
X130824285Y-121121585D01*
X130824285Y-121121585D02*
X130848095Y-121169204D01*
X130848095Y-121169204D02*
X130848095Y-121216823D01*
X130848095Y-121216823D02*
X130610000Y-121264442D01*
%TO.C,J7*%
X134110000Y-121780000D02*
X124110000Y-121780000D01*
%TD*%
M02*
