%TF.GenerationSoftware,KiCad,Pcbnew,9.0.2*%
%TF.CreationDate,2025-07-17T17:29:38-04:00*%
%TF.ProjectId,raven-caller,72617665-6e2d-4636-916c-6c65722e6b69,rev?*%
%TF.SameCoordinates,Original*%
%TF.FileFunction,Legend,Bot*%
%TF.FilePolarity,Positive*%
%FSLAX46Y46*%
G04 Gerber Fmt 4.6, Leading zero omitted, Abs format (unit mm)*
G04 Created by KiCad (PCBNEW 9.0.2) date 2025-07-17 17:29:38*
%MOMM*%
%LPD*%
G01*
G04 APERTURE LIST*
%ADD10C,0.150000*%
%ADD11C,0.120000*%
G04 APERTURE END LIST*
D10*
X188972319Y-98558333D02*
X188496128Y-98225000D01*
X188972319Y-97986905D02*
X187972319Y-97986905D01*
X187972319Y-97986905D02*
X187972319Y-98367857D01*
X187972319Y-98367857D02*
X188019938Y-98463095D01*
X188019938Y-98463095D02*
X188067557Y-98510714D01*
X188067557Y-98510714D02*
X188162795Y-98558333D01*
X188162795Y-98558333D02*
X188305652Y-98558333D01*
X188305652Y-98558333D02*
X188400890Y-98510714D01*
X188400890Y-98510714D02*
X188448509Y-98463095D01*
X188448509Y-98463095D02*
X188496128Y-98367857D01*
X188496128Y-98367857D02*
X188496128Y-97986905D01*
X188972319Y-99510714D02*
X188972319Y-98939286D01*
X188972319Y-99225000D02*
X187972319Y-99225000D01*
X187972319Y-99225000D02*
X188115176Y-99129762D01*
X188115176Y-99129762D02*
X188210414Y-99034524D01*
X188210414Y-99034524D02*
X188258033Y-98939286D01*
X163338094Y-100554819D02*
X163338094Y-101364342D01*
X163338094Y-101364342D02*
X163290475Y-101459580D01*
X163290475Y-101459580D02*
X163242856Y-101507200D01*
X163242856Y-101507200D02*
X163147618Y-101554819D01*
X163147618Y-101554819D02*
X162957142Y-101554819D01*
X162957142Y-101554819D02*
X162861904Y-101507200D01*
X162861904Y-101507200D02*
X162814285Y-101459580D01*
X162814285Y-101459580D02*
X162766666Y-101364342D01*
X162766666Y-101364342D02*
X162766666Y-100554819D01*
X161766666Y-101554819D02*
X162338094Y-101554819D01*
X162052380Y-101554819D02*
X162052380Y-100554819D01*
X162052380Y-100554819D02*
X162147618Y-100697676D01*
X162147618Y-100697676D02*
X162242856Y-100792914D01*
X162242856Y-100792914D02*
X162338094Y-100840533D01*
X160814285Y-101554819D02*
X161385713Y-101554819D01*
X161099999Y-101554819D02*
X161099999Y-100554819D01*
X161099999Y-100554819D02*
X161195237Y-100697676D01*
X161195237Y-100697676D02*
X161290475Y-100792914D01*
X161290475Y-100792914D02*
X161385713Y-100840533D01*
X127577506Y-116255589D02*
X128387029Y-116255589D01*
X128387029Y-116255589D02*
X128482267Y-116303208D01*
X128482267Y-116303208D02*
X128529887Y-116350827D01*
X128529887Y-116350827D02*
X128577506Y-116446065D01*
X128577506Y-116446065D02*
X128577506Y-116636541D01*
X128577506Y-116636541D02*
X128529887Y-116731779D01*
X128529887Y-116731779D02*
X128482267Y-116779398D01*
X128482267Y-116779398D02*
X128387029Y-116827017D01*
X128387029Y-116827017D02*
X127577506Y-116827017D01*
X128006077Y-117446065D02*
X127958458Y-117350827D01*
X127958458Y-117350827D02*
X127910839Y-117303208D01*
X127910839Y-117303208D02*
X127815601Y-117255589D01*
X127815601Y-117255589D02*
X127767982Y-117255589D01*
X127767982Y-117255589D02*
X127672744Y-117303208D01*
X127672744Y-117303208D02*
X127625125Y-117350827D01*
X127625125Y-117350827D02*
X127577506Y-117446065D01*
X127577506Y-117446065D02*
X127577506Y-117636541D01*
X127577506Y-117636541D02*
X127625125Y-117731779D01*
X127625125Y-117731779D02*
X127672744Y-117779398D01*
X127672744Y-117779398D02*
X127767982Y-117827017D01*
X127767982Y-117827017D02*
X127815601Y-117827017D01*
X127815601Y-117827017D02*
X127910839Y-117779398D01*
X127910839Y-117779398D02*
X127958458Y-117731779D01*
X127958458Y-117731779D02*
X128006077Y-117636541D01*
X128006077Y-117636541D02*
X128006077Y-117446065D01*
X128006077Y-117446065D02*
X128053696Y-117350827D01*
X128053696Y-117350827D02*
X128101315Y-117303208D01*
X128101315Y-117303208D02*
X128196553Y-117255589D01*
X128196553Y-117255589D02*
X128387029Y-117255589D01*
X128387029Y-117255589D02*
X128482267Y-117303208D01*
X128482267Y-117303208D02*
X128529887Y-117350827D01*
X128529887Y-117350827D02*
X128577506Y-117446065D01*
X128577506Y-117446065D02*
X128577506Y-117636541D01*
X128577506Y-117636541D02*
X128529887Y-117731779D01*
X128529887Y-117731779D02*
X128482267Y-117779398D01*
X128482267Y-117779398D02*
X128387029Y-117827017D01*
X128387029Y-117827017D02*
X128196553Y-117827017D01*
X128196553Y-117827017D02*
X128101315Y-117779398D01*
X128101315Y-117779398D02*
X128053696Y-117731779D01*
X128053696Y-117731779D02*
X128006077Y-117636541D01*
X129924819Y-116457142D02*
X129448628Y-116123809D01*
X129924819Y-115885714D02*
X128924819Y-115885714D01*
X128924819Y-115885714D02*
X128924819Y-116266666D01*
X128924819Y-116266666D02*
X128972438Y-116361904D01*
X128972438Y-116361904D02*
X129020057Y-116409523D01*
X129020057Y-116409523D02*
X129115295Y-116457142D01*
X129115295Y-116457142D02*
X129258152Y-116457142D01*
X129258152Y-116457142D02*
X129353390Y-116409523D01*
X129353390Y-116409523D02*
X129401009Y-116361904D01*
X129401009Y-116361904D02*
X129448628Y-116266666D01*
X129448628Y-116266666D02*
X129448628Y-115885714D01*
X129924819Y-117409523D02*
X129924819Y-116838095D01*
X129924819Y-117123809D02*
X128924819Y-117123809D01*
X128924819Y-117123809D02*
X129067676Y-117028571D01*
X129067676Y-117028571D02*
X129162914Y-116933333D01*
X129162914Y-116933333D02*
X129210533Y-116838095D01*
X128924819Y-118266666D02*
X128924819Y-118076190D01*
X128924819Y-118076190D02*
X128972438Y-117980952D01*
X128972438Y-117980952D02*
X129020057Y-117933333D01*
X129020057Y-117933333D02*
X129162914Y-117838095D01*
X129162914Y-117838095D02*
X129353390Y-117790476D01*
X129353390Y-117790476D02*
X129734342Y-117790476D01*
X129734342Y-117790476D02*
X129829580Y-117838095D01*
X129829580Y-117838095D02*
X129877200Y-117885714D01*
X129877200Y-117885714D02*
X129924819Y-117980952D01*
X129924819Y-117980952D02*
X129924819Y-118171428D01*
X129924819Y-118171428D02*
X129877200Y-118266666D01*
X129877200Y-118266666D02*
X129829580Y-118314285D01*
X129829580Y-118314285D02*
X129734342Y-118361904D01*
X129734342Y-118361904D02*
X129496247Y-118361904D01*
X129496247Y-118361904D02*
X129401009Y-118314285D01*
X129401009Y-118314285D02*
X129353390Y-118266666D01*
X129353390Y-118266666D02*
X129305771Y-118171428D01*
X129305771Y-118171428D02*
X129305771Y-117980952D01*
X129305771Y-117980952D02*
X129353390Y-117885714D01*
X129353390Y-117885714D02*
X129401009Y-117838095D01*
X129401009Y-117838095D02*
X129496247Y-117790476D01*
X129766666Y-110124819D02*
X130099999Y-109648628D01*
X130338094Y-110124819D02*
X130338094Y-109124819D01*
X130338094Y-109124819D02*
X129957142Y-109124819D01*
X129957142Y-109124819D02*
X129861904Y-109172438D01*
X129861904Y-109172438D02*
X129814285Y-109220057D01*
X129814285Y-109220057D02*
X129766666Y-109315295D01*
X129766666Y-109315295D02*
X129766666Y-109458152D01*
X129766666Y-109458152D02*
X129814285Y-109553390D01*
X129814285Y-109553390D02*
X129861904Y-109601009D01*
X129861904Y-109601009D02*
X129957142Y-109648628D01*
X129957142Y-109648628D02*
X130338094Y-109648628D01*
X128909523Y-109124819D02*
X129099999Y-109124819D01*
X129099999Y-109124819D02*
X129195237Y-109172438D01*
X129195237Y-109172438D02*
X129242856Y-109220057D01*
X129242856Y-109220057D02*
X129338094Y-109362914D01*
X129338094Y-109362914D02*
X129385713Y-109553390D01*
X129385713Y-109553390D02*
X129385713Y-109934342D01*
X129385713Y-109934342D02*
X129338094Y-110029580D01*
X129338094Y-110029580D02*
X129290475Y-110077200D01*
X129290475Y-110077200D02*
X129195237Y-110124819D01*
X129195237Y-110124819D02*
X129004761Y-110124819D01*
X129004761Y-110124819D02*
X128909523Y-110077200D01*
X128909523Y-110077200D02*
X128861904Y-110029580D01*
X128861904Y-110029580D02*
X128814285Y-109934342D01*
X128814285Y-109934342D02*
X128814285Y-109696247D01*
X128814285Y-109696247D02*
X128861904Y-109601009D01*
X128861904Y-109601009D02*
X128909523Y-109553390D01*
X128909523Y-109553390D02*
X129004761Y-109505771D01*
X129004761Y-109505771D02*
X129195237Y-109505771D01*
X129195237Y-109505771D02*
X129290475Y-109553390D01*
X129290475Y-109553390D02*
X129338094Y-109601009D01*
X129338094Y-109601009D02*
X129385713Y-109696247D01*
X189857738Y-101675057D02*
X189952976Y-101627438D01*
X189952976Y-101627438D02*
X190048214Y-101532200D01*
X190048214Y-101532200D02*
X190191071Y-101389342D01*
X190191071Y-101389342D02*
X190286309Y-101341723D01*
X190286309Y-101341723D02*
X190381547Y-101341723D01*
X190333928Y-101579819D02*
X190429166Y-101532200D01*
X190429166Y-101532200D02*
X190524404Y-101436961D01*
X190524404Y-101436961D02*
X190572023Y-101246485D01*
X190572023Y-101246485D02*
X190572023Y-100913152D01*
X190572023Y-100913152D02*
X190524404Y-100722676D01*
X190524404Y-100722676D02*
X190429166Y-100627438D01*
X190429166Y-100627438D02*
X190333928Y-100579819D01*
X190333928Y-100579819D02*
X190143452Y-100579819D01*
X190143452Y-100579819D02*
X190048214Y-100627438D01*
X190048214Y-100627438D02*
X189952976Y-100722676D01*
X189952976Y-100722676D02*
X189905357Y-100913152D01*
X189905357Y-100913152D02*
X189905357Y-101246485D01*
X189905357Y-101246485D02*
X189952976Y-101436961D01*
X189952976Y-101436961D02*
X190048214Y-101532200D01*
X190048214Y-101532200D02*
X190143452Y-101579819D01*
X190143452Y-101579819D02*
X190333928Y-101579819D01*
X188952976Y-101579819D02*
X189524404Y-101579819D01*
X189238690Y-101579819D02*
X189238690Y-100579819D01*
X189238690Y-100579819D02*
X189333928Y-100722676D01*
X189333928Y-100722676D02*
X189429166Y-100817914D01*
X189429166Y-100817914D02*
X189524404Y-100865533D01*
X159083275Y-103847574D02*
X159150619Y-103847574D01*
X159150619Y-103847574D02*
X159285306Y-103780230D01*
X159285306Y-103780230D02*
X159352649Y-103712887D01*
X159352649Y-103712887D02*
X159419993Y-103578200D01*
X159419993Y-103578200D02*
X159419993Y-103443513D01*
X159419993Y-103443513D02*
X159386321Y-103342498D01*
X159386321Y-103342498D02*
X159285306Y-103174139D01*
X159285306Y-103174139D02*
X159184291Y-103073124D01*
X159184291Y-103073124D02*
X159015932Y-102972108D01*
X159015932Y-102972108D02*
X158914917Y-102938437D01*
X158914917Y-102938437D02*
X158780230Y-102938437D01*
X158780230Y-102938437D02*
X158645543Y-103005780D01*
X158645543Y-103005780D02*
X158578199Y-103073124D01*
X158578199Y-103073124D02*
X158510856Y-103207811D01*
X158510856Y-103207811D02*
X158510856Y-103275154D01*
X157837421Y-103813902D02*
X157972108Y-103679215D01*
X157972108Y-103679215D02*
X158073123Y-103645543D01*
X158073123Y-103645543D02*
X158140466Y-103645543D01*
X158140466Y-103645543D02*
X158308825Y-103679215D01*
X158308825Y-103679215D02*
X158477184Y-103780230D01*
X158477184Y-103780230D02*
X158746558Y-104049604D01*
X158746558Y-104049604D02*
X158780230Y-104150620D01*
X158780230Y-104150620D02*
X158780230Y-104217963D01*
X158780230Y-104217963D02*
X158746558Y-104318978D01*
X158746558Y-104318978D02*
X158611871Y-104453665D01*
X158611871Y-104453665D02*
X158510856Y-104487337D01*
X158510856Y-104487337D02*
X158443512Y-104487337D01*
X158443512Y-104487337D02*
X158342497Y-104453665D01*
X158342497Y-104453665D02*
X158174138Y-104285307D01*
X158174138Y-104285307D02*
X158140466Y-104184291D01*
X158140466Y-104184291D02*
X158140466Y-104116948D01*
X158140466Y-104116948D02*
X158174138Y-104015933D01*
X158174138Y-104015933D02*
X158308825Y-103881246D01*
X158308825Y-103881246D02*
X158409840Y-103847574D01*
X158409840Y-103847574D02*
X158477184Y-103847574D01*
X158477184Y-103847574D02*
X158578199Y-103881246D01*
X125429580Y-117333333D02*
X125477200Y-117285714D01*
X125477200Y-117285714D02*
X125524819Y-117142857D01*
X125524819Y-117142857D02*
X125524819Y-117047619D01*
X125524819Y-117047619D02*
X125477200Y-116904762D01*
X125477200Y-116904762D02*
X125381961Y-116809524D01*
X125381961Y-116809524D02*
X125286723Y-116761905D01*
X125286723Y-116761905D02*
X125096247Y-116714286D01*
X125096247Y-116714286D02*
X124953390Y-116714286D01*
X124953390Y-116714286D02*
X124762914Y-116761905D01*
X124762914Y-116761905D02*
X124667676Y-116809524D01*
X124667676Y-116809524D02*
X124572438Y-116904762D01*
X124572438Y-116904762D02*
X124524819Y-117047619D01*
X124524819Y-117047619D02*
X124524819Y-117142857D01*
X124524819Y-117142857D02*
X124572438Y-117285714D01*
X124572438Y-117285714D02*
X124620057Y-117333333D01*
X125524819Y-118285714D02*
X125524819Y-117714286D01*
X125524819Y-118000000D02*
X124524819Y-118000000D01*
X124524819Y-118000000D02*
X124667676Y-117904762D01*
X124667676Y-117904762D02*
X124762914Y-117809524D01*
X124762914Y-117809524D02*
X124810533Y-117714286D01*
X160466666Y-102884819D02*
X160799999Y-102408628D01*
X161038094Y-102884819D02*
X161038094Y-101884819D01*
X161038094Y-101884819D02*
X160657142Y-101884819D01*
X160657142Y-101884819D02*
X160561904Y-101932438D01*
X160561904Y-101932438D02*
X160514285Y-101980057D01*
X160514285Y-101980057D02*
X160466666Y-102075295D01*
X160466666Y-102075295D02*
X160466666Y-102218152D01*
X160466666Y-102218152D02*
X160514285Y-102313390D01*
X160514285Y-102313390D02*
X160561904Y-102361009D01*
X160561904Y-102361009D02*
X160657142Y-102408628D01*
X160657142Y-102408628D02*
X161038094Y-102408628D01*
X160133332Y-101884819D02*
X159466666Y-101884819D01*
X159466666Y-101884819D02*
X159895237Y-102884819D01*
X180754818Y-111238096D02*
X181564341Y-111238096D01*
X181564341Y-111238096D02*
X181659579Y-111285715D01*
X181659579Y-111285715D02*
X181707199Y-111333334D01*
X181707199Y-111333334D02*
X181754818Y-111428572D01*
X181754818Y-111428572D02*
X181754818Y-111619048D01*
X181754818Y-111619048D02*
X181707199Y-111714286D01*
X181707199Y-111714286D02*
X181659579Y-111761905D01*
X181659579Y-111761905D02*
X181564341Y-111809524D01*
X181564341Y-111809524D02*
X180754818Y-111809524D01*
X180754818Y-112190477D02*
X180754818Y-112809524D01*
X180754818Y-112809524D02*
X181135770Y-112476191D01*
X181135770Y-112476191D02*
X181135770Y-112619048D01*
X181135770Y-112619048D02*
X181183389Y-112714286D01*
X181183389Y-112714286D02*
X181231008Y-112761905D01*
X181231008Y-112761905D02*
X181326246Y-112809524D01*
X181326246Y-112809524D02*
X181564341Y-112809524D01*
X181564341Y-112809524D02*
X181659579Y-112761905D01*
X181659579Y-112761905D02*
X181707199Y-112714286D01*
X181707199Y-112714286D02*
X181754818Y-112619048D01*
X181754818Y-112619048D02*
X181754818Y-112333334D01*
X181754818Y-112333334D02*
X181707199Y-112238096D01*
X181707199Y-112238096D02*
X181659579Y-112190477D01*
X126638094Y-102884819D02*
X126638094Y-101884819D01*
X126638094Y-101884819D02*
X126399999Y-101884819D01*
X126399999Y-101884819D02*
X126257142Y-101932438D01*
X126257142Y-101932438D02*
X126161904Y-102027676D01*
X126161904Y-102027676D02*
X126114285Y-102122914D01*
X126114285Y-102122914D02*
X126066666Y-102313390D01*
X126066666Y-102313390D02*
X126066666Y-102456247D01*
X126066666Y-102456247D02*
X126114285Y-102646723D01*
X126114285Y-102646723D02*
X126161904Y-102741961D01*
X126161904Y-102741961D02*
X126257142Y-102837200D01*
X126257142Y-102837200D02*
X126399999Y-102884819D01*
X126399999Y-102884819D02*
X126638094Y-102884819D01*
X125733332Y-101884819D02*
X125114285Y-101884819D01*
X125114285Y-101884819D02*
X125447618Y-102265771D01*
X125447618Y-102265771D02*
X125304761Y-102265771D01*
X125304761Y-102265771D02*
X125209523Y-102313390D01*
X125209523Y-102313390D02*
X125161904Y-102361009D01*
X125161904Y-102361009D02*
X125114285Y-102456247D01*
X125114285Y-102456247D02*
X125114285Y-102694342D01*
X125114285Y-102694342D02*
X125161904Y-102789580D01*
X125161904Y-102789580D02*
X125209523Y-102837200D01*
X125209523Y-102837200D02*
X125304761Y-102884819D01*
X125304761Y-102884819D02*
X125590475Y-102884819D01*
X125590475Y-102884819D02*
X125685713Y-102837200D01*
X125685713Y-102837200D02*
X125733332Y-102789580D01*
X130482746Y-116551623D02*
X131292269Y-116551623D01*
X131292269Y-116551623D02*
X131387507Y-116599242D01*
X131387507Y-116599242D02*
X131435127Y-116646861D01*
X131435127Y-116646861D02*
X131482746Y-116742099D01*
X131482746Y-116742099D02*
X131482746Y-116932575D01*
X131482746Y-116932575D02*
X131435127Y-117027813D01*
X131435127Y-117027813D02*
X131387507Y-117075432D01*
X131387507Y-117075432D02*
X131292269Y-117123051D01*
X131292269Y-117123051D02*
X130482746Y-117123051D01*
X131482746Y-117646861D02*
X131482746Y-117837337D01*
X131482746Y-117837337D02*
X131435127Y-117932575D01*
X131435127Y-117932575D02*
X131387507Y-117980194D01*
X131387507Y-117980194D02*
X131244650Y-118075432D01*
X131244650Y-118075432D02*
X131054174Y-118123051D01*
X131054174Y-118123051D02*
X130673222Y-118123051D01*
X130673222Y-118123051D02*
X130577984Y-118075432D01*
X130577984Y-118075432D02*
X130530365Y-118027813D01*
X130530365Y-118027813D02*
X130482746Y-117932575D01*
X130482746Y-117932575D02*
X130482746Y-117742099D01*
X130482746Y-117742099D02*
X130530365Y-117646861D01*
X130530365Y-117646861D02*
X130577984Y-117599242D01*
X130577984Y-117599242D02*
X130673222Y-117551623D01*
X130673222Y-117551623D02*
X130911317Y-117551623D01*
X130911317Y-117551623D02*
X131006555Y-117599242D01*
X131006555Y-117599242D02*
X131054174Y-117646861D01*
X131054174Y-117646861D02*
X131101793Y-117742099D01*
X131101793Y-117742099D02*
X131101793Y-117932575D01*
X131101793Y-117932575D02*
X131054174Y-118027813D01*
X131054174Y-118027813D02*
X131006555Y-118075432D01*
X131006555Y-118075432D02*
X130911317Y-118123051D01*
X139724819Y-98033333D02*
X139248628Y-97700000D01*
X139724819Y-97461905D02*
X138724819Y-97461905D01*
X138724819Y-97461905D02*
X138724819Y-97842857D01*
X138724819Y-97842857D02*
X138772438Y-97938095D01*
X138772438Y-97938095D02*
X138820057Y-97985714D01*
X138820057Y-97985714D02*
X138915295Y-98033333D01*
X138915295Y-98033333D02*
X139058152Y-98033333D01*
X139058152Y-98033333D02*
X139153390Y-97985714D01*
X139153390Y-97985714D02*
X139201009Y-97938095D01*
X139201009Y-97938095D02*
X139248628Y-97842857D01*
X139248628Y-97842857D02*
X139248628Y-97461905D01*
X139153390Y-98604762D02*
X139105771Y-98509524D01*
X139105771Y-98509524D02*
X139058152Y-98461905D01*
X139058152Y-98461905D02*
X138962914Y-98414286D01*
X138962914Y-98414286D02*
X138915295Y-98414286D01*
X138915295Y-98414286D02*
X138820057Y-98461905D01*
X138820057Y-98461905D02*
X138772438Y-98509524D01*
X138772438Y-98509524D02*
X138724819Y-98604762D01*
X138724819Y-98604762D02*
X138724819Y-98795238D01*
X138724819Y-98795238D02*
X138772438Y-98890476D01*
X138772438Y-98890476D02*
X138820057Y-98938095D01*
X138820057Y-98938095D02*
X138915295Y-98985714D01*
X138915295Y-98985714D02*
X138962914Y-98985714D01*
X138962914Y-98985714D02*
X139058152Y-98938095D01*
X139058152Y-98938095D02*
X139105771Y-98890476D01*
X139105771Y-98890476D02*
X139153390Y-98795238D01*
X139153390Y-98795238D02*
X139153390Y-98604762D01*
X139153390Y-98604762D02*
X139201009Y-98509524D01*
X139201009Y-98509524D02*
X139248628Y-98461905D01*
X139248628Y-98461905D02*
X139343866Y-98414286D01*
X139343866Y-98414286D02*
X139534342Y-98414286D01*
X139534342Y-98414286D02*
X139629580Y-98461905D01*
X139629580Y-98461905D02*
X139677200Y-98509524D01*
X139677200Y-98509524D02*
X139724819Y-98604762D01*
X139724819Y-98604762D02*
X139724819Y-98795238D01*
X139724819Y-98795238D02*
X139677200Y-98890476D01*
X139677200Y-98890476D02*
X139629580Y-98938095D01*
X139629580Y-98938095D02*
X139534342Y-98985714D01*
X139534342Y-98985714D02*
X139343866Y-98985714D01*
X139343866Y-98985714D02*
X139248628Y-98938095D01*
X139248628Y-98938095D02*
X139201009Y-98890476D01*
X139201009Y-98890476D02*
X139153390Y-98795238D01*
X129884819Y-116357142D02*
X129408628Y-116023809D01*
X129884819Y-115785714D02*
X128884819Y-115785714D01*
X128884819Y-115785714D02*
X128884819Y-116166666D01*
X128884819Y-116166666D02*
X128932438Y-116261904D01*
X128932438Y-116261904D02*
X128980057Y-116309523D01*
X128980057Y-116309523D02*
X129075295Y-116357142D01*
X129075295Y-116357142D02*
X129218152Y-116357142D01*
X129218152Y-116357142D02*
X129313390Y-116309523D01*
X129313390Y-116309523D02*
X129361009Y-116261904D01*
X129361009Y-116261904D02*
X129408628Y-116166666D01*
X129408628Y-116166666D02*
X129408628Y-115785714D01*
X129884819Y-117309523D02*
X129884819Y-116738095D01*
X129884819Y-117023809D02*
X128884819Y-117023809D01*
X128884819Y-117023809D02*
X129027676Y-116928571D01*
X129027676Y-116928571D02*
X129122914Y-116833333D01*
X129122914Y-116833333D02*
X129170533Y-116738095D01*
X128884819Y-118214285D02*
X128884819Y-117738095D01*
X128884819Y-117738095D02*
X129361009Y-117690476D01*
X129361009Y-117690476D02*
X129313390Y-117738095D01*
X129313390Y-117738095D02*
X129265771Y-117833333D01*
X129265771Y-117833333D02*
X129265771Y-118071428D01*
X129265771Y-118071428D02*
X129313390Y-118166666D01*
X129313390Y-118166666D02*
X129361009Y-118214285D01*
X129361009Y-118214285D02*
X129456247Y-118261904D01*
X129456247Y-118261904D02*
X129694342Y-118261904D01*
X129694342Y-118261904D02*
X129789580Y-118214285D01*
X129789580Y-118214285D02*
X129837200Y-118166666D01*
X129837200Y-118166666D02*
X129884819Y-118071428D01*
X129884819Y-118071428D02*
X129884819Y-117833333D01*
X129884819Y-117833333D02*
X129837200Y-117738095D01*
X129837200Y-117738095D02*
X129789580Y-117690476D01*
X126066666Y-100724819D02*
X126399999Y-100248628D01*
X126638094Y-100724819D02*
X126638094Y-99724819D01*
X126638094Y-99724819D02*
X126257142Y-99724819D01*
X126257142Y-99724819D02*
X126161904Y-99772438D01*
X126161904Y-99772438D02*
X126114285Y-99820057D01*
X126114285Y-99820057D02*
X126066666Y-99915295D01*
X126066666Y-99915295D02*
X126066666Y-100058152D01*
X126066666Y-100058152D02*
X126114285Y-100153390D01*
X126114285Y-100153390D02*
X126161904Y-100201009D01*
X126161904Y-100201009D02*
X126257142Y-100248628D01*
X126257142Y-100248628D02*
X126638094Y-100248628D01*
X125733332Y-99724819D02*
X125114285Y-99724819D01*
X125114285Y-99724819D02*
X125447618Y-100105771D01*
X125447618Y-100105771D02*
X125304761Y-100105771D01*
X125304761Y-100105771D02*
X125209523Y-100153390D01*
X125209523Y-100153390D02*
X125161904Y-100201009D01*
X125161904Y-100201009D02*
X125114285Y-100296247D01*
X125114285Y-100296247D02*
X125114285Y-100534342D01*
X125114285Y-100534342D02*
X125161904Y-100629580D01*
X125161904Y-100629580D02*
X125209523Y-100677200D01*
X125209523Y-100677200D02*
X125304761Y-100724819D01*
X125304761Y-100724819D02*
X125590475Y-100724819D01*
X125590475Y-100724819D02*
X125685713Y-100677200D01*
X125685713Y-100677200D02*
X125733332Y-100629580D01*
X127466666Y-107359580D02*
X127514285Y-107407200D01*
X127514285Y-107407200D02*
X127657142Y-107454819D01*
X127657142Y-107454819D02*
X127752380Y-107454819D01*
X127752380Y-107454819D02*
X127895237Y-107407200D01*
X127895237Y-107407200D02*
X127990475Y-107311961D01*
X127990475Y-107311961D02*
X128038094Y-107216723D01*
X128038094Y-107216723D02*
X128085713Y-107026247D01*
X128085713Y-107026247D02*
X128085713Y-106883390D01*
X128085713Y-106883390D02*
X128038094Y-106692914D01*
X128038094Y-106692914D02*
X127990475Y-106597676D01*
X127990475Y-106597676D02*
X127895237Y-106502438D01*
X127895237Y-106502438D02*
X127752380Y-106454819D01*
X127752380Y-106454819D02*
X127657142Y-106454819D01*
X127657142Y-106454819D02*
X127514285Y-106502438D01*
X127514285Y-106502438D02*
X127466666Y-106550057D01*
X127133332Y-106454819D02*
X126514285Y-106454819D01*
X126514285Y-106454819D02*
X126847618Y-106835771D01*
X126847618Y-106835771D02*
X126704761Y-106835771D01*
X126704761Y-106835771D02*
X126609523Y-106883390D01*
X126609523Y-106883390D02*
X126561904Y-106931009D01*
X126561904Y-106931009D02*
X126514285Y-107026247D01*
X126514285Y-107026247D02*
X126514285Y-107264342D01*
X126514285Y-107264342D02*
X126561904Y-107359580D01*
X126561904Y-107359580D02*
X126609523Y-107407200D01*
X126609523Y-107407200D02*
X126704761Y-107454819D01*
X126704761Y-107454819D02*
X126990475Y-107454819D01*
X126990475Y-107454819D02*
X127085713Y-107407200D01*
X127085713Y-107407200D02*
X127133332Y-107359580D01*
X131861904Y-99054819D02*
X131861904Y-99864342D01*
X131861904Y-99864342D02*
X131814285Y-99959580D01*
X131814285Y-99959580D02*
X131766666Y-100007200D01*
X131766666Y-100007200D02*
X131671428Y-100054819D01*
X131671428Y-100054819D02*
X131480952Y-100054819D01*
X131480952Y-100054819D02*
X131385714Y-100007200D01*
X131385714Y-100007200D02*
X131338095Y-99959580D01*
X131338095Y-99959580D02*
X131290476Y-99864342D01*
X131290476Y-99864342D02*
X131290476Y-99054819D01*
X130385714Y-99054819D02*
X130576190Y-99054819D01*
X130576190Y-99054819D02*
X130671428Y-99102438D01*
X130671428Y-99102438D02*
X130719047Y-99150057D01*
X130719047Y-99150057D02*
X130814285Y-99292914D01*
X130814285Y-99292914D02*
X130861904Y-99483390D01*
X130861904Y-99483390D02*
X130861904Y-99864342D01*
X130861904Y-99864342D02*
X130814285Y-99959580D01*
X130814285Y-99959580D02*
X130766666Y-100007200D01*
X130766666Y-100007200D02*
X130671428Y-100054819D01*
X130671428Y-100054819D02*
X130480952Y-100054819D01*
X130480952Y-100054819D02*
X130385714Y-100007200D01*
X130385714Y-100007200D02*
X130338095Y-99959580D01*
X130338095Y-99959580D02*
X130290476Y-99864342D01*
X130290476Y-99864342D02*
X130290476Y-99626247D01*
X130290476Y-99626247D02*
X130338095Y-99531009D01*
X130338095Y-99531009D02*
X130385714Y-99483390D01*
X130385714Y-99483390D02*
X130480952Y-99435771D01*
X130480952Y-99435771D02*
X130671428Y-99435771D01*
X130671428Y-99435771D02*
X130766666Y-99483390D01*
X130766666Y-99483390D02*
X130814285Y-99531009D01*
X130814285Y-99531009D02*
X130861904Y-99626247D01*
X133589580Y-107633333D02*
X133637200Y-107585714D01*
X133637200Y-107585714D02*
X133684819Y-107442857D01*
X133684819Y-107442857D02*
X133684819Y-107347619D01*
X133684819Y-107347619D02*
X133637200Y-107204762D01*
X133637200Y-107204762D02*
X133541961Y-107109524D01*
X133541961Y-107109524D02*
X133446723Y-107061905D01*
X133446723Y-107061905D02*
X133256247Y-107014286D01*
X133256247Y-107014286D02*
X133113390Y-107014286D01*
X133113390Y-107014286D02*
X132922914Y-107061905D01*
X132922914Y-107061905D02*
X132827676Y-107109524D01*
X132827676Y-107109524D02*
X132732438Y-107204762D01*
X132732438Y-107204762D02*
X132684819Y-107347619D01*
X132684819Y-107347619D02*
X132684819Y-107442857D01*
X132684819Y-107442857D02*
X132732438Y-107585714D01*
X132732438Y-107585714D02*
X132780057Y-107633333D01*
X133018152Y-108490476D02*
X133684819Y-108490476D01*
X132637200Y-108252381D02*
X133351485Y-108014286D01*
X133351485Y-108014286D02*
X133351485Y-108633333D01*
X165761904Y-122654818D02*
X165761904Y-123464341D01*
X165761904Y-123464341D02*
X165714285Y-123559579D01*
X165714285Y-123559579D02*
X165666666Y-123607199D01*
X165666666Y-123607199D02*
X165571428Y-123654818D01*
X165571428Y-123654818D02*
X165380952Y-123654818D01*
X165380952Y-123654818D02*
X165285714Y-123607199D01*
X165285714Y-123607199D02*
X165238095Y-123559579D01*
X165238095Y-123559579D02*
X165190476Y-123464341D01*
X165190476Y-123464341D02*
X165190476Y-122654818D01*
X164761904Y-122750056D02*
X164714285Y-122702437D01*
X164714285Y-122702437D02*
X164619047Y-122654818D01*
X164619047Y-122654818D02*
X164380952Y-122654818D01*
X164380952Y-122654818D02*
X164285714Y-122702437D01*
X164285714Y-122702437D02*
X164238095Y-122750056D01*
X164238095Y-122750056D02*
X164190476Y-122845294D01*
X164190476Y-122845294D02*
X164190476Y-122940532D01*
X164190476Y-122940532D02*
X164238095Y-123083389D01*
X164238095Y-123083389D02*
X164809523Y-123654818D01*
X164809523Y-123654818D02*
X164190476Y-123654818D01*
D11*
%TO.C,R1*%
X186565000Y-98962258D02*
X186565000Y-98487742D01*
X187610000Y-98962258D02*
X187610000Y-98487742D01*
%TO.C,U11*%
X160600000Y-102000000D02*
X163600000Y-102000000D01*
X160600000Y-105000000D02*
X163600000Y-105000000D01*
X163950000Y-102100000D02*
X163710000Y-101770000D01*
X164190000Y-101770000D01*
X163950000Y-102100000D01*
G36*
X163950000Y-102100000D02*
G01*
X163710000Y-101770000D01*
X164190000Y-101770000D01*
X163950000Y-102100000D01*
G37*
%TO.C,U8*%
X128822686Y-115757494D02*
X130022688Y-115757494D01*
X128822687Y-117717494D02*
X128822686Y-115757494D01*
X130022687Y-117717494D02*
X130022688Y-115757494D01*
%TO.C,R16*%
X130377500Y-116862742D02*
X130377500Y-117337258D01*
X131422500Y-116862742D02*
X131422500Y-117337258D01*
%TO.C,R6*%
X129262742Y-108047500D02*
X129737258Y-108047500D01*
X129262742Y-109092500D02*
X129737258Y-109092500D01*
%TO.C,Q1*%
X189762500Y-97165000D02*
X189112500Y-97165000D01*
X189762500Y-97165000D02*
X190412500Y-97165000D01*
X189762500Y-100285000D02*
X189112500Y-100285000D01*
X189762500Y-100285000D02*
X190412500Y-100285000D01*
X188840000Y-100565000D02*
X188360000Y-100565000D01*
X188600000Y-100235000D01*
X188840000Y-100565000D01*
G36*
X188840000Y-100565000D02*
G01*
X188360000Y-100565000D01*
X188600000Y-100235000D01*
X188840000Y-100565000D01*
G37*
%TO.C,C6*%
X157239970Y-102438781D02*
X157438781Y-102239970D01*
X157961219Y-103160030D02*
X158160030Y-102961219D01*
%TO.C,C1*%
X125990000Y-117359419D02*
X125990000Y-117640581D01*
X127010000Y-117359419D02*
X127010000Y-117640581D01*
%TO.C,R7*%
X160062742Y-100477500D02*
X160537258Y-100477500D01*
X160062742Y-101522500D02*
X160537258Y-101522500D01*
%TO.C,U3*%
X175340000Y-112000001D02*
X175339999Y-110050001D01*
X175340000Y-112000001D02*
X175339999Y-113950001D01*
X180459998Y-112000001D02*
X180459999Y-110050001D01*
X180459998Y-112000001D02*
X180459999Y-113950001D01*
X180694999Y-114940000D02*
X180364999Y-114700001D01*
X180694999Y-114460001D01*
X180694999Y-114940000D01*
G36*
X180694999Y-114940000D02*
G01*
X180364999Y-114700001D01*
X180694999Y-114460001D01*
X180694999Y-114940000D01*
G37*
%TO.C,D3*%
X124415000Y-100265000D02*
X126700000Y-100265000D01*
X124415000Y-101735000D02*
X124415000Y-100265000D01*
X126700000Y-101735000D02*
X124415000Y-101735000D01*
%TO.C,U9*%
X131727926Y-116053528D02*
X132927928Y-116053528D01*
X131727927Y-118013528D02*
X131727926Y-116053528D01*
X132927927Y-118013528D02*
X132927928Y-116053528D01*
%TO.C,R8*%
X140177500Y-97962742D02*
X140177500Y-98437258D01*
X141222500Y-97962742D02*
X141222500Y-98437258D01*
%TO.C,R15*%
X127477500Y-117237258D02*
X127477500Y-116762742D01*
X128522500Y-117237258D02*
X128522500Y-116762742D01*
%TO.C,R3*%
X126137258Y-101977500D02*
X125662742Y-101977500D01*
X126137258Y-103022500D02*
X125662742Y-103022500D01*
%TO.C,C3*%
X129359419Y-106590000D02*
X129640581Y-106590000D01*
X129359419Y-107610000D02*
X129640581Y-107610000D01*
%TO.C,U6*%
X131100000Y-100440000D02*
X129150000Y-100440000D01*
X131100000Y-100440000D02*
X133050000Y-100440000D01*
X131100000Y-105560000D02*
X129150000Y-105560000D01*
X131100000Y-105560000D02*
X133050000Y-105560000D01*
X133800000Y-100535000D02*
X133560000Y-100205000D01*
X134040000Y-100205000D01*
X133800000Y-100535000D01*
G36*
X133800000Y-100535000D02*
G01*
X133560000Y-100205000D01*
X134040000Y-100205000D01*
X133800000Y-100535000D01*
G37*
%TO.C,C4*%
X131290000Y-107940581D02*
X131290000Y-107659419D01*
X132310000Y-107940581D02*
X132310000Y-107659419D01*
%TO.C,U2*%
X156900000Y-105900000D02*
X173100000Y-105900000D01*
X156900000Y-106300000D02*
X156900000Y-105900000D01*
X156900000Y-122100000D02*
X173100000Y-122100000D01*
X173100000Y-105900000D02*
X173100000Y-106300000D01*
X173100000Y-122100000D02*
X173100000Y-121700000D01*
X156640000Y-122236000D02*
X156160001Y-122236000D01*
X156400000Y-121900000D01*
X156640000Y-122236000D01*
G36*
X156640000Y-122236000D02*
G01*
X156160001Y-122236000D01*
X156400000Y-121900000D01*
X156640000Y-122236000D01*
G37*
%TD*%
M02*
